<svg xmlns="http://www.w3.org/2000/svg" width="47.4" height="40" viewBox="0 0 47.4 40">
  <title>arrow-left-alt-white</title>
  <path d="M1882.8,365.3a4,4,0,0,0,2.8-1.1,3.8,3.8,0,0,0,0-5.5,4,4,0,0,0-5.6,0,3.8,3.8,0,0,0,0,5.5A4,4,0,0,0,1882.8,365.3Z" transform="translate(-1862.8 -357.6)" style="fill: #fff"/>
  <path d="M1877.4,372.2a3.8,3.8,0,0,0,0-5.5h0a3.9,3.9,0,0,0-5.5,0h0a3.8,3.8,0,0,0,0,5.5h0a4,4,0,0,0,2.8,1.1h0A3.9,3.9,0,0,0,1877.4,372.2Z" transform="translate(-1862.8 -357.6)" style="fill: #fff"/>
  <path d="M1882.8,397.4a4,4,0,0,0,2.8-1.1,3.8,3.8,0,0,0,0-5.5,4,4,0,0,0-5.6,0,3.8,3.8,0,0,0,0,5.5A4,4,0,0,0,1882.8,397.4Z" transform="translate(-1862.8 -357.6)" style="fill: #fff"/>
  <path d="M1877.4,388a3.8,3.8,0,0,0,0-5.5h0a3.9,3.9,0,0,0-5.5,0h0a3.8,3.8,0,0,0,0,5.5h0a4,4,0,0,0,2.8,1.1h0A3.9,3.9,0,0,0,1877.4,388Z" transform="translate(-1862.8 -357.6)" style="fill: #fff"/>
  <path d="M1866.8,373.6a4,4,0,0,0-2.8,1.1,3.8,3.8,0,0,0,0,5.5,4,4,0,0,0,5.6,0,3.8,3.8,0,0,0,0-5.5A4,4,0,0,0,1866.8,373.6Z" transform="translate(-1862.8 -357.6)" style="fill: #fff"/>
  <path d="M1882.5,373.6a4,4,0,0,0-2.8,1.1,3.8,3.8,0,0,0,0,5.5,4,4,0,0,0,5.6,0,3.8,3.8,0,0,0,0-5.5A4,4,0,0,0,1882.5,373.6Z" transform="translate(-1862.8 -357.6)" style="fill: #fff"/>
  <path d="M1893.5,374.9a4,4,0,0,0-2.8,1.1,3.8,3.8,0,0,0,0,5.5,4,4,0,0,0,5.6,0,3.8,3.8,0,0,0,0-5.5A4,4,0,0,0,1893.5,374.9Z" transform="translate(-1862.8 -357.6)" style="fill: #fff"/>
  <path d="M1903,379.9a4,4,0,0,0-2.8,1.1,3.8,3.8,0,0,0,0,5.5,4,4,0,0,0,5.6,0,3.8,3.8,0,0,0,0-5.5A4,4,0,0,0,1903,379.9Z" transform="translate(-1862.8 -357.6)" style="fill: #fff"/>
  <path d="M1906.3,389.9a4,4,0,0,0-2.8,1.1,3.8,3.8,0,0,0,0,5.5,4,4,0,0,0,5.6,0,3.8,3.8,0,0,0,0-5.5A4,4,0,0,0,1906.3,389.9Z" transform="translate(-1862.8 -357.6)" style="fill: #fff"/>
</svg>
