<svg xmlns="http://www.w3.org/2000/svg" width="44.5" height="39.8" viewBox="0 0 44.5 39.8">
  <title>arrow-right-white</title>
  <g>
    <g>
      <g>
        <path d="M1680.8,389.7a4,4,0,0,0-2.8,1.1,3.8,3.8,0,0,0,0,5.5,4,4,0,0,0,5.6,0,3.8,3.8,0,0,0,0-5.5A4,4,0,0,0,1680.8,389.7Z" transform="translate(-1656.2 -357.6)" style="fill: #fff"/>
        <path d="M1686.1,382.8a3.8,3.8,0,0,0,0,5.5h0a3.9,3.9,0,0,0,5.5,0h0a3.8,3.8,0,0,0,0-5.5h0a4,4,0,0,0-2.8-1.1h0A3.9,3.9,0,0,0,1686.1,382.8Z" transform="translate(-1656.2 -357.6)" style="fill: #fff"/>
      </g>
      <g>
        <path d="M1680.8,357.6a4,4,0,0,0-2.8,1.1,3.8,3.8,0,0,0,0,5.5,4,4,0,0,0,5.6,0,3.8,3.8,0,0,0,0-5.5A4,4,0,0,0,1680.8,357.6Z" transform="translate(-1656.2 -357.6)" style="fill: #fff"/>
        <path d="M1686.1,367a3.8,3.8,0,0,0,0,5.5h0a3.9,3.9,0,0,0,5.5,0h0a3.8,3.8,0,0,0,0-5.5h0a4,4,0,0,0-2.8-1.1h0A3.9,3.9,0,0,0,1686.1,367Z" transform="translate(-1656.2 -357.6)" style="fill: #fff"/>
      </g>
    </g>
    <path d="M1696.8,381.4a4,4,0,0,0,2.8-1.1,3.8,3.8,0,0,0,0-5.5,4,4,0,0,0-5.6,0,3.8,3.8,0,0,0,0,5.5A4,4,0,0,0,1696.8,381.4Z" transform="translate(-1656.2 -357.6)" style="fill: #fff"/>
    <path d="M1681.1,381.4a4,4,0,0,0,2.8-1.1,3.8,3.8,0,0,0,0-5.5,4,4,0,0,0-5.6,0,3.8,3.8,0,0,0,0,5.5A4,4,0,0,0,1681.1,381.4Z" transform="translate(-1656.2 -357.6)" style="fill: #fff"/>
    <path d="M1670.6,381.4a4,4,0,0,0,2.8-1.1,3.8,3.8,0,0,0,0-5.5,4,4,0,0,0-5.6,0,3.8,3.8,0,0,0,0,5.5A4,4,0,0,0,1670.6,381.4Z" transform="translate(-1656.2 -357.6)" style="fill: #fff"/>
    <path d="M1660.1,381.4a4,4,0,0,0,2.8-1.1,3.8,3.8,0,0,0,0-5.5,4,4,0,0,0-5.6,0,3.8,3.8,0,0,0,0,5.5A4,4,0,0,0,1660.1,381.4Z" transform="translate(-1656.2 -357.6)" style="fill: #fff"/>
  </g>
</svg>
