<?xml version="1.0" encoding="utf-8"?>
<!-- Generator: Adobe Illustrator 19.2.0, SVG Export Plug-In . SVG Version: 6.00 Build 0)  -->
<!DOCTYPE svg PUBLIC "-//W3C//DTD SVG 1.1//EN" "http://www.w3.org/Graphics/SVG/1.1/DTD/svg11.dtd">
<svg version="1.1" id="Layer_1" xmlns="http://www.w3.org/2000/svg" xmlns:xlink="http://www.w3.org/1999/xlink" x="0px" y="0px"
	 width="35px" height="35px" viewBox="0 0 35 35" style="enable-background:new 0 0 35 35;" xml:space="preserve">
<style type="text/css">
	.st0{fill:#CCCCCC;}
</style>
<g>
	<g>
		<g>
			<g>
				<g>
					<path class="st0" d="M31.5,6.8c0.9,0,1.8-0.4,2.5-1c0.6-0.7,1-1.5,1-2.4S34.6,1.6,34,1s-1.5-1-2.5-1c-0.9,0-1.8,0.4-2.5,1
						s-1,1.5-1,2.4s0.4,1.8,1,2.4C29.8,6.4,30.6,6.8,31.5,6.8z"/>
				</g>
				<g>
					<path class="st0" d="M26.9,12.9c1.4-1.4,1.4-3.5,0-4.8l0,0c-1.4-1.4-3.5-1.4-4.9,0l0,0c-1.4,1.3-1.4,3.5,0,4.8l0,0
						c0.6,0.6,1.5,1,2.5,1l0,0C25.3,13.9,26.2,13.5,26.9,12.9z"/>
				</g>
			</g>
			<g>
				<g>
					<path class="st0" d="M31.5,35c0.9,0,1.8-0.3,2.5-1c0.6-0.7,1-1.5,1-2.4s-0.4-1.8-1-2.4s-1.5-1-2.5-1c-0.9,0-1.8,0.4-2.5,1
						s-1,1.5-1,2.4s0.4,1.7,1,2.4C29.8,34.7,30.6,35,31.5,35z"/>
				</g>
				<g>
					<path class="st0" d="M26.9,26.7c1.4-1.4,1.4-3.5,0-4.8l0,0c-1.4-1.4-3.5-1.4-4.9,0l0,0c-1.4,1.3-1.4,3.5,0,4.8l0,0
						c0.6,0.6,1.5,1,2.5,1l0,0C25.3,27.7,26.2,27.4,26.9,26.7z"/>
				</g>
			</g>
		</g>
		<g>
			<g>
				<g>
					<path class="st0" d="M3.5,28.2c-0.9,0-1.8,0.4-2.5,1s-1,1.5-1,2.4s0.3,1.7,1,2.4s1.5,1,2.5,1s1.8-0.3,2.5-1s1-1.5,1-2.4
						s-0.3-1.8-1-2.4C5.2,28.5,4.3,28.2,3.5,28.2z"/>
				</g>
				<g>
					<path class="st0" d="M8.1,22.1c-1.3,1.4-1.3,3.5,0,4.8l0,0c1.4,1.4,3.6,1.4,4.9,0l0,0c1.4-1.4,1.4-3.5,0-4.8l0,0
						c-0.6-0.7-1.6-1-2.4-1l0,0C9.7,21.1,8.8,21.5,8.1,22.1z"/>
				</g>
			</g>
			<g>
				<g>
					<path class="st0" d="M3.5,0C2.6,0,1.7,0.4,1,1S0,2.5,0,3.4s0.3,1.8,1,2.4s1.5,1,2.5,1s1.8-0.3,2.5-1s1-1.5,1-2.4S6.6,1.7,5.9,1
						S4.3,0,3.5,0z"/>
				</g>
				<g>
					<path class="st0" d="M8.1,8.3c-1.3,1.3-1.3,3.5,0,4.8l0,0c1.4,1.4,3.6,1.4,4.9,0l0,0c1.4-1.4,1.4-3.5,0-4.8l0,0
						c-0.6-0.7-1.6-1-2.4-1l0,0C9.7,7.3,8.8,7.7,8.1,8.3z"/>
				</g>
			</g>
		</g>
	</g>
	<g>
		<path class="st0" d="M17.5,20.9c0.9,0,1.8-0.4,2.5-1s1-1.5,1-2.4c0-0.9-0.4-1.8-1-2.4c-0.6-0.6-1.5-1-2.5-1c-0.9,0-1.8,0.4-2.4,1
			c-0.6,0.7-1,1.5-1,2.4c0,0.9,0.4,1.8,1,2.4C15.7,20.5,16.6,20.9,17.5,20.9z"/>
	</g>
</g>
</svg>
