<?xml version="1.0" encoding="utf-8"?>
<!-- Generator: Adobe Illustrator 19.1.0, SVG Export Plug-In . SVG Version: 6.00 Build 0)  -->
<svg version="1.1" id="Layer_1" xmlns="http://www.w3.org/2000/svg" xmlns:xlink="http://www.w3.org/1999/xlink" x="0px" y="0px"
	 viewBox="0 0 200 200" style="enable-background:new 0 0 200 200;" xml:space="preserve">
<style type="text/css">
	.st0{fill:#CCCCCC;}
	.st1{filter:url(#Adobe_OpacityMaskFilter);}
	.st2{fill:#FFFFFF;}
	.st3{mask:url(#SVGID_1_);}
	.st4{fill:none;stroke:#000000;stroke-miterlimit:10;}
	.st5{fill:#F7F7F7;}
	.st6{fill:#CD153E;}
	.st7{fill:none;stroke:#FFFFFF;stroke-width:5;stroke-linecap:round;stroke-linejoin:round;stroke-miterlimit:10;}
	.st8{fill:#F89C24;}
	.st9{opacity:0.5;fill:#0083C1;}
	.st10{fill:#0083C1;}
	.st11{fill:none;stroke:#FFFFFF;stroke-width:6;stroke-linecap:round;stroke-linejoin:round;stroke-miterlimit:10;}
</style>
<circle class="st0" cx="781.2" cy="-660.6" r="100"/>
<defs>
	<filter id="Adobe_OpacityMaskFilter" filterUnits="userSpaceOnUse" x="-2993.2" y="-3545.5" width="2554" height="6377">
		<feColorMatrix  type="matrix" values="1 0 0 0 0  0 1 0 0 0  0 0 1 0 0  0 0 0 1 0"/>
	</filter>
</defs>
<mask maskUnits="userSpaceOnUse" x="-2993.2" y="-3545.5" width="2554" height="6377" id="SVGID_1_">
	<g class="st1">
		<g>
			<path class="st2" d="M-1646.2-1134c-451.5,0-817.5,347.9-817.5,777c0,429.1,366,777,817.5,777c451.4,0,817.4-347.9,817.4-777
				C-828.7-786.1-1194.7-1134-1646.2-1134 M-1480.1,321.1c-319.2,86.7-665.8-134.1-766.5-517.7c-85.3-324.7,86.9-757.8,412.7-846.3
				c319.2-86.7,665.7,143.2,766.5,526.7C-966.7-132.7-1160.9,234.4-1480.1,321.1z"/>
		</g>
	</g>
</mask>
<g class="st3">
	<line class="st4" x1="-439.6" y1="-1643.6" x2="-2992.9" y2="909.6"/>
	<line class="st4" x1="-439.6" y1="-1663.7" x2="-2992.9" y2="889.6"/>
	<line class="st4" x1="-439.6" y1="-1683.7" x2="-2992.9" y2="869.6"/>
	<line class="st4" x1="-439.6" y1="-1703.7" x2="-2992.9" y2="849.6"/>
	<line class="st4" x1="-439.6" y1="-1723.7" x2="-2992.9" y2="829.6"/>
	<line class="st4" x1="-439.6" y1="-1743.7" x2="-2992.9" y2="809.5"/>
	<line class="st4" x1="-439.6" y1="-1763.7" x2="-2992.9" y2="789.5"/>
	<line class="st4" x1="-439.6" y1="-1783.8" x2="-2992.9" y2="769.5"/>
	<line class="st4" x1="-439.6" y1="-1803.8" x2="-2992.9" y2="749.5"/>
	<line class="st4" x1="-439.6" y1="-1823.8" x2="-2992.9" y2="729.5"/>
	<line class="st4" x1="-439.6" y1="-1843.8" x2="-2992.9" y2="709.5"/>
	<line class="st4" x1="-439.6" y1="-1863.8" x2="-2992.9" y2="689.4"/>
	<line class="st4" x1="-439.6" y1="-1883.8" x2="-2992.9" y2="669.4"/>
	<line class="st4" x1="-439.6" y1="-1903.8" x2="-2992.9" y2="649.4"/>
	<line class="st4" x1="-439.6" y1="-1923.9" x2="-2992.9" y2="629.4"/>
	<line class="st4" x1="-439.6" y1="-1943.9" x2="-2992.9" y2="609.4"/>
	<line class="st4" x1="-439.6" y1="-1963.9" x2="-2992.9" y2="589.4"/>
	<line class="st4" x1="-439.6" y1="-1983.9" x2="-2992.9" y2="569.3"/>
	<line class="st4" x1="-439.6" y1="-2003.9" x2="-2992.9" y2="549.3"/>
	<line class="st4" x1="-439.6" y1="-2023.9" x2="-2992.9" y2="529.3"/>
	<line class="st4" x1="-439.6" y1="-2044" x2="-2992.9" y2="509.3"/>
	<line class="st4" x1="-439.6" y1="-2064" x2="-2992.9" y2="489.3"/>
	<line class="st4" x1="-439.6" y1="-2084" x2="-2992.9" y2="469.3"/>
	<line class="st4" x1="-439.6" y1="-2104" x2="-2992.9" y2="449.2"/>
	<line class="st4" x1="-439.6" y1="-2124" x2="-2992.9" y2="429.2"/>
	<line class="st4" x1="-439.6" y1="-2144" x2="-2992.9" y2="409.2"/>
	<line class="st4" x1="-439.6" y1="-2164.1" x2="-2992.9" y2="389.2"/>
	<line class="st4" x1="-439.6" y1="-2184.1" x2="-2992.9" y2="369.2"/>
	<line class="st4" x1="-439.6" y1="-2204.1" x2="-2992.9" y2="349.2"/>
	<line class="st4" x1="-439.6" y1="-2224.1" x2="-2992.9" y2="329.2"/>
	<line class="st4" x1="-439.6" y1="-2244.1" x2="-2992.9" y2="309.1"/>
	<line class="st4" x1="-439.6" y1="-2264.1" x2="-2992.9" y2="289.1"/>
	<line class="st4" x1="-439.6" y1="-2284.2" x2="-2992.9" y2="269.1"/>
	<line class="st4" x1="-439.6" y1="-2304.2" x2="-2992.9" y2="249.1"/>
	<line class="st4" x1="-439.6" y1="-2324.2" x2="-2992.9" y2="229.1"/>
	<line class="st4" x1="-439.6" y1="-2344.2" x2="-2992.9" y2="209.1"/>
	<line class="st4" x1="-439.6" y1="-2364.2" x2="-2992.9" y2="189"/>
	<line class="st4" x1="-439.6" y1="-2384.2" x2="-2992.9" y2="169"/>
	<line class="st4" x1="-439.6" y1="-2404.2" x2="-2992.9" y2="149"/>
	<line class="st4" x1="-439.6" y1="-2424.3" x2="-2992.9" y2="129"/>
	<line class="st4" x1="-439.6" y1="-2444.3" x2="-2992.9" y2="109"/>
	<line class="st4" x1="-439.6" y1="-2464.3" x2="-2992.9" y2="89"/>
	<line class="st4" x1="-439.6" y1="-2484.3" x2="-2992.9" y2="68.9"/>
	<line class="st4" x1="-439.6" y1="-2504.3" x2="-2992.9" y2="48.9"/>
	<line class="st4" x1="-439.6" y1="-2524.3" x2="-2992.9" y2="28.9"/>
	<line class="st4" x1="-439.6" y1="-2544.4" x2="-2992.9" y2="8.9"/>
	<line class="st4" x1="-439.6" y1="-2564.4" x2="-2992.9" y2="-11.1"/>
	<line class="st4" x1="-439.6" y1="-2584.4" x2="-2992.9" y2="-31.1"/>
	<line class="st4" x1="-439.6" y1="-2604.4" x2="-2992.9" y2="-51.2"/>
	<line class="st4" x1="-439.6" y1="-2624.4" x2="-2992.9" y2="-71.2"/>
	<line class="st4" x1="-439.6" y1="-2644.4" x2="-2992.9" y2="-91.2"/>
	<line class="st4" x1="-439.6" y1="-2664.5" x2="-2992.9" y2="-111.2"/>
	<line class="st4" x1="-439.6" y1="-2684.5" x2="-2992.9" y2="-131.2"/>
	<line class="st4" x1="-439.6" y1="-2704.5" x2="-2992.9" y2="-151.2"/>
	<line class="st4" x1="-439.6" y1="-2724.5" x2="-2992.9" y2="-171.2"/>
	<line class="st4" x1="-439.6" y1="-2744.5" x2="-2992.9" y2="-191.3"/>
	<line class="st4" x1="-439.6" y1="-2764.5" x2="-2992.9" y2="-211.3"/>
	<line class="st4" x1="-439.6" y1="-2784.6" x2="-2992.9" y2="-231.3"/>
	<line class="st4" x1="-439.6" y1="-2804.6" x2="-2992.9" y2="-251.3"/>
	<line class="st4" x1="-439.6" y1="-2824.6" x2="-2992.9" y2="-271.3"/>
	<line class="st4" x1="-439.6" y1="-2844.6" x2="-2992.9" y2="-291.3"/>
	<line class="st4" x1="-439.6" y1="-2864.6" x2="-2992.9" y2="-311.4"/>
	<line class="st4" x1="-439.6" y1="-2884.6" x2="-2992.9" y2="-331.4"/>
	<line class="st4" x1="-439.6" y1="-2904.6" x2="-2992.9" y2="-351.4"/>
	<line class="st4" x1="-439.6" y1="-2924.7" x2="-2992.9" y2="-371.4"/>
	<line class="st4" x1="-439.6" y1="-2944.7" x2="-2992.9" y2="-391.4"/>
	<line class="st4" x1="-439.6" y1="-2964.7" x2="-2992.9" y2="-411.4"/>
	<line class="st4" x1="-439.6" y1="-2984.7" x2="-2992.9" y2="-431.5"/>
	<line class="st4" x1="-439.6" y1="-3004.7" x2="-2992.9" y2="-451.5"/>
	<line class="st4" x1="-439.6" y1="-3024.7" x2="-2992.9" y2="-471.5"/>
	<line class="st4" x1="-439.6" y1="-3044.8" x2="-2992.9" y2="-491.5"/>
	<line class="st4" x1="-439.6" y1="-3064.8" x2="-2992.9" y2="-511.5"/>
	<line class="st4" x1="-439.6" y1="-3084.8" x2="-2992.9" y2="-531.5"/>
	<line class="st4" x1="-439.6" y1="-3104.8" x2="-2992.9" y2="-551.6"/>
	<line class="st4" x1="-439.6" y1="-3124.8" x2="-2992.9" y2="-571.6"/>
	<line class="st4" x1="-439.6" y1="-3144.8" x2="-2992.9" y2="-591.6"/>
	<line class="st4" x1="-439.6" y1="-3164.9" x2="-2992.9" y2="-611.6"/>
	<line class="st4" x1="-439.6" y1="-3184.9" x2="-2992.9" y2="-631.6"/>
	<line class="st4" x1="-439.6" y1="-3204.9" x2="-2992.9" y2="-651.6"/>
	<line class="st4" x1="-439.6" y1="-3224.9" x2="-2992.9" y2="-671.6"/>
	<line class="st4" x1="-439.6" y1="-3244.9" x2="-2992.9" y2="-691.7"/>
	<line class="st4" x1="-439.6" y1="-3264.9" x2="-2992.9" y2="-711.7"/>
	<line class="st4" x1="-439.6" y1="-3285" x2="-2992.9" y2="-731.7"/>
	<line class="st4" x1="-439.6" y1="-3305" x2="-2992.9" y2="-751.7"/>
	<line class="st4" x1="-439.6" y1="-3325" x2="-2992.9" y2="-771.7"/>
	<line class="st4" x1="-439.6" y1="-3345" x2="-2992.9" y2="-791.7"/>
	<line class="st4" x1="-439.6" y1="-3365" x2="-2992.9" y2="-811.8"/>
	<line class="st4" x1="-439.6" y1="-3385" x2="-2992.9" y2="-831.8"/>
	<line class="st4" x1="-439.6" y1="-3405" x2="-2992.9" y2="-851.8"/>
	<line class="st4" x1="-439.6" y1="-3425.1" x2="-2992.9" y2="-871.8"/>
	<line class="st4" x1="-439.6" y1="-3445.1" x2="-2992.9" y2="-891.8"/>
	<line class="st4" x1="-439.6" y1="-3465.1" x2="-2992.9" y2="-911.8"/>
	<line class="st4" x1="-439.6" y1="-3485.1" x2="-2992.9" y2="-931.9"/>
	<line class="st4" x1="-439.6" y1="-3505.1" x2="-2992.9" y2="-951.9"/>
	<line class="st4" x1="-439.6" y1="-3525.1" x2="-2992.9" y2="-971.9"/>
	<line class="st4" x1="-439.6" y1="-3545.2" x2="-2992.9" y2="-991.9"/>
	<line class="st4" x1="-439.6" y1="277.9" x2="-2992.9" y2="2831.2"/>
	<line class="st4" x1="-439.6" y1="257.9" x2="-2992.9" y2="2811.1"/>
	<line class="st4" x1="-439.6" y1="237.9" x2="-2992.9" y2="2791.1"/>
	<line class="st4" x1="-439.6" y1="217.8" x2="-2992.9" y2="2771.1"/>
	<line class="st4" x1="-439.6" y1="197.8" x2="-2992.9" y2="2751.1"/>
	<line class="st4" x1="-439.6" y1="177.8" x2="-2992.9" y2="2731.1"/>
	<line class="st4" x1="-439.6" y1="157.8" x2="-2992.9" y2="2711.1"/>
	<line class="st4" x1="-439.6" y1="137.8" x2="-2992.9" y2="2691"/>
	<line class="st4" x1="-439.6" y1="117.8" x2="-2992.9" y2="2671"/>
	<line class="st4" x1="-439.6" y1="97.8" x2="-2992.9" y2="2651"/>
	<line class="st4" x1="-439.6" y1="77.7" x2="-2992.9" y2="2631"/>
	<line class="st4" x1="-439.6" y1="57.7" x2="-2992.9" y2="2611"/>
	<line class="st4" x1="-439.6" y1="37.7" x2="-2992.9" y2="2591"/>
	<line class="st4" x1="-439.6" y1="17.7" x2="-2992.9" y2="2570.9"/>
	<line class="st4" x1="-439.6" y1="-2.3" x2="-2992.9" y2="2550.9"/>
	<line class="st4" x1="-439.6" y1="-22.3" x2="-2992.9" y2="2530.9"/>
	<line class="st4" x1="-439.6" y1="-42.4" x2="-2992.9" y2="2510.9"/>
	<line class="st4" x1="-439.6" y1="-62.4" x2="-2992.9" y2="2490.9"/>
	<line class="st4" x1="-439.6" y1="-82.4" x2="-2992.9" y2="2470.9"/>
	<line class="st4" x1="-439.6" y1="-102.4" x2="-2992.9" y2="2450.8"/>
	<line class="st4" x1="-439.6" y1="-122.4" x2="-2992.9" y2="2430.8"/>
	<line class="st4" x1="-439.6" y1="-142.4" x2="-2992.9" y2="2410.8"/>
	<line class="st4" x1="-439.6" y1="-162.5" x2="-2992.9" y2="2390.8"/>
	<line class="st4" x1="-439.6" y1="-182.5" x2="-2992.9" y2="2370.8"/>
	<line class="st4" x1="-439.6" y1="-202.5" x2="-2992.9" y2="2350.8"/>
	<line class="st4" x1="-439.6" y1="-222.5" x2="-2992.9" y2="2330.8"/>
	<line class="st4" x1="-439.6" y1="-242.5" x2="-2992.9" y2="2310.7"/>
	<line class="st4" x1="-439.6" y1="-262.5" x2="-2992.9" y2="2290.7"/>
	<line class="st4" x1="-439.6" y1="-282.6" x2="-2992.9" y2="2270.7"/>
	<line class="st4" x1="-439.6" y1="-302.6" x2="-2992.9" y2="2250.7"/>
	<line class="st4" x1="-439.6" y1="-322.6" x2="-2992.9" y2="2230.7"/>
	<line class="st4" x1="-439.6" y1="-342.6" x2="-2992.9" y2="2210.7"/>
	<line class="st4" x1="-439.6" y1="-362.6" x2="-2992.9" y2="2190.6"/>
	<line class="st4" x1="-439.6" y1="-382.6" x2="-2992.9" y2="2170.6"/>
	<line class="st4" x1="-439.6" y1="-402.6" x2="-2992.9" y2="2150.6"/>
	<line class="st4" x1="-439.6" y1="-422.7" x2="-2992.9" y2="2130.6"/>
	<line class="st4" x1="-439.6" y1="-442.7" x2="-2992.9" y2="2110.6"/>
	<line class="st4" x1="-439.6" y1="-462.7" x2="-2992.9" y2="2090.6"/>
	<line class="st4" x1="-439.6" y1="-482.7" x2="-2992.9" y2="2070.5"/>
	<line class="st4" x1="-439.6" y1="-502.7" x2="-2992.9" y2="2050.5"/>
	<line class="st4" x1="-439.6" y1="-522.7" x2="-2992.9" y2="2030.5"/>
	<line class="st4" x1="-439.6" y1="-542.8" x2="-2992.9" y2="2010.5"/>
	<line class="st4" x1="-439.6" y1="-562.8" x2="-2992.9" y2="1990.5"/>
	<line class="st4" x1="-439.6" y1="-582.8" x2="-2992.9" y2="1970.5"/>
	<line class="st4" x1="-439.6" y1="-602.8" x2="-2992.9" y2="1950.4"/>
	<line class="st4" x1="-439.6" y1="-622.8" x2="-2992.9" y2="1930.4"/>
	<line class="st4" x1="-439.6" y1="-642.8" x2="-2992.9" y2="1910.4"/>
	<line class="st4" x1="-439.6" y1="-662.9" x2="-2992.9" y2="1890.4"/>
	<line class="st4" x1="-439.6" y1="-682.9" x2="-2992.9" y2="1870.4"/>
	<line class="st4" x1="-439.6" y1="-702.9" x2="-2992.9" y2="1850.4"/>
	<line class="st4" x1="-439.6" y1="-722.9" x2="-2992.9" y2="1830.4"/>
	<line class="st4" x1="-439.6" y1="-742.9" x2="-2992.9" y2="1810.3"/>
	<line class="st4" x1="-439.6" y1="-762.9" x2="-2992.9" y2="1790.3"/>
	<line class="st4" x1="-439.6" y1="-783" x2="-2992.9" y2="1770.3"/>
	<line class="st4" x1="-439.6" y1="-803" x2="-2992.9" y2="1750.3"/>
	<line class="st4" x1="-439.6" y1="-823" x2="-2992.9" y2="1730.3"/>
	<line class="st4" x1="-439.6" y1="-843" x2="-2992.9" y2="1710.3"/>
	<line class="st4" x1="-439.6" y1="-863" x2="-2992.9" y2="1690.2"/>
	<line class="st4" x1="-439.6" y1="-883" x2="-2992.9" y2="1670.2"/>
	<line class="st4" x1="-439.6" y1="-903" x2="-2992.9" y2="1650.2"/>
	<line class="st4" x1="-439.6" y1="-923.1" x2="-2992.9" y2="1630.2"/>
	<line class="st4" x1="-439.6" y1="-943.1" x2="-2992.9" y2="1610.2"/>
	<line class="st4" x1="-439.6" y1="-963.1" x2="-2992.9" y2="1590.2"/>
	<line class="st4" x1="-439.6" y1="-983.1" x2="-2992.9" y2="1570.1"/>
	<line class="st4" x1="-439.6" y1="-1003.1" x2="-2992.9" y2="1550.1"/>
	<line class="st4" x1="-439.6" y1="-1023.1" x2="-2992.9" y2="1530.1"/>
	<line class="st4" x1="-439.6" y1="-1043.2" x2="-2992.9" y2="1510.1"/>
	<line class="st4" x1="-439.6" y1="-1063.2" x2="-2992.9" y2="1490.1"/>
	<line class="st4" x1="-439.6" y1="-1083.2" x2="-2992.9" y2="1470.1"/>
	<line class="st4" x1="-439.6" y1="-1103.2" x2="-2992.9" y2="1450"/>
	<line class="st4" x1="-439.6" y1="-1123.2" x2="-2992.9" y2="1430"/>
	<line class="st4" x1="-439.6" y1="-1143.2" x2="-2992.9" y2="1410"/>
	<line class="st4" x1="-439.6" y1="-1163.3" x2="-2992.9" y2="1390"/>
	<line class="st4" x1="-439.6" y1="-1183.3" x2="-2992.9" y2="1370"/>
	<line class="st4" x1="-439.6" y1="-1203.3" x2="-2992.9" y2="1350"/>
	<line class="st4" x1="-439.6" y1="-1223.3" x2="-2992.9" y2="1330"/>
	<line class="st4" x1="-439.6" y1="-1243.3" x2="-2992.9" y2="1309.9"/>
	<line class="st4" x1="-439.6" y1="-1263.3" x2="-2992.9" y2="1289.9"/>
	<line class="st4" x1="-439.6" y1="-1283.4" x2="-2992.9" y2="1269.9"/>
	<line class="st4" x1="-439.6" y1="-1303.4" x2="-2992.9" y2="1249.9"/>
	<line class="st4" x1="-439.6" y1="-1323.4" x2="-2992.9" y2="1229.9"/>
	<line class="st4" x1="-439.6" y1="-1343.4" x2="-2992.9" y2="1209.9"/>
	<line class="st4" x1="-439.6" y1="-1363.4" x2="-2992.9" y2="1189.8"/>
	<line class="st4" x1="-439.6" y1="-1383.4" x2="-2992.9" y2="1169.8"/>
	<line class="st4" x1="-439.6" y1="-1403.4" x2="-2992.9" y2="1149.8"/>
	<line class="st4" x1="-439.6" y1="-1423.5" x2="-2992.9" y2="1129.8"/>
	<line class="st4" x1="-439.6" y1="-1443.5" x2="-2992.9" y2="1109.8"/>
	<line class="st4" x1="-439.6" y1="-1463.5" x2="-2992.9" y2="1089.8"/>
	<line class="st4" x1="-439.6" y1="-1483.5" x2="-2992.9" y2="1069.7"/>
	<line class="st4" x1="-439.6" y1="-1503.5" x2="-2992.9" y2="1049.7"/>
	<line class="st4" x1="-439.6" y1="-1523.5" x2="-2992.9" y2="1029.7"/>
	<line class="st4" x1="-439.6" y1="-1543.6" x2="-2992.9" y2="1009.7"/>
	<line class="st4" x1="-439.6" y1="-1563.6" x2="-2992.9" y2="989.7"/>
	<line class="st4" x1="-439.6" y1="-1583.6" x2="-2992.9" y2="969.7"/>
	<line class="st4" x1="-439.6" y1="-1603.6" x2="-2992.9" y2="949.6"/>
	<line class="st4" x1="-439.6" y1="-1623.6" x2="-2992.9" y2="929.6"/>
</g>
<rect x="280.9" y="-726.3" class="st5" width="55" height="520.4"/>
<circle class="st5" cx="308.4" cy="-726.3" r="27.5"/>
<circle class="st5" cx="308.4" cy="-205.9" r="27.5"/>
<circle class="st6" cx="-164.1" cy="-656.5" r="100"/>
<g>
	<polygon class="st7" points="-132.2,-607.9 -164.1,-629.8 -196,-607.9 -196,-705.1 -132.2,-705.1 	"/>
	<line class="st7" x1="-183" y1="-661.8" x2="-145.2" y2="-661.8"/>
	<line class="st7" x1="-183" y1="-648.3" x2="-145.2" y2="-648.3"/>
	<line class="st7" x1="-183" y1="-675.3" x2="-145.2" y2="-675.3"/>
	<line class="st7" x1="-183" y1="-688.8" x2="-145.2" y2="-688.8"/>
</g>
<circle class="st8" cx="82.6" cy="-656.5" r="100"/>
<circle class="st0" cx="534.2" cy="-659.5" r="100"/>
<g>
	<polygon class="st7" points="114.5,-607.9 82.6,-629.8 50.7,-607.9 50.7,-705.1 114.5,-705.1 	"/>
	<line class="st7" x1="63.8" y1="-661.8" x2="101.5" y2="-661.8"/>
	<line class="st7" x1="63.8" y1="-648.3" x2="101.5" y2="-648.3"/>
	<line class="st7" x1="63.8" y1="-675.3" x2="101.5" y2="-675.3"/>
	<line class="st7" x1="63.8" y1="-688.8" x2="101.5" y2="-688.8"/>
	<line class="st7" x1="63.8" y1="-688.8" x2="101.5" y2="-688.8"/>
</g>
<g>
	<circle class="st8" cx="-368.5" cy="-726.3" r="27.5"/>
	<g>
		<g>
			<path class="st2" d="M-359.7-712.3c-0.1,0-0.3,0-0.4-0.1l-8.4-5.7l-8.4,5.7c-0.2,0.1-0.5,0.2-0.7,0c-0.2-0.1-0.4-0.4-0.4-0.6
				v-26.7c0-0.4,0.3-0.7,0.7-0.7h17.5c0.4,0,0.7,0.3,0.7,0.7v26.7c0,0.3-0.1,0.5-0.4,0.6C-359.5-712.3-359.6-712.3-359.7-712.3z
				 M-368.5-719.7c0.1,0,0.3,0,0.4,0.1l7.7,5.3V-739h-16.2v24.7l7.7-5.3C-368.8-719.6-368.6-719.7-368.5-719.7z"/>
		</g>
		<g>
			<path class="st2" d="M-363.3-727.1h-10.4c-0.4,0-0.7-0.3-0.7-0.7c0-0.4,0.3-0.7,0.7-0.7h10.4c0.4,0,0.7,0.3,0.7,0.7
				C-362.6-727.4-362.9-727.1-363.3-727.1z"/>
		</g>
		<g>
			<path class="st2" d="M-363.3-723.4h-10.4c-0.4,0-0.7-0.3-0.7-0.7c0-0.4,0.3-0.7,0.7-0.7h10.4c0.4,0,0.7,0.3,0.7,0.7
				C-362.6-723.7-362.9-723.4-363.3-723.4z"/>
		</g>
		<g>
			<path class="st2" d="M-363.3-730.8h-10.4c-0.4,0-0.7-0.3-0.7-0.7c0-0.4,0.3-0.7,0.7-0.7h10.4c0.4,0,0.7,0.3,0.7,0.7
				C-362.6-731.1-362.9-730.8-363.3-730.8z"/>
		</g>
		<g>
			<path class="st2" d="M-363.3-734.5h-10.4c-0.4,0-0.7-0.3-0.7-0.7s0.3-0.7,0.7-0.7h10.4c0.4,0,0.7,0.3,0.7,0.7
				S-362.9-734.5-363.3-734.5z"/>
		</g>
	</g>
</g>
<g>
	<g>
		<g>
			<g>
				<g>
					<path class="st0" d="M-357.9-660c0.9,0,1.8-0.3,2.4-1c0.7-0.6,1-1.5,1-2.4c0-0.9-0.3-1.8-1-2.4c-0.6-0.6-1.5-1-2.4-1
						s-1.8,0.4-2.5,1c-0.6,0.7-1,1.5-1,2.4c0,0.9,0.4,1.8,1,2.4C-359.7-660.3-358.8-660-357.9-660z"/>
				</g>
				<g>
					<path class="st0" d="M-362.6-653.9c1.4-1.4,1.4-3.5,0-4.8l0,0c-1.4-1.3-3.5-1.3-4.9,0l0,0c-1.3,1.4-1.3,3.5,0,4.8l0,0
						c0.7,0.6,1.6,1,2.5,1l0,0C-364.2-652.9-363.3-653.3-362.6-653.9z"/>
				</g>
			</g>
			<g>
				<g>
					<path class="st0" d="M-357.9-631.8c0.9,0,1.8-0.3,2.4-1c0.7-0.6,1-1.5,1-2.4c0-0.9-0.3-1.8-1-2.4c-0.6-0.7-1.5-1-2.4-1
						s-1.8,0.3-2.5,1s-1,1.5-1,2.4c0,0.9,0.4,1.8,1,2.4C-359.7-632.1-358.8-631.8-357.9-631.8z"/>
				</g>
				<g>
					<path class="st0" d="M-362.6-640.1c1.4-1.3,1.4-3.5,0-4.8l0,0c-1.4-1.4-3.5-1.4-4.9,0l0,0c-1.3,1.3-1.3,3.5,0,4.8l0,0
						c0.7,0.7,1.6,1,2.5,1l0,0C-364.2-639.1-363.3-639.4-362.6-640.1z"/>
				</g>
			</g>
		</g>
		<g>
			<g>
				<g>
					<path class="st0" d="M-386-638.6c-0.9,0-1.8,0.3-2.5,1c-0.6,0.7-1,1.5-1,2.4c0,0.9,0.4,1.8,1,2.4c0.7,0.7,1.6,1,2.5,1
						s1.8-0.3,2.5-1c0.6-0.6,1-1.5,1-2.4c0-0.9-0.4-1.8-1-2.4C-384.2-638.2-385.1-638.6-386-638.6z"/>
				</g>
				<g>
					<path class="st0" d="M-381.3-644.6c-1.4,1.3-1.4,3.5,0,4.8l0,0c1.3,1.3,3.5,1.3,4.8,0l0,0c1.4-1.3,1.4-3.5,0-4.8l0,0
						c-0.6-0.7-1.5-1-2.4-1l0,0C-379.8-645.6-380.7-645.3-381.3-644.6z"/>
				</g>
			</g>
			<g>
				<g>
					<path class="st0" d="M-386-666.8c-0.9,0-1.8,0.4-2.5,1c-0.6,0.7-1,1.5-1,2.4c0,0.9,0.4,1.8,1,2.4c0.7,0.7,1.6,1,2.5,1
						s1.8-0.3,2.5-1c0.6-0.6,1-1.5,1-2.4c0-0.9-0.4-1.8-1-2.4C-384.2-666.4-385.1-666.8-386-666.8z"/>
				</g>
				<g>
					<path class="st0" d="M-381.3-658.5c-1.4,1.4-1.4,3.5,0,4.8l0,0c1.3,1.3,3.5,1.3,4.8,0l0,0c1.4-1.4,1.4-3.5,0-4.8l0,0
						c-0.6-0.6-1.5-1-2.4-1l0,0C-379.8-659.5-380.7-659.1-381.3-658.5z"/>
				</g>
			</g>
		</g>
	</g>
	<g>
		<path class="st0" d="M-372-645.9c0.9,0,1.8-0.4,2.5-1c0.6-0.7,1-1.5,1-2.4c0-0.9-0.4-1.8-1-2.4c-0.6-0.7-1.5-1-2.5-1
			c-0.9,0-1.8,0.3-2.4,1c-0.6,0.6-1,1.5-1,2.4c0,0.9,0.4,1.8,1,2.4C-373.8-646.2-372.9-645.9-372-645.9z"/>
	</g>
</g>
<g>
	<g>
		<g>
			<g>
				<g>
					<path class="st0" d="M-357.9-660c0.9,0,1.8-0.3,2.4-1c0.7-0.6,1-1.5,1-2.4c0-0.9-0.3-1.8-1-2.4c-0.6-0.6-1.5-1-2.4-1
						s-1.8,0.4-2.5,1c-0.6,0.7-1,1.5-1,2.4c0,0.9,0.4,1.8,1,2.4C-359.7-660.3-358.8-660-357.9-660z"/>
				</g>
				<g>
					<path class="st0" d="M-362.6-653.9c1.4-1.4,1.4-3.5,0-4.8l0,0c-1.4-1.3-3.5-1.3-4.9,0l0,0c-1.3,1.4-1.3,3.5,0,4.8l0,0
						c0.7,0.6,1.6,1,2.5,1l0,0C-364.2-652.9-363.3-653.3-362.6-653.9z"/>
				</g>
			</g>
			<g>
				<g>
					<path class="st0" d="M-357.9-631.8c0.9,0,1.8-0.3,2.4-1c0.7-0.6,1-1.5,1-2.4c0-0.9-0.3-1.8-1-2.4c-0.6-0.7-1.5-1-2.4-1
						s-1.8,0.3-2.5,1s-1,1.5-1,2.4c0,0.9,0.4,1.8,1,2.4C-359.7-632.1-358.8-631.8-357.9-631.8z"/>
				</g>
				<g>
					<path class="st0" d="M-362.6-640.1c1.4-1.3,1.4-3.5,0-4.8l0,0c-1.4-1.4-3.5-1.4-4.9,0l0,0c-1.3,1.3-1.3,3.5,0,4.8l0,0
						c0.7,0.7,1.6,1,2.5,1l0,0C-364.2-639.1-363.3-639.4-362.6-640.1z"/>
				</g>
			</g>
		</g>
		<g>
			<g>
				<g>
					<path class="st0" d="M-386-638.6c-0.9,0-1.8,0.3-2.5,1c-0.6,0.7-1,1.5-1,2.4c0,0.9,0.4,1.8,1,2.4c0.7,0.7,1.6,1,2.5,1
						s1.8-0.3,2.5-1c0.6-0.6,1-1.5,1-2.4c0-0.9-0.4-1.8-1-2.4C-384.2-638.2-385.1-638.6-386-638.6z"/>
				</g>
				<g>
					<path class="st0" d="M-381.3-644.6c-1.4,1.3-1.4,3.5,0,4.8l0,0c1.3,1.3,3.5,1.3,4.8,0l0,0c1.4-1.3,1.4-3.5,0-4.8l0,0
						c-0.6-0.7-1.5-1-2.4-1l0,0C-379.8-645.6-380.7-645.3-381.3-644.6z"/>
				</g>
			</g>
			<g>
				<g>
					<path class="st0" d="M-386-666.8c-0.9,0-1.8,0.4-2.5,1c-0.6,0.7-1,1.5-1,2.4c0,0.9,0.4,1.8,1,2.4c0.7,0.7,1.6,1,2.5,1
						s1.8-0.3,2.5-1c0.6-0.6,1-1.5,1-2.4c0-0.9-0.4-1.8-1-2.4C-384.2-666.4-385.1-666.8-386-666.8z"/>
				</g>
				<g>
					<path class="st0" d="M-381.3-658.5c-1.4,1.4-1.4,3.5,0,4.8l0,0c1.3,1.3,3.5,1.3,4.8,0l0,0c1.4-1.4,1.4-3.5,0-4.8l0,0
						c-0.6-0.6-1.5-1-2.4-1l0,0C-379.8-659.5-380.7-659.1-381.3-658.5z"/>
				</g>
			</g>
		</g>
	</g>
	<g>
		<path class="st0" d="M-372-645.9c0.9,0,1.8-0.4,2.5-1c0.6-0.7,1-1.5,1-2.4c0-0.9-0.4-1.8-1-2.4c-0.6-0.7-1.5-1-2.5-1
			c-0.9,0-1.8,0.3-2.4,1c-0.6,0.6-1,1.5-1,2.4c0,0.9,0.4,1.8,1,2.4C-373.8-646.2-372.9-645.9-372-645.9z"/>
	</g>
</g>
<circle class="st6" cx="-152.3" cy="-428.4" r="100"/>
<g>
	<path class="st7" d="M-164.8-385.3c-12.5,0-22.6-10.1-22.6-22.6v-50.6c0-3.9,3.1-7,7-7c3.9,0,7,3.1,7,7v23.5"/>
	<line class="st7" x1="-173.4" y1="-387" x2="-173.4" y2="-368.4"/>
	<line class="st7" x1="-132.2" y1="-385.8" x2="-132.2" y2="-368.4"/>
	<line class="st7" x1="-159.3" y1="-474.5" x2="-159.3" y2="-436.1"/>
	<path class="st7" d="M-159.3-474v-7.4c0-3.9,3.1-7,7-7s7,3.1,7,7v46.4"/>
	<path class="st7" d="M-173.4-457.3v-16.1c0-3.9,3.1-7,7-7s7,3.1,7,7"/>
	<path class="st7" d="M-145.3-474.5c0-3.9,3.1-7,7-7s7,3.1,7,7v48c-10.1,0-18.2,8.2-18.2,18.2"/>
	<path class="st7" d="M-131.3-444.9c0-7.8,6.3-14.1,14.1-14.1v51.1c0,12.5-10.1,22.6-22.6,22.6"/>
</g>
<circle class="st6" cx="-152.3" cy="-144.1" r="100"/>
<circle class="st6" cx="91.1" cy="-432.5" r="100"/>
<polygon class="st7" points="142.4,-438.9 91.2,-479.3 40.1,-438.9 52.1,-438.9 52.1,-385.9 78.1,-385.9 78.1,-413.9 103.1,-413.9 
	103.1,-385.9 129.1,-385.9 129.1,-438.9 "/>
<g>
	<circle class="st6" cx="-368.9" cy="-574.5" r="27.5"/>
	<path class="st2" d="M-358.4-561.4h-7.2c-0.4,0-0.8,0.1-0.8-0.3v-6.7h-5v6.7c0,0.4-0.7,0.3-1.1,0.3h-7.1c-0.4,0-0.8,0.1-0.8-0.3
		v-13.7h-2.5c-0.3,0-0.6-0.3-0.6-0.6c-0.1-0.3,0-0.6,0.2-0.8l14.1-11.1c0.2-0.2,0.6-0.2,0.9,0l14.1,11.1c0.2,0.2,0.3,0.6,0.2,0.9
		c-0.1,0.3-0.4,0.6-0.6,0.6h-2.6v13.7C-357.4-561.3-358-561.4-358.4-561.4z M-364.4-562.4h5v-13.9c0-0.4,0.6-1.1,1-1.1h1.7
		l-12.1-9.5l-12.1,9.5h1.3c0.4,0,0.2,0.7,0.2,1.1v13.9h6v-7c0-0.4,0.6-1,0.9-1h6.9c0.4,0,1.2,0.6,1.2,1V-562.4z"/>
</g>
<circle class="st9" cx="308.4" cy="-726.3" r="11"/>
<circle class="st9" cx="308.4" cy="-686.3" r="11"/>
<circle class="st10" cx="308.4" cy="-646.3" r="11"/>
<circle class="st0" cx="308.4" cy="-606.2" r="11"/>
<circle class="st0" cx="308.4" cy="-566.2" r="11"/>
<circle class="st0" cx="308.4" cy="-526.2" r="11"/>
<circle class="st0" cx="308.4" cy="-486.1" r="11"/>
<circle class="st0" cx="308.4" cy="-446.1" r="11"/>
<circle class="st0" cx="308.4" cy="-406.1" r="11"/>
<circle class="st0" cx="308.4" cy="-366.1" r="11"/>
<circle class="st0" cx="308.4" cy="-326" r="11"/>
<circle class="st0" cx="308.4" cy="-286" r="11"/>
<circle class="st0" cx="308.4" cy="-246" r="11"/>
<circle class="st0" cx="308.4" cy="-205.9" r="11"/>
<circle class="st9" cx="358.5" cy="-726.3" r="11"/>
<circle class="st9" cx="358.5" cy="-694.3" r="11"/>
<circle class="st10" cx="358.5" cy="-662.3" r="11"/>
<circle class="st0" cx="358.5" cy="-630.3" r="11"/>
<circle class="st0" cx="358.5" cy="-599.2" r="11"/>
<circle class="st0" cx="358.5" cy="-567.2" r="11"/>
<circle class="st0" cx="358.5" cy="-537.2" r="11"/>
<circle class="st0" cx="358.5" cy="-505.1" r="11"/>
<circle class="st0" cx="358.5" cy="-473.1" r="11"/>
<circle class="st0" cx="358.5" cy="-441.1" r="11"/>
<circle class="st0" cx="358.5" cy="-409.1" r="11"/>
<circle class="st0" cx="358.5" cy="-377" r="11"/>
<circle class="st0" cx="358.5" cy="-345" r="11"/>
<circle class="st0" cx="358.5" cy="-314.4" r="11"/>
<g>
	<path class="st2" d="M-272-837.5c0,0,0-2.3-0.6-2.9l-1.9-0.8l0-0.8c0,0,8.4-0.5,13.4-0.5c6.1,0,11.5,3.4,11.4,8.9
		c-0.2,7.3-6.9,8.3-8.5,8.6c2.9,7.2,7.6,13.7,14.2,15.8l-0.1,0.3c-15.3-0.9-18.7-14.7-19.2-17.1c0.2,0.1,0.7,0.1,1.6,0.1
		c6.4,0,8.3-5,8.3-7.7c0-3.7-3-7.2-7.4-7.3c-3.4-0.1-6.5,0.3-6.5,0.3v27.7h-4.6L-272-837.5"/>
	<path class="st2" d="M-323.8-819.6c-1.3,5-6.1,7.5-9.6,7.5c-4.6,0-8.1-1.3-9.2-2.1c0,0-0.5-3.1-1.1-4.9l0.8,0
		c0.2,1,2.5,5.3,9.4,5.3c3.5,0,6.4-2.9,6.4-6.3c0-3.1-3-5.1-6.5-6.2c-3.8-1.2-8.6-3.5-8.6-8.6c0-6.5,5.4-7.6,8.4-7.6
		c3.3,0,8,1.3,8.7,1.7l-0.6,3.9c-0.3-0.4-3.7-4.1-8.2-4.1c-3.5,0-5.8,1.8-5.8,4.7c0,2.9,3.1,4.6,7.9,6.2
		C-331.9-829.9-321.7-827.6-323.8-819.6"/>
	<path class="st2" d="M-364.7-848.1c-10.5,0-18.9,8.1-18.9,18c0,9.9,8.5,18,18.9,18c10.5,0,18.9-8.1,18.9-18
		C-345.8-840-354.2-848.1-364.7-848.1 M-360.8-814.4c-7.4,2-15.4-3.1-17.7-12c-2-7.5,2-17.5,9.6-19.6c7.4-2,15.4,3.3,17.7,12.2
		C-348.9-824.9-353.4-816.4-360.8-814.4z"/>
	<path class="st2" d="M-296.3-812.8h19c0,0-0.3-4-0.2-4.5c-0.2,0.2-2.6,2.8-9.8,2.8h-4.4v-13.1c5.6,0,8.6,0.6,10,2.1v-6
		c-1.4,1.6-4.5,2.1-10,2.1l0-10.9c0,0,3.9,0,4.1,0c5.7,0,8,1.1,9.4,2.7c0-0.5,0.8-4.4,0.8-4.4h-21.2l0,0.8l1.9,0.8
		c0.6,0.6,0.6,2.9,0.6,2.9L-296.3-812.8"/>
	<path class="st2" d="M-319.2-837.5c0,0,0-2.3-0.6-2.9l-1.9-0.8l0-0.8l6.9,0v27.4h4c7.2,0,9.6-2.6,9.8-2.8c-0.1,0.5,0.2,4.5,0.2,4.5
		h-18.5V-837.5"/>
</g>
<g>
	<rect x="490.2" y="-692.8" class="st7" width="88" height="12.1"/>
	<rect x="490.2" y="-665.5" class="st7" width="88" height="12.1"/>
	<rect x="490.2" y="-638.2" class="st7" width="88" height="12.1"/>
</g>
<circle class="st0" cx="534.2" cy="-432.4" r="100"/>
<polygon class="st7" points="569.6,-459 561.1,-467.6 534.2,-440.8 507.4,-467.6 498.8,-459 525.7,-432.2 498.8,-405.4 
	507.4,-396.8 534.2,-423.6 561.1,-396.8 569.6,-405.4 542.8,-432.2 "/>
<circle class="st6" cx="781.2" cy="-432.4" r="100"/>
<g>
	<circle class="st0" cx="-368.8" cy="-417.4" r="27.5"/>
	<path class="st2" d="M-361.4-406.9c-0.2,0-0.4-0.1-0.5-0.2l-6.9-6.9l-6.9,6.9c-0.3,0.3-0.7,0.3-1,0l-2.4-2.4c-0.3-0.3-0.3-0.7,0-1
		l6.9-6.9l-6.9-6.9c-0.3-0.3-0.3-0.7,0-1l2.4-2.4c0.3-0.3,0.7-0.3,1,0l6.9,6.9l6.9-6.9c0.3-0.3,0.7-0.3,1,0l2.4,2.4
		c0.1,0.1,0.2,0.3,0.2,0.5s-0.1,0.4-0.2,0.5l-6.9,6.9l6.9,6.9c0.1,0.1,0.2,0.3,0.2,0.5s-0.1,0.4-0.2,0.5l-2.4,2.4
		C-361-407-361.2-406.9-361.4-406.9z"/>
</g>
<g>
	<circle class="st0" cx="-368.5" cy="-497.1" r="27.5"/>
	<g>
		<path class="st2" d="M-356.4-503.3h-24.2c-0.4,0-0.7-0.3-0.7-0.7v-3.3c0-0.4,0.3-0.7,0.7-0.7h24.2c0.4,0,0.7,0.3,0.7,0.7v3.3
			C-355.7-503.6-356-503.3-356.4-503.3z"/>
		<path class="st2" d="M-356.4-495.8h-24.2c-0.4,0-0.7-0.3-0.7-0.7v-3.3c0-0.4,0.3-0.7,0.7-0.7h24.2c0.4,0,0.7,0.3,0.7,0.7v3.3
			C-355.7-496.1-356-495.8-356.4-495.8z"/>
		<path class="st2" d="M-356.4-488.3h-24.2c-0.4,0-0.7-0.3-0.7-0.7v-3.3c0-0.4,0.3-0.7,0.7-0.7h24.2c0.4,0,0.7,0.3,0.7,0.7v3.3
			C-355.7-488.6-356-488.3-356.4-488.3z"/>
	</g>
</g>
<g>
	<rect x="737.2" y="-403.8" class="st7" width="88" height="12.1"/>
	<polygon class="st7" points="782.3,-477.1 825.2,-419 739.4,-419 	"/>
</g>
<g>
	<circle class="st6" cx="-368.9" cy="-340.9" r="27.5"/>
	<g>
		<path class="st2" d="M-356.8-329H-381c-0.4,0-0.7-0.3-0.7-0.7v-3.3c0-0.4,0.3-0.7,0.7-0.7h24.2c0.4,0,0.7,0.3,0.7,0.7v3.3
			C-356.1-329.3-356.4-329-356.8-329z M-380.3-330.4h22.8v-2h-22.8V-330.4z"/>
		<path class="st2" d="M-356.8-336.5h-23.6c-0.3,0-0.5-0.1-0.6-0.4c-0.1-0.2-0.1-0.5,0.1-0.7l11.8-16c0.1-0.2,0.3-0.3,0.6-0.3
			c0.2,0,0.4,0.1,0.6,0.3l11.8,16c0.2,0.2,0.2,0.5,0.1,0.7C-356.3-336.7-356.5-336.5-356.8-336.5z M-379-337.9h20.9l-10.4-14.1
			L-379-337.9z"/>
	</g>
</g>
<g>
	<circle class="st8" cx="-304.5" cy="-724.3" r="20"/>
	<g>
		<g>
			<path class="st2" d="M-298.1-714.1c-0.1,0-0.2,0-0.3-0.1l-6.1-4.2l-6.1,4.2c-0.2,0.1-0.4,0.1-0.5,0c-0.2-0.1-0.3-0.3-0.3-0.4
				v-19.4c0-0.3,0.2-0.5,0.5-0.5h12.8c0.3,0,0.5,0.2,0.5,0.5v19.4c0,0.2-0.1,0.4-0.3,0.4C-298-714.1-298-714.1-298.1-714.1z
				 M-304.5-719.5c0.1,0,0.2,0,0.3,0.1l5.6,3.8v-18h-11.8v18l5.6-3.8C-304.7-719.5-304.6-719.5-304.5-719.5z"/>
		</g>
		<g>
			<path class="st2" d="M-300.7-724.9h-7.5c-0.3,0-0.5-0.2-0.5-0.5s0.2-0.5,0.5-0.5h7.5c0.3,0,0.5,0.2,0.5,0.5
				S-300.5-724.9-300.7-724.9z"/>
		</g>
		<g>
			<path class="st2" d="M-300.7-722.2h-7.5c-0.3,0-0.5-0.2-0.5-0.5s0.2-0.5,0.5-0.5h7.5c0.3,0,0.5,0.2,0.5,0.5
				S-300.5-722.2-300.7-722.2z"/>
		</g>
		<g>
			<path class="st2" d="M-300.7-727.6h-7.5c-0.3,0-0.5-0.2-0.5-0.5c0-0.3,0.2-0.5,0.5-0.5h7.5c0.3,0,0.5,0.2,0.5,0.5
				C-300.2-727.8-300.5-727.6-300.7-727.6z"/>
		</g>
		<g>
			<path class="st2" d="M-300.7-730.3h-7.5c-0.3,0-0.5-0.2-0.5-0.5s0.2-0.5,0.5-0.5h7.5c0.3,0,0.5,0.2,0.5,0.5
				S-300.5-730.3-300.7-730.3z"/>
		</g>
	</g>
</g>
<g>
	<g>
		<g>
			<g>
				<g>
					<path class="st0" d="M-297.2-665.2c0.8,0,1.5-0.3,2.1-0.9c0.6-0.6,0.9-1.3,0.9-2.1s-0.3-1.5-0.9-2.1c-0.6-0.6-1.3-0.9-2.1-0.9
						c-0.8,0-1.5,0.3-2.1,0.9c-0.6,0.6-0.9,1.3-0.9,2.1s0.3,1.5,0.9,2.1C-298.8-665.5-298-665.2-297.2-665.2z"/>
				</g>
				<g>
					<path class="st0" d="M-301.3-660c1.2-1.2,1.2-3,0-4.1l0,0c-1.2-1.2-3-1.2-4.2,0l0,0c-1.2,1.2-1.2,3,0,4.1l0,0
						c0.6,0.6,1.3,0.9,2.1,0.9l0,0C-302.6-659.2-301.8-659.5-301.3-660z"/>
				</g>
			</g>
			<g>
				<g>
					<path class="st0" d="M-297.2-641.1c0.8,0,1.5-0.3,2.1-0.9c0.6-0.6,0.9-1.3,0.9-2.1s-0.3-1.5-0.9-2.1c-0.6-0.6-1.3-0.9-2.1-0.9
						c-0.8,0-1.5,0.3-2.1,0.9c-0.6,0.6-0.9,1.3-0.9,2.1s0.3,1.5,0.9,2.1C-298.8-641.4-298-641.1-297.2-641.1z"/>
				</g>
				<g>
					<path class="st0" d="M-301.3-648.2c1.2-1.2,1.2-3,0-4.1l0,0c-1.2-1.2-3-1.2-4.2,0l0,0c-1.2,1.2-1.2,3,0,4.1l0,0
						c0.6,0.6,1.3,0.9,2.1,0.9l0,0C-302.6-647.3-301.8-647.6-301.3-648.2z"/>
				</g>
			</g>
		</g>
		<g>
			<g>
				<g>
					<path class="st0" d="M-321.3-646.9c-0.8,0-1.5,0.3-2.1,0.9c-0.6,0.6-0.9,1.3-0.9,2.1s0.3,1.5,0.9,2.1s1.3,0.9,2.1,0.9
						s1.5-0.3,2.1-0.9c0.6-0.6,0.9-1.3,0.9-2.1s-0.3-1.5-0.9-2.1C-319.8-646.6-320.6-646.9-321.3-646.9z"/>
				</g>
				<g>
					<path class="st0" d="M-317.3-652.1c-1.2,1.2-1.2,3,0,4.1l0,0c1.2,1.2,3,1.2,4.2,0l0,0c1.2-1.2,1.2-3,0-4.1l0,0
						c-0.6-0.6-1.3-0.9-2.1-0.9l0,0C-316-652.9-316.7-652.6-317.3-652.1z"/>
				</g>
			</g>
			<g>
				<g>
					<path class="st0" d="M-321.3-671.1c-0.8,0-1.5,0.3-2.1,0.9s-0.9,1.3-0.9,2.1s0.3,1.5,0.9,2.1c0.6,0.6,1.3,0.9,2.1,0.9
						s1.5-0.3,2.1-0.9c0.6-0.6,0.9-1.3,0.9-2.1s-0.3-1.5-0.9-2.1C-319.8-670.8-320.6-671.1-321.3-671.1z"/>
				</g>
				<g>
					<path class="st0" d="M-317.3-663.9c-1.2,1.2-1.2,3,0,4.1l0,0c1.2,1.2,3,1.2,4.2,0l0,0c1.2-1.2,1.2-3,0-4.1l0,0
						c-0.6-0.6-1.3-0.9-2.1-0.9l0,0C-316-664.8-316.7-664.5-317.3-663.9z"/>
				</g>
			</g>
		</g>
	</g>
	<g>
		<path class="st0" d="M-309.3-653.1c0.8,0,1.5-0.3,2.1-0.9c0.6-0.6,0.9-1.3,0.9-2.1s-0.3-1.5-0.9-2.1s-1.3-0.9-2.1-0.9
			s-1.5,0.3-2.1,0.9c-0.6,0.6-0.9,1.3-0.9,2.1s0.3,1.5,0.9,2.1C-310.8-653.4-310.1-653.1-309.3-653.1z"/>
	</g>
</g>
<g>
	<circle class="st6" cx="-304.9" cy="-572.5" r="20"/>
	<path class="st2" d="M-297.3-563.4h-5.2c-0.3,0-0.9,0.5-0.9,0.2v-5.2h-3v5.2c0,0.3-0.8-0.2-1.1-0.2h-5.2c-0.3,0-0.7,0.5-0.7,0.2
		v-10.2h-1.7c-0.2,0-0.4-0.1-0.5-0.3c-0.1-0.2,0-0.4,0.2-0.5l10.2-8.1c0.2-0.1,0.4-0.1,0.6,0l10.2,8.1c0.2,0.1,0.2,0.3,0.2,0.5
		c-0.1,0.2-0.3,0.3-0.5,0.3h-1.8v10.2C-296.4-562.9-297-563.4-297.3-563.4z M-301.4-563.4h3v-10.4c0-0.3,0.8-0.6,1.1-0.6h1.2
		l-8.8-6.9l-8.8,6.9h1c0.3,0,0.3,0.3,0.3,0.6v10.4h4v-5.4c0-0.3,0.6-0.6,0.9-0.6h5c0.3,0,1.1,0.3,1.1,0.6V-563.4z"/>
</g>
<g>
	<circle class="st0" cx="-304.8" cy="-415.4" r="20"/>
	<path class="st2" d="M-299.4-407.8c-0.1,0-0.3,0-0.4-0.1l-5-5l-5,5c-0.2,0.2-0.5,0.2-0.7,0l-1.7-1.7c-0.2-0.2-0.2-0.5,0-0.7l5-5
		l-5-5c-0.2-0.2-0.2-0.5,0-0.7l1.7-1.7c0.2-0.2,0.5-0.2,0.7,0l5,5l5-5c0.2-0.2,0.5-0.2,0.7,0l1.7,1.7c0.1,0.1,0.1,0.2,0.1,0.4
		c0,0.1-0.1,0.3-0.1,0.4l-5,5l5,5c0.1,0.1,0.1,0.2,0.1,0.4c0,0.1-0.1,0.3-0.1,0.4l-1.7,1.7C-299.2-407.8-299.3-407.8-299.4-407.8z"
		/>
</g>
<g>
	<circle class="st0" cx="-304.5" cy="-495.1" r="20"/>
	<g>
		<path class="st2" d="M-295.7-499.6h-17.6c-0.3,0-0.5-0.2-0.5-0.5v-2.4c0-0.3,0.2-0.5,0.5-0.5h17.6c0.3,0,0.5,0.2,0.5,0.5v2.4
			C-295.2-499.9-295.4-499.6-295.7-499.6z"/>
		<path class="st2" d="M-295.7-494.2h-17.6c-0.3,0-0.5-0.2-0.5-0.5v-2.4c0-0.3,0.2-0.5,0.5-0.5h17.6c0.3,0,0.5,0.2,0.5,0.5v2.4
			C-295.2-494.4-295.4-494.2-295.7-494.2z"/>
		<path class="st2" d="M-295.7-488.7h-17.6c-0.3,0-0.5-0.2-0.5-0.5v-2.4c0-0.3,0.2-0.5,0.5-0.5h17.6c0.3,0,0.5,0.2,0.5,0.5v2.4
			C-295.2-488.9-295.4-488.7-295.7-488.7z"/>
	</g>
</g>
<g>
	<circle class="st6" cx="-304.9" cy="-338.9" r="20"/>
	<g>
		<path class="st2" d="M-296.1-330.3h-17.6c-0.3,0-0.5-0.2-0.5-0.5v-2.4c0-0.3,0.2-0.5,0.5-0.5h17.6c0.3,0,0.5,0.2,0.5,0.5v2.4
			C-295.6-330.5-295.8-330.3-296.1-330.3z M-313.2-331.3h16.6v-1.4h-16.6V-331.3z"/>
		<path class="st2" d="M-296.1-335.7h-17.2c-0.2,0-0.4-0.1-0.4-0.3c-0.1-0.2-0.1-0.4,0-0.5l8.6-11.6c0.1-0.1,0.2-0.2,0.4-0.2
			c0.2,0,0.3,0.1,0.4,0.2l8.6,11.6c0.1,0.2,0.1,0.4,0,0.5C-295.7-335.8-295.9-335.7-296.1-335.7z M-312.2-336.7h15.2l-7.6-10.3
			L-312.2-336.7z"/>
	</g>
</g>
<g>
	<g>
		<g>
			<g>
				<path class="st10" d="M786.8-631.3c-2.5,0-4.9,1-6.7,2.7c-1.8,1.8-2.7,4.1-2.7,6.6c0,2.5,1,4.8,2.7,6.6c1.8,1.8,4.2,2.7,6.7,2.7
					c2.5,0,4.9-1,6.7-2.7c1.8-1.8,2.7-4.1,2.7-6.6c0-2.5-1-4.8-2.7-6.6C791.8-630.3,789.3-631.3,786.8-631.3z"/>
			</g>
			<g>
				<path class="st10" d="M799.7-647.9c-3.7,3.7-3.7,9.6,0,13.2l0,0c3.7,3.7,9.7,3.7,13.3,0l0,0c3.7-3.7,3.7-9.6,0-13.2l0,0
					c-1.8-1.8-4.2-2.7-6.7-2.7l0,0C804-650.6,801.5-649.7,799.7-647.9z"/>
			</g>
		</g>
		<g>
			<g>
				<path class="st10" d="M786.8-708.6c-2.5,0-4.9,1-6.7,2.7c-1.8,1.8-2.7,4.1-2.7,6.6c0,2.5,1,4.8,2.7,6.6s4.2,2.7,6.7,2.7
					c2.5,0,4.9-1,6.7-2.7s2.7-4.1,2.7-6.6c0-2.5-1-4.8-2.7-6.6C791.8-707.6,789.3-708.6,786.8-708.6z"/>
			</g>
			<g>
				<path class="st10" d="M799.7-685.8c-3.7,3.7-3.7,9.6,0,13.2l0,0c3.7,3.7,9.7,3.7,13.3,0l0,0c3.7-3.7,3.7-9.6,0-13.2l0,0
					c-1.8-1.8-4.2-2.7-6.7-2.7l0,0C804-688.6,801.5-687.6,799.7-685.8z"/>
			</g>
		</g>
	</g>
	<g>
		<path class="st10" d="M825.3-651.3c2.5,0,4.9-1,6.7-2.7c1.8-1.8,2.7-4.1,2.7-6.6c0-2.5-1-4.8-2.7-6.6c-1.8-1.8-4.2-2.7-6.7-2.7
			c-2.5,0-4.9,1-6.7,2.7c-1.8,1.8-2.7,4.1-2.7,6.6c0,2.5,1,4.8,2.7,6.6C820.4-652.3,822.9-651.3,825.3-651.3z"/>
	</g>
	<g>
		<path class="st10" d="M787.5-651.3c2.5,0,4.9-1,6.7-2.7c1.8-1.8,2.7-4.1,2.7-6.6c0-2.5-1-4.8-2.7-6.6c-1.8-1.8-4.2-2.7-6.7-2.7
			c-2.5,0-4.9,1-6.7,2.7s-2.7,4.1-2.7,6.6c0,2.5,1,4.8,2.7,6.6S785-651.3,787.5-651.3z"/>
	</g>
	<g>
		<path class="st10" d="M762.3-651.3c2.5,0,4.9-1,6.7-2.7s2.7-4.1,2.7-6.6c0-2.5-1-4.8-2.7-6.6s-4.2-2.7-6.7-2.7
			c-2.5,0-4.9,1-6.7,2.7s-2.7,4.1-2.7,6.6c0,2.5,1,4.8,2.7,6.6S759.8-651.3,762.3-651.3z"/>
	</g>
	<g>
		<path class="st10" d="M737-651.3c2.5,0,4.9-1,6.7-2.7c1.8-1.8,2.7-4.1,2.7-6.6c0-2.5-1-4.8-2.7-6.6c-1.8-1.8-4.2-2.7-6.7-2.7
			c-2.5,0-4.9,1-6.7,2.7c-1.8,1.8-2.7,4.1-2.7,6.6c0,2.5,1,4.8,2.7,6.6C732.1-652.3,734.6-651.3,737-651.3z"/>
	</g>
</g>
<g>
	<g>
		<g>
			<g>
				<path class="st2" d="M1076.2-631.3c-2.5,0-4.9,1-6.7,2.7c-1.8,1.8-2.7,4.1-2.7,6.6c0,2.5,1,4.8,2.7,6.6c1.8,1.8,4.2,2.7,6.7,2.7
					s4.9-1,6.7-2.7c1.8-1.8,2.7-4.1,2.7-6.6c0-2.5-1-4.8-2.7-6.6C1081.1-630.3,1078.6-631.3,1076.2-631.3z"/>
			</g>
			<g>
				<path class="st2" d="M1089-647.9c-3.7,3.7-3.7,9.6,0,13.2l0,0c3.7,3.7,9.7,3.7,13.3,0l0,0c3.7-3.7,3.7-9.6,0-13.2l0,0
					c-1.8-1.8-4.2-2.7-6.7-2.7l0,0C1093.3-650.6,1090.8-649.7,1089-647.9z"/>
			</g>
		</g>
		<g>
			<g>
				<path class="st2" d="M1076.2-708.6c-2.5,0-4.9,1-6.7,2.7c-1.8,1.8-2.7,4.1-2.7,6.6c0,2.5,1,4.8,2.7,6.6s4.2,2.7,6.7,2.7
					s4.9-1,6.7-2.7s2.7-4.1,2.7-6.6c0-2.5-1-4.8-2.7-6.6C1081.1-707.6,1078.6-708.6,1076.2-708.6z"/>
			</g>
			<g>
				<path class="st2" d="M1089-685.8c-3.7,3.7-3.7,9.6,0,13.2l0,0c3.7,3.7,9.7,3.7,13.3,0l0,0c3.7-3.7,3.7-9.6,0-13.2l0,0
					c-1.8-1.8-4.2-2.7-6.7-2.7l0,0C1093.3-688.6,1090.8-687.6,1089-685.8z"/>
			</g>
		</g>
	</g>
	<g>
		<path class="st2" d="M1114.7-651.3c2.5,0,4.9-1,6.7-2.7s2.7-4.1,2.7-6.6c0-2.5-1-4.8-2.7-6.6s-4.2-2.7-6.7-2.7
			c-2.5,0-4.9,1-6.7,2.7s-2.7,4.1-2.7,6.6c0,2.5,1,4.8,2.7,6.6S1112.2-651.3,1114.7-651.3z"/>
	</g>
	<g>
		<path class="st2" d="M1076.8-651.3c2.5,0,4.9-1,6.7-2.7s2.7-4.1,2.7-6.6c0-2.5-1-4.8-2.7-6.6s-4.2-2.7-6.7-2.7s-4.9,1-6.7,2.7
			s-2.7,4.1-2.7,6.6c0,2.5,1,4.8,2.7,6.6S1074.4-651.3,1076.8-651.3z"/>
	</g>
	<g>
		<path class="st2" d="M1051.6-651.3c2.5,0,4.9-1,6.7-2.7s2.7-4.1,2.7-6.6c0-2.5-1-4.8-2.7-6.6s-4.2-2.7-6.7-2.7s-4.9,1-6.7,2.7
			c-1.8,1.8-2.7,4.1-2.7,6.6c0,2.5,1,4.8,2.7,6.6C1046.7-652.3,1049.1-651.3,1051.6-651.3z"/>
	</g>
	<g>
		<path class="st2" d="M1026.4-651.3c2.5,0,4.9-1,6.7-2.7s2.7-4.1,2.7-6.6c0-2.5-1-4.8-2.7-6.6s-4.2-2.7-6.7-2.7
			c-2.5,0-4.9,1-6.7,2.7s-2.7,4.1-2.7,6.6c0,2.5,1,4.8,2.7,6.6S1023.9-651.3,1026.4-651.3z"/>
	</g>
</g>
<g>
	<g>
		<polygon class="st7" points="-180.6,-125.3 -180.6,-125.3 -174.8,-134.5 		"/>
		<path class="st7" d="M-151.9-125.3L-151.9-125.3l-8.2,25.8l-3.7-16l2.5-7.4H-173l2.5,7.4l-3.7,16.3l-8.3-25.9l-0.6-0.1
			c0,0-21.8-0.1-21.8,10.3c0,11.4,0,25,0,25h74c0,0,0-13.6,0-25C-130.9-125.3-151.9-125.3-151.9-125.3z"/>
		<polygon class="st7" points="-159.6,-134.5 -153.8,-125.3 -153.8,-125.3 		"/>
	</g>
	<path class="st7" d="M-167.3-184.4c17.5,0,20.4,14.2,20.7,20.7c0.2,5.5-1,12.6-6.4,21.9s-9.8,7.8-9.8,7.8h-9c0,0-4.4,1.6-9.8-7.7
		c-5.4-9.3-6.6-16.7-6.4-22.2c0.3-6.5,3.2-18.6,20.7-18.6L-167.3-184.4z"/>
	<polyline class="st7" points="-128.9,-175.2 -123.3,-166.9 -112.3,-185.7 	"/>
	<path class="st7" d="M-144.5-186.4c0-5.4,4.4-9.8,9.8-9.8h28.1c5.4,0,9.8,4.4,9.8,9.8v21.4c0,5.4-4.4,9.8-9.8,9.8h-23.2l-9.2,11.8"
		/>
</g>
<circle class="st6" cx="91.1" cy="-144.1" r="100"/>
<g>
	<polyline class="st7" points="75.2,-138.3 48.7,-164.8 75.2,-191.3 	"/>
	<path class="st7" d="M99.6-97c18.7,0,33.9-15.2,33.9-33.9s-15.2-33.9-33.9-33.9H48.7"/>
</g>
<circle class="st6" cx="512.1" cy="-144.1" r="100"/>
<circle class="st6" cx="512.1" cy="101" r="100"/>
<circle class="st6" cx="100" cy="100" r="100"/>
<g>
	<circle class="st6" cx="-144.9" cy="101" r="100"/>
	<g>
		<path class="st7" d="M-152.3,129.6l13.7-17.5h42.4c8,0,14.5-6.5,14.5-14.5V65.9c0-8-6.5-14.5-14.5-14.5h-41.6
			c-8,0-14.5,6.5-14.5,14.5v20.3"/>
		<path class="st7" d="M-162.3,107.5c0-5.4-4.4-9.8-9.8-9.8h-28.1c-5.4,0-9.8,4.4-9.8,9.8v21.4c0,5.4,4.4,9.8,9.8,9.8h28.6l9.2,11.8
			"/>
		<circle class="st7" cx="-195.3" cy="118.7" r="0.5"/>
		<circle class="st7" cx="-185.3" cy="118.7" r="0.5"/>
		<circle class="st7" cx="-175.3" cy="118.7" r="0.5"/>
		<circle class="st7" cx="-117.2" cy="99.8" r="0.5"/>
		<path class="st7" d="M-117.2,90.2c0-4.8,8.8-7,8.8-15.3c0-4.8-3.9-8.8-8.8-8.8c-4.8,0-8.8,3.9-8.8,8.8"/>
	</g>
</g>
<g>
	<path class="st11" d="M85.3,117.4c20,20,46.6,36.9,55.5,28c8.5-8.5,9.8-16.6,9.8-16.6l-26-9.5l-4.6,9.4c0,0-17.4-15.1-24.3-21.9
		C88.9,99.9,74,82.7,74,82.7l9.4-4.6l-9.6-26c0,0-8,1.3-16.5,9.8C48.4,70.7,65.3,97.4,85.3,117.4C85.2,117.3,85.3,117.4,85.3,117.4z
		"/>
	<path class="st11" d="M99,183.7c-45.7,0-82.7-37-82.7-82.7s37-82.7,82.7-82.7s82.7,37,82.7,82.7c0,23.1-15.6,65.6-57.9,44.7"/>
	<path class="st11" d="M99,47c29.8,0,54,24.2,54,54"/>
	<path class="st11" d="M99,62.6c21.2,0,38.4,17.2,38.4,38.4"/>
</g>
<path class="st7" d="M503.6-145.1l-27,30.1l-28.4-30l18.2-0.1c0-27.1,22-49.2,49.1-49.2c27.1,0,49.1,22,49.1,49.1
	s-22,49.1-49.1,49.1c-10.7,0-20.6-3.4-28.7-9.3l12-13.4c4.8,3.1,10.6,4.8,16.7,4.8c17.3,0,31.3-14,31.3-31.3
	c0-17.3-14-31.3-31.3-31.3c-17.3,0-31.4,14.1-31.4,31.3L503.6-145.1z"/>
<polygon class="st7" points="498.1,144.6 498.2,164 468.1,137 498.2,108.8 498.3,127.1 553.1,127.1 553.1,144.6 "/>
<polygon class="st7" points="498.1,74.6 498.2,94 468.1,67 498.2,38.8 498.3,57.1 553.1,57.1 553.1,74.6 "/>
<circle class="st6" cx="753.1" cy="101" r="100"/>
<polygon class="st7" points="728.1,108.6 728.2,128 698.1,101 728.2,72.8 728.3,91.1 803.1,91.1 803.1,108.6 "/>
<circle class="st6" cx="994.1" cy="101" r="100"/>
<polygon class="st7" points="1019.2,93.3 1019.1,73.9 1049.1,100.9 1019.1,129.3 1019,111.1 944.1,111.1 944.1,93.4 "/>
</svg>
