<?xml version="1.0" encoding="utf-8"?>
<!-- Generator: Adobe Illustrator 19.1.0, SVG Export Plug-In . SVG Version: 6.00 Build 0)  -->
<svg version="1.1" id="Layer_1" xmlns="http://www.w3.org/2000/svg" xmlns:xlink="http://www.w3.org/1999/xlink" x="0px" y="0px"
	 viewBox="0 0 200 200" style="enable-background:new 0 0 200 200;" xml:space="preserve">
<style type="text/css">
	.st0{fill:#CCCCCC;}
	.st1{filter:url(#Adobe_OpacityMaskFilter);}
	.st2{fill:#FFFFFF;}
	.st3{mask:url(#SVGID_1_);}
	.st4{fill:none;stroke:#000000;stroke-miterlimit:10;}
	.st5{fill:#F7F7F7;}
	.st6{fill:#CD153E;}
	.st7{fill:none;stroke:#FFFFFF;stroke-width:5;stroke-linecap:round;stroke-linejoin:round;stroke-miterlimit:10;}
	.st8{fill:#F89C24;}
	.st9{opacity:0.5;fill:#0083C1;}
	.st10{fill:#0083C1;}
	.st11{display:none;fill:#CD153E;}
</style>
<circle class="st0" cx="369" cy="-416.5" r="100"/>
<defs>
	<filter id="Adobe_OpacityMaskFilter" filterUnits="userSpaceOnUse" x="-3405.4" y="-3301.4" width="2554" height="6377">
		<feColorMatrix  type="matrix" values="1 0 0 0 0  0 1 0 0 0  0 0 1 0 0  0 0 0 1 0"/>
	</filter>
</defs>
<mask maskUnits="userSpaceOnUse" x="-3405.4" y="-3301.4" width="2554" height="6377" id="SVGID_1_">
	<g class="st1">
		<g>
			<path class="st2" d="M-2058.3-889.9c-451.5,0-817.5,347.9-817.5,777c0,429.1,366,777,817.5,777c451.4,0,817.4-347.9,817.4-777
				C-1240.9-542-1606.9-889.9-2058.3-889.9 M-1892.3,565.2c-319.2,86.7-665.8-134.1-766.5-517.7c-85.3-324.7,86.9-757.8,412.7-846.3
				c319.2-86.7,665.7,143.2,766.5,526.7C-1378.8,111.5-1573.1,478.5-1892.3,565.2z"/>
		</g>
	</g>
</mask>
<g class="st3">
	<line class="st4" x1="-851.8" y1="-1399.5" x2="-3405" y2="1153.7"/>
	<line class="st4" x1="-851.8" y1="-1419.5" x2="-3405" y2="1133.7"/>
	<line class="st4" x1="-851.8" y1="-1439.6" x2="-3405" y2="1113.7"/>
	<line class="st4" x1="-851.8" y1="-1459.6" x2="-3405" y2="1093.7"/>
	<line class="st4" x1="-851.8" y1="-1479.6" x2="-3405" y2="1073.7"/>
	<line class="st4" x1="-851.8" y1="-1499.6" x2="-3405" y2="1053.7"/>
	<line class="st4" x1="-851.8" y1="-1519.6" x2="-3405" y2="1033.6"/>
	<line class="st4" x1="-851.8" y1="-1539.6" x2="-3405" y2="1013.6"/>
	<line class="st4" x1="-851.8" y1="-1559.6" x2="-3405" y2="993.6"/>
	<line class="st4" x1="-851.8" y1="-1579.7" x2="-3405" y2="973.6"/>
	<line class="st4" x1="-851.8" y1="-1599.7" x2="-3405" y2="953.6"/>
	<line class="st4" x1="-851.8" y1="-1619.7" x2="-3405" y2="933.6"/>
	<line class="st4" x1="-851.8" y1="-1639.7" x2="-3405" y2="913.5"/>
	<line class="st4" x1="-851.8" y1="-1659.7" x2="-3405" y2="893.5"/>
	<line class="st4" x1="-851.8" y1="-1679.7" x2="-3405" y2="873.5"/>
	<line class="st4" x1="-851.8" y1="-1699.8" x2="-3405" y2="853.5"/>
	<line class="st4" x1="-851.8" y1="-1719.8" x2="-3405" y2="833.5"/>
	<line class="st4" x1="-851.8" y1="-1739.8" x2="-3405" y2="813.5"/>
	<line class="st4" x1="-851.8" y1="-1759.8" x2="-3405" y2="793.4"/>
	<line class="st4" x1="-851.8" y1="-1779.8" x2="-3405" y2="773.4"/>
	<line class="st4" x1="-851.8" y1="-1799.8" x2="-3405" y2="753.4"/>
	<line class="st4" x1="-851.8" y1="-1819.9" x2="-3405" y2="733.4"/>
	<line class="st4" x1="-851.8" y1="-1839.9" x2="-3405" y2="713.4"/>
	<line class="st4" x1="-851.8" y1="-1859.9" x2="-3405" y2="693.4"/>
	<line class="st4" x1="-851.8" y1="-1879.9" x2="-3405" y2="673.4"/>
	<line class="st4" x1="-851.8" y1="-1899.9" x2="-3405" y2="653.3"/>
	<line class="st4" x1="-851.8" y1="-1919.9" x2="-3405" y2="633.3"/>
	<line class="st4" x1="-851.8" y1="-1940" x2="-3405" y2="613.3"/>
	<line class="st4" x1="-851.8" y1="-1960" x2="-3405" y2="593.3"/>
	<line class="st4" x1="-851.8" y1="-1980" x2="-3405" y2="573.3"/>
	<line class="st4" x1="-851.8" y1="-2000" x2="-3405" y2="553.3"/>
	<line class="st4" x1="-851.8" y1="-2020" x2="-3405" y2="533.2"/>
	<line class="st4" x1="-851.8" y1="-2040" x2="-3405" y2="513.2"/>
	<line class="st4" x1="-851.8" y1="-2060" x2="-3405" y2="493.2"/>
	<line class="st4" x1="-851.8" y1="-2080.1" x2="-3405" y2="473.2"/>
	<line class="st4" x1="-851.8" y1="-2100.1" x2="-3405" y2="453.2"/>
	<line class="st4" x1="-851.8" y1="-2120.1" x2="-3405" y2="433.2"/>
	<line class="st4" x1="-851.8" y1="-2140.1" x2="-3405" y2="413.1"/>
	<line class="st4" x1="-851.8" y1="-2160.1" x2="-3405" y2="393.1"/>
	<line class="st4" x1="-851.8" y1="-2180.1" x2="-3405" y2="373.1"/>
	<line class="st4" x1="-851.8" y1="-2200.2" x2="-3405" y2="353.1"/>
	<line class="st4" x1="-851.8" y1="-2220.2" x2="-3405" y2="333.1"/>
	<line class="st4" x1="-851.8" y1="-2240.2" x2="-3405" y2="313.1"/>
	<line class="st4" x1="-851.8" y1="-2260.2" x2="-3405" y2="293"/>
	<line class="st4" x1="-851.8" y1="-2280.2" x2="-3405" y2="273"/>
	<line class="st4" x1="-851.8" y1="-2300.2" x2="-3405" y2="253"/>
	<line class="st4" x1="-851.8" y1="-2320.3" x2="-3405" y2="233"/>
	<line class="st4" x1="-851.8" y1="-2340.3" x2="-3405" y2="213"/>
	<line class="st4" x1="-851.8" y1="-2360.3" x2="-3405" y2="193"/>
	<line class="st4" x1="-851.8" y1="-2380.3" x2="-3405" y2="173"/>
	<line class="st4" x1="-851.8" y1="-2400.3" x2="-3405" y2="152.9"/>
	<line class="st4" x1="-851.8" y1="-2420.3" x2="-3405" y2="132.9"/>
	<line class="st4" x1="-851.8" y1="-2440.4" x2="-3405" y2="112.9"/>
	<line class="st4" x1="-851.8" y1="-2460.4" x2="-3405" y2="92.9"/>
	<line class="st4" x1="-851.8" y1="-2480.4" x2="-3405" y2="72.9"/>
	<line class="st4" x1="-851.8" y1="-2500.4" x2="-3405" y2="52.9"/>
	<line class="st4" x1="-851.8" y1="-2520.4" x2="-3405" y2="32.8"/>
	<line class="st4" x1="-851.8" y1="-2540.4" x2="-3405" y2="12.8"/>
	<line class="st4" x1="-851.8" y1="-2560.4" x2="-3405" y2="-7.2"/>
	<line class="st4" x1="-851.8" y1="-2580.5" x2="-3405" y2="-27.2"/>
	<line class="st4" x1="-851.8" y1="-2600.5" x2="-3405" y2="-47.2"/>
	<line class="st4" x1="-851.8" y1="-2620.5" x2="-3405" y2="-67.2"/>
	<line class="st4" x1="-851.8" y1="-2640.5" x2="-3405" y2="-87.3"/>
	<line class="st4" x1="-851.8" y1="-2660.5" x2="-3405" y2="-107.3"/>
	<line class="st4" x1="-851.8" y1="-2680.5" x2="-3405" y2="-127.3"/>
	<line class="st4" x1="-851.8" y1="-2700.6" x2="-3405" y2="-147.3"/>
	<line class="st4" x1="-851.8" y1="-2720.6" x2="-3405" y2="-167.3"/>
	<line class="st4" x1="-851.8" y1="-2740.6" x2="-3405" y2="-187.3"/>
	<line class="st4" x1="-851.8" y1="-2760.6" x2="-3405" y2="-207.4"/>
	<line class="st4" x1="-851.8" y1="-2780.6" x2="-3405" y2="-227.4"/>
	<line class="st4" x1="-851.8" y1="-2800.6" x2="-3405" y2="-247.4"/>
	<line class="st4" x1="-851.8" y1="-2820.7" x2="-3405" y2="-267.4"/>
	<line class="st4" x1="-851.8" y1="-2840.7" x2="-3405" y2="-287.4"/>
	<line class="st4" x1="-851.8" y1="-2860.7" x2="-3405" y2="-307.4"/>
	<line class="st4" x1="-851.8" y1="-2880.7" x2="-3405" y2="-327.4"/>
	<line class="st4" x1="-851.8" y1="-2900.7" x2="-3405" y2="-347.5"/>
	<line class="st4" x1="-851.8" y1="-2920.7" x2="-3405" y2="-367.5"/>
	<line class="st4" x1="-851.8" y1="-2940.8" x2="-3405" y2="-387.5"/>
	<line class="st4" x1="-851.8" y1="-2960.8" x2="-3405" y2="-407.5"/>
	<line class="st4" x1="-851.8" y1="-2980.8" x2="-3405" y2="-427.5"/>
	<line class="st4" x1="-851.8" y1="-3000.8" x2="-3405" y2="-447.5"/>
	<line class="st4" x1="-851.8" y1="-3020.8" x2="-3405" y2="-467.6"/>
	<line class="st4" x1="-851.8" y1="-3040.8" x2="-3405" y2="-487.6"/>
	<line class="st4" x1="-851.8" y1="-3060.8" x2="-3405" y2="-507.6"/>
	<line class="st4" x1="-851.8" y1="-3080.9" x2="-3405" y2="-527.6"/>
	<line class="st4" x1="-851.8" y1="-3100.9" x2="-3405" y2="-547.6"/>
	<line class="st4" x1="-851.8" y1="-3120.9" x2="-3405" y2="-567.6"/>
	<line class="st4" x1="-851.8" y1="-3140.9" x2="-3405" y2="-587.7"/>
	<line class="st4" x1="-851.8" y1="-3160.9" x2="-3405" y2="-607.7"/>
	<line class="st4" x1="-851.8" y1="-3180.9" x2="-3405" y2="-627.7"/>
	<line class="st4" x1="-851.8" y1="-3201" x2="-3405" y2="-647.7"/>
	<line class="st4" x1="-851.8" y1="-3221" x2="-3405" y2="-667.7"/>
	<line class="st4" x1="-851.8" y1="-3241" x2="-3405" y2="-687.7"/>
	<line class="st4" x1="-851.8" y1="-3261" x2="-3405" y2="-707.8"/>
	<line class="st4" x1="-851.8" y1="-3281" x2="-3405" y2="-727.8"/>
	<line class="st4" x1="-851.8" y1="-3301" x2="-3405" y2="-747.8"/>
	<line class="st4" x1="-851.8" y1="522" x2="-3405" y2="3075.3"/>
	<line class="st4" x1="-851.8" y1="502" x2="-3405" y2="3055.3"/>
	<line class="st4" x1="-851.8" y1="482" x2="-3405" y2="3035.2"/>
	<line class="st4" x1="-851.8" y1="462" x2="-3405" y2="3015.2"/>
	<line class="st4" x1="-851.8" y1="442" x2="-3405" y2="2995.2"/>
	<line class="st4" x1="-851.8" y1="421.9" x2="-3405" y2="2975.2"/>
	<line class="st4" x1="-851.8" y1="401.9" x2="-3405" y2="2955.2"/>
	<line class="st4" x1="-851.8" y1="381.9" x2="-3405" y2="2935.2"/>
	<line class="st4" x1="-851.8" y1="361.9" x2="-3405" y2="2915.1"/>
	<line class="st4" x1="-851.8" y1="341.9" x2="-3405" y2="2895.1"/>
	<line class="st4" x1="-851.8" y1="321.9" x2="-3405" y2="2875.1"/>
	<line class="st4" x1="-851.8" y1="301.8" x2="-3405" y2="2855.1"/>
	<line class="st4" x1="-851.8" y1="281.8" x2="-3405" y2="2835.1"/>
	<line class="st4" x1="-851.8" y1="261.8" x2="-3405" y2="2815.1"/>
	<line class="st4" x1="-851.8" y1="241.8" x2="-3405" y2="2795"/>
	<line class="st4" x1="-851.8" y1="221.8" x2="-3405" y2="2775"/>
	<line class="st4" x1="-851.8" y1="201.8" x2="-3405" y2="2755"/>
	<line class="st4" x1="-851.8" y1="181.7" x2="-3405" y2="2735"/>
	<line class="st4" x1="-851.8" y1="161.7" x2="-3405" y2="2715"/>
	<line class="st4" x1="-851.8" y1="141.7" x2="-3405" y2="2695"/>
	<line class="st4" x1="-851.8" y1="121.7" x2="-3405" y2="2675"/>
	<line class="st4" x1="-851.8" y1="101.7" x2="-3405" y2="2654.9"/>
	<line class="st4" x1="-851.8" y1="81.7" x2="-3405" y2="2634.9"/>
	<line class="st4" x1="-851.8" y1="61.6" x2="-3405" y2="2614.9"/>
	<line class="st4" x1="-851.8" y1="41.6" x2="-3405" y2="2594.9"/>
	<line class="st4" x1="-851.8" y1="21.6" x2="-3405" y2="2574.9"/>
	<line class="st4" x1="-851.8" y1="1.6" x2="-3405" y2="2554.9"/>
	<line class="st4" x1="-851.8" y1="-18.4" x2="-3405" y2="2534.8"/>
	<line class="st4" x1="-851.8" y1="-38.4" x2="-3405" y2="2514.8"/>
	<line class="st4" x1="-851.8" y1="-58.4" x2="-3405" y2="2494.8"/>
	<line class="st4" x1="-851.8" y1="-78.5" x2="-3405" y2="2474.8"/>
	<line class="st4" x1="-851.8" y1="-98.5" x2="-3405" y2="2454.8"/>
	<line class="st4" x1="-851.8" y1="-118.5" x2="-3405" y2="2434.8"/>
	<line class="st4" x1="-851.8" y1="-138.5" x2="-3405" y2="2414.7"/>
	<line class="st4" x1="-851.8" y1="-158.5" x2="-3405" y2="2394.7"/>
	<line class="st4" x1="-851.8" y1="-178.5" x2="-3405" y2="2374.7"/>
	<line class="st4" x1="-851.8" y1="-198.6" x2="-3405" y2="2354.7"/>
	<line class="st4" x1="-851.8" y1="-218.6" x2="-3405" y2="2334.7"/>
	<line class="st4" x1="-851.8" y1="-238.6" x2="-3405" y2="2314.7"/>
	<line class="st4" x1="-851.8" y1="-258.6" x2="-3405" y2="2294.6"/>
	<line class="st4" x1="-851.8" y1="-278.6" x2="-3405" y2="2274.6"/>
	<line class="st4" x1="-851.8" y1="-298.6" x2="-3405" y2="2254.6"/>
	<line class="st4" x1="-851.8" y1="-318.7" x2="-3405" y2="2234.6"/>
	<line class="st4" x1="-851.8" y1="-338.7" x2="-3405" y2="2214.6"/>
	<line class="st4" x1="-851.8" y1="-358.7" x2="-3405" y2="2194.6"/>
	<line class="st4" x1="-851.8" y1="-378.7" x2="-3405" y2="2174.6"/>
	<line class="st4" x1="-851.8" y1="-398.7" x2="-3405" y2="2154.5"/>
	<line class="st4" x1="-851.8" y1="-418.7" x2="-3405" y2="2134.5"/>
	<line class="st4" x1="-851.8" y1="-438.8" x2="-3405" y2="2114.5"/>
	<line class="st4" x1="-851.8" y1="-458.8" x2="-3405" y2="2094.5"/>
	<line class="st4" x1="-851.8" y1="-478.8" x2="-3405" y2="2074.5"/>
	<line class="st4" x1="-851.8" y1="-498.8" x2="-3405" y2="2054.5"/>
	<line class="st4" x1="-851.8" y1="-518.8" x2="-3405" y2="2034.4"/>
	<line class="st4" x1="-851.8" y1="-538.8" x2="-3405" y2="2014.4"/>
	<line class="st4" x1="-851.8" y1="-558.8" x2="-3405" y2="1994.4"/>
	<line class="st4" x1="-851.8" y1="-578.9" x2="-3405" y2="1974.4"/>
	<line class="st4" x1="-851.8" y1="-598.9" x2="-3405" y2="1954.4"/>
	<line class="st4" x1="-851.8" y1="-618.9" x2="-3405" y2="1934.4"/>
	<line class="st4" x1="-851.8" y1="-638.9" x2="-3405" y2="1914.3"/>
	<line class="st4" x1="-851.8" y1="-658.9" x2="-3405" y2="1894.3"/>
	<line class="st4" x1="-851.8" y1="-678.9" x2="-3405" y2="1874.3"/>
	<line class="st4" x1="-851.8" y1="-699" x2="-3405" y2="1854.3"/>
	<line class="st4" x1="-851.8" y1="-719" x2="-3405" y2="1834.3"/>
	<line class="st4" x1="-851.8" y1="-739" x2="-3405" y2="1814.3"/>
	<line class="st4" x1="-851.8" y1="-759" x2="-3405" y2="1794.2"/>
	<line class="st4" x1="-851.8" y1="-779" x2="-3405" y2="1774.2"/>
	<line class="st4" x1="-851.8" y1="-799" x2="-3405" y2="1754.2"/>
	<line class="st4" x1="-851.8" y1="-819.1" x2="-3405" y2="1734.2"/>
	<line class="st4" x1="-851.8" y1="-839.1" x2="-3405" y2="1714.2"/>
	<line class="st4" x1="-851.8" y1="-859.1" x2="-3405" y2="1694.2"/>
	<line class="st4" x1="-851.8" y1="-879.1" x2="-3405" y2="1674.2"/>
	<line class="st4" x1="-851.8" y1="-899.1" x2="-3405" y2="1654.1"/>
	<line class="st4" x1="-851.8" y1="-919.1" x2="-3405" y2="1634.1"/>
	<line class="st4" x1="-851.8" y1="-939.2" x2="-3405" y2="1614.1"/>
	<line class="st4" x1="-851.8" y1="-959.2" x2="-3405" y2="1594.1"/>
	<line class="st4" x1="-851.8" y1="-979.2" x2="-3405" y2="1574.1"/>
	<line class="st4" x1="-851.8" y1="-999.2" x2="-3405" y2="1554.1"/>
	<line class="st4" x1="-851.8" y1="-1019.2" x2="-3405" y2="1534"/>
	<line class="st4" x1="-851.8" y1="-1039.2" x2="-3405" y2="1514"/>
	<line class="st4" x1="-851.8" y1="-1059.2" x2="-3405" y2="1494"/>
	<line class="st4" x1="-851.8" y1="-1079.3" x2="-3405" y2="1474"/>
	<line class="st4" x1="-851.8" y1="-1099.3" x2="-3405" y2="1454"/>
	<line class="st4" x1="-851.8" y1="-1119.3" x2="-3405" y2="1434"/>
	<line class="st4" x1="-851.8" y1="-1139.3" x2="-3405" y2="1413.9"/>
	<line class="st4" x1="-851.8" y1="-1159.3" x2="-3405" y2="1393.9"/>
	<line class="st4" x1="-851.8" y1="-1179.3" x2="-3405" y2="1373.9"/>
	<line class="st4" x1="-851.8" y1="-1199.4" x2="-3405" y2="1353.9"/>
	<line class="st4" x1="-851.8" y1="-1219.4" x2="-3405" y2="1333.9"/>
	<line class="st4" x1="-851.8" y1="-1239.4" x2="-3405" y2="1313.9"/>
	<line class="st4" x1="-851.8" y1="-1259.4" x2="-3405" y2="1293.8"/>
	<line class="st4" x1="-851.8" y1="-1279.4" x2="-3405" y2="1273.8"/>
	<line class="st4" x1="-851.8" y1="-1299.4" x2="-3405" y2="1253.8"/>
	<line class="st4" x1="-851.8" y1="-1319.5" x2="-3405" y2="1233.8"/>
	<line class="st4" x1="-851.8" y1="-1339.5" x2="-3405" y2="1213.8"/>
	<line class="st4" x1="-851.8" y1="-1359.5" x2="-3405" y2="1193.8"/>
	<line class="st4" x1="-851.8" y1="-1379.5" x2="-3405" y2="1173.8"/>
</g>
<rect x="-131.2" y="-482.2" class="st5" width="55" height="520.4"/>
<circle class="st5" cx="-103.7" cy="-482.2" r="27.5"/>
<circle class="st5" cx="-103.7" cy="38.2" r="27.5"/>
<circle class="st6" cx="-576.2" cy="-412.4" r="100"/>
<g>
	<polygon class="st7" points="-544.3,-363.8 -576.2,-385.7 -608.1,-363.8 -608.1,-461 -544.3,-461 	"/>
	<line class="st7" x1="-595.1" y1="-417.7" x2="-557.4" y2="-417.7"/>
	<line class="st7" x1="-595.1" y1="-404.2" x2="-557.4" y2="-404.2"/>
	<line class="st7" x1="-595.1" y1="-431.2" x2="-557.4" y2="-431.2"/>
	<line class="st7" x1="-595.1" y1="-444.7" x2="-557.4" y2="-444.7"/>
</g>
<circle class="st8" cx="-329.5" cy="-412.4" r="100"/>
<circle class="st0" cx="122.1" cy="-415.3" r="100"/>
<g>
	<polygon class="st7" points="-297.6,-363.8 -329.5,-385.7 -361.4,-363.8 -361.4,-461 -297.6,-461 	"/>
	<line class="st7" x1="-348.4" y1="-417.7" x2="-310.7" y2="-417.7"/>
	<line class="st7" x1="-348.4" y1="-404.2" x2="-310.7" y2="-404.2"/>
	<line class="st7" x1="-348.4" y1="-431.2" x2="-310.7" y2="-431.2"/>
	<line class="st7" x1="-348.4" y1="-444.7" x2="-310.7" y2="-444.7"/>
	<line class="st7" x1="-348.4" y1="-444.7" x2="-310.7" y2="-444.7"/>
</g>
<g>
	<circle class="st8" cx="-780.7" cy="-482.2" r="27.5"/>
	<g>
		<g>
			<path class="st2" d="M-771.9-468.2c-0.1,0-0.3,0-0.4-0.1l-8.4-5.7l-8.4,5.7c-0.2,0.1-0.5,0.2-0.7,0c-0.2-0.1-0.4-0.4-0.4-0.6
				v-26.7c0-0.4,0.3-0.7,0.7-0.7h17.5c0.4,0,0.7,0.3,0.7,0.7v26.7c0,0.3-0.1,0.5-0.4,0.6C-771.7-468.2-771.8-468.2-771.9-468.2z
				 M-780.7-475.6c0.1,0,0.3,0,0.4,0.1l7.7,5.3v-24.7h-16.2v24.7l7.7-5.3C-780.9-475.5-780.8-475.6-780.7-475.6z"/>
		</g>
		<g>
			<path class="st2" d="M-775.5-483h-10.4c-0.4,0-0.7-0.3-0.7-0.7c0-0.4,0.3-0.7,0.7-0.7h10.4c0.4,0,0.7,0.3,0.7,0.7
				C-774.8-483.3-775.1-483-775.5-483z"/>
		</g>
		<g>
			<path class="st2" d="M-775.5-479.3h-10.4c-0.4,0-0.7-0.3-0.7-0.7c0-0.4,0.3-0.7,0.7-0.7h10.4c0.4,0,0.7,0.3,0.7,0.7
				C-774.8-479.6-775.1-479.3-775.5-479.3z"/>
		</g>
		<g>
			<path class="st2" d="M-775.5-486.7h-10.4c-0.4,0-0.7-0.3-0.7-0.7s0.3-0.7,0.7-0.7h10.4c0.4,0,0.7,0.3,0.7,0.7
				S-775.1-486.7-775.5-486.7z"/>
		</g>
		<g>
			<path class="st2" d="M-775.5-490.4h-10.4c-0.4,0-0.7-0.3-0.7-0.7c0-0.4,0.3-0.7,0.7-0.7h10.4c0.4,0,0.7,0.3,0.7,0.7
				C-774.8-490.7-775.1-490.4-775.5-490.4z"/>
		</g>
	</g>
</g>
<g>
	<g>
		<g>
			<g>
				<g>
					<path class="st0" d="M-770.1-415.8c0.9,0,1.8-0.3,2.5-1c0.6-0.6,1-1.5,1-2.4s-0.4-1.8-1-2.4c-0.7-0.6-1.5-1-2.5-1
						s-1.8,0.4-2.5,1c-0.6,0.6-1,1.5-1,2.4s0.4,1.8,1,2.4C-771.9-416.2-771-415.8-770.1-415.8z"/>
				</g>
				<g>
					<path class="st0" d="M-774.8-409.8c1.4-1.4,1.4-3.5,0-4.8l0,0c-1.3-1.3-3.5-1.3-4.8,0l0,0c-1.4,1.4-1.4,3.5,0,4.8l0,0
						c0.6,0.6,1.5,1,2.5,1l0,0C-776.3-408.8-775.4-409.1-774.8-409.8z"/>
				</g>
			</g>
			<g>
				<g>
					<path class="st0" d="M-770.1-387.6c0.9,0,1.8-0.4,2.5-1c0.6-0.6,1-1.5,1-2.4s-0.4-1.8-1-2.4c-0.7-0.6-1.5-1-2.5-1
						s-1.8,0.4-2.5,1c-0.6,0.6-1,1.5-1,2.4s0.4,1.8,1,2.4C-771.9-388-771-387.6-770.1-387.6z"/>
				</g>
				<g>
					<path class="st0" d="M-774.8-395.9c1.4-1.4,1.4-3.5,0-4.8l0,0c-1.3-1.4-3.5-1.4-4.8,0l0,0c-1.4,1.4-1.4,3.5,0,4.8l0,0
						c0.6,0.6,1.5,1,2.5,1l0,0C-776.3-394.9-775.4-395.3-774.8-395.9z"/>
				</g>
			</g>
		</g>
		<g>
			<g>
				<g>
					<path class="st0" d="M-798.2-394.4c-0.9,0-1.8,0.4-2.5,1c-0.7,0.6-1,1.5-1,2.4s0.3,1.8,1,2.4c0.6,0.6,1.5,1,2.5,1
						c0.9,0,1.8-0.4,2.4-1c0.7-0.6,1-1.5,1-2.4s-0.3-1.8-1-2.4C-796.4-394.1-797.3-394.4-798.2-394.4z"/>
				</g>
				<g>
					<path class="st0" d="M-793.5-400.5c-1.3,1.4-1.3,3.5,0,4.8l0,0c1.4,1.4,3.6,1.4,4.9,0l0,0c1.3-1.4,1.3-3.5,0-4.8l0,0
						c-0.7-0.6-1.5-1-2.5-1l0,0C-791.9-401.5-792.8-401.1-793.5-400.5z"/>
				</g>
			</g>
			<g>
				<g>
					<path class="st0" d="M-798.2-422.6c-0.9,0-1.8,0.4-2.5,1c-0.7,0.6-1,1.5-1,2.4s0.3,1.8,1,2.4c0.6,0.7,1.5,1,2.5,1
						c0.9,0,1.8-0.3,2.4-1c0.7-0.6,1-1.5,1-2.4s-0.3-1.8-1-2.4C-796.4-422.3-797.3-422.6-798.2-422.6z"/>
				</g>
				<g>
					<path class="st0" d="M-793.5-414.3c-1.3,1.4-1.3,3.5,0,4.8l0,0c1.4,1.4,3.6,1.4,4.9,0l0,0c1.3-1.4,1.3-3.5,0-4.8l0,0
						c-0.7-0.6-1.5-1-2.5-1l0,0C-791.9-415.3-792.8-415-793.5-414.3z"/>
				</g>
			</g>
		</g>
	</g>
	<g>
		<path class="st0" d="M-784.1-401.7c0.9,0,1.8-0.4,2.5-1c0.6-0.6,1-1.5,1-2.4s-0.4-1.8-1-2.4c-0.7-0.6-1.6-1-2.5-1
			c-0.9,0-1.8,0.4-2.5,1s-1,1.5-1,2.4s0.3,1.8,1,2.4S-785-401.7-784.1-401.7z"/>
	</g>
</g>
<g>
	<g>
		<g>
			<g>
				<g>
					<path class="st0" d="M-770.1-415.8c0.9,0,1.8-0.3,2.5-1c0.6-0.6,1-1.5,1-2.4s-0.4-1.8-1-2.4c-0.7-0.6-1.5-1-2.5-1
						s-1.8,0.4-2.5,1c-0.6,0.6-1,1.5-1,2.4s0.4,1.8,1,2.4C-771.9-416.2-771-415.8-770.1-415.8z"/>
				</g>
				<g>
					<path class="st0" d="M-774.8-409.8c1.4-1.4,1.4-3.5,0-4.8l0,0c-1.3-1.3-3.5-1.3-4.8,0l0,0c-1.4,1.4-1.4,3.5,0,4.8l0,0
						c0.6,0.6,1.5,1,2.5,1l0,0C-776.3-408.8-775.4-409.1-774.8-409.8z"/>
				</g>
			</g>
			<g>
				<g>
					<path class="st0" d="M-770.1-387.6c0.9,0,1.8-0.4,2.5-1c0.6-0.6,1-1.5,1-2.4s-0.4-1.8-1-2.4c-0.7-0.6-1.5-1-2.5-1
						s-1.8,0.4-2.5,1c-0.6,0.6-1,1.5-1,2.4s0.4,1.8,1,2.4C-771.9-388-771-387.6-770.1-387.6z"/>
				</g>
				<g>
					<path class="st0" d="M-774.8-395.9c1.4-1.4,1.4-3.5,0-4.8l0,0c-1.3-1.4-3.5-1.4-4.8,0l0,0c-1.4,1.4-1.4,3.5,0,4.8l0,0
						c0.6,0.6,1.5,1,2.5,1l0,0C-776.3-394.9-775.4-395.3-774.8-395.9z"/>
				</g>
			</g>
		</g>
		<g>
			<g>
				<g>
					<path class="st0" d="M-798.2-394.4c-0.9,0-1.8,0.4-2.5,1c-0.7,0.6-1,1.5-1,2.4s0.3,1.8,1,2.4c0.6,0.6,1.5,1,2.5,1
						c0.9,0,1.8-0.4,2.4-1c0.7-0.6,1-1.5,1-2.4s-0.3-1.8-1-2.4C-796.4-394.1-797.3-394.4-798.2-394.4z"/>
				</g>
				<g>
					<path class="st0" d="M-793.5-400.5c-1.3,1.4-1.3,3.5,0,4.8l0,0c1.4,1.4,3.6,1.4,4.9,0l0,0c1.3-1.4,1.3-3.5,0-4.8l0,0
						c-0.7-0.6-1.5-1-2.5-1l0,0C-791.9-401.5-792.8-401.1-793.5-400.5z"/>
				</g>
			</g>
			<g>
				<g>
					<path class="st0" d="M-798.2-422.6c-0.9,0-1.8,0.4-2.5,1c-0.7,0.6-1,1.5-1,2.4s0.3,1.8,1,2.4c0.6,0.7,1.5,1,2.5,1
						c0.9,0,1.8-0.3,2.4-1c0.7-0.6,1-1.5,1-2.4s-0.3-1.8-1-2.4C-796.4-422.3-797.3-422.6-798.2-422.6z"/>
				</g>
				<g>
					<path class="st0" d="M-793.5-414.3c-1.3,1.4-1.3,3.5,0,4.8l0,0c1.4,1.4,3.6,1.4,4.9,0l0,0c1.3-1.4,1.3-3.5,0-4.8l0,0
						c-0.7-0.6-1.5-1-2.5-1l0,0C-791.9-415.3-792.8-415-793.5-414.3z"/>
				</g>
			</g>
		</g>
	</g>
	<g>
		<path class="st0" d="M-784.1-401.7c0.9,0,1.8-0.4,2.5-1c0.6-0.6,1-1.5,1-2.4s-0.4-1.8-1-2.4c-0.7-0.6-1.6-1-2.5-1
			c-0.9,0-1.8,0.4-2.5,1s-1,1.5-1,2.4s0.3,1.8,1,2.4S-785-401.7-784.1-401.7z"/>
	</g>
</g>
<circle class="st6" cx="-564.4" cy="-184.3" r="100"/>
<g>
	<path class="st7" d="M-576.9-141.2c-12.5,0-22.6-10.1-22.6-22.6v-50.6c0-3.9,3.1-7,7-7c3.9,0,7,3.1,7,7v23.5"/>
	<line class="st7" x1="-585.5" y1="-142.9" x2="-585.5" y2="-124.3"/>
	<line class="st7" x1="-544.3" y1="-141.7" x2="-544.3" y2="-124.3"/>
	<line class="st7" x1="-571.4" y1="-230.4" x2="-571.4" y2="-192"/>
	<path class="st7" d="M-571.4-229.9v-7.4c0-3.9,3.1-7,7-7c3.9,0,7,3.1,7,7v46.4"/>
	<path class="st7" d="M-585.5-213.2v-16.1c0-3.9,3.1-7,7-7c3.9,0,7,3.1,7,7"/>
	<path class="st7" d="M-557.4-230.4c0-3.9,3.1-7,7-7c3.9,0,7,3.1,7,7v48c-10.1,0-18.2,8.2-18.2,18.2"/>
	<path class="st7" d="M-543.4-200.8c0-7.8,6.3-14.1,14.1-14.1v51.1c0,12.5-10.1,22.6-22.6,22.6"/>
</g>
<circle class="st6" cx="-564.4" cy="100" r="100"/>
<circle class="st6" cx="-321" cy="-188.4" r="100"/>
<polygon class="st7" points="-269.8,-194.8 -320.9,-235.1 -372.1,-194.8 -360,-194.8 -360,-141.8 -334,-141.8 -334,-169.8 
	-309,-169.8 -309,-141.8 -283,-141.8 -283,-194.8 "/>
<g>
	<circle class="st6" cx="-781" cy="-330.4" r="27.5"/>
	<path class="st2" d="M-770.6-317.3h-7.1c-0.4,0-0.8,0.1-0.8-0.3v-6.7h-5v6.7c0,0.4-0.7,0.3-1.1,0.3h-7.2c-0.4,0-0.8,0.1-0.8-0.3
		v-13.7h-2.5c-0.3,0-0.6-0.3-0.6-0.6c-0.1-0.3,0-0.6,0.2-0.8l14.1-11.1c0.2-0.2,0.6-0.2,0.9,0l14.1,11.1c0.2,0.2,0.3,0.6,0.2,0.9
		c-0.1,0.3-0.4,0.6-0.6,0.6h-2.6v13.7C-769.5-317.2-770.2-317.3-770.6-317.3z M-776.5-318.3h5v-13.9c0-0.4,0.6-1.1,1-1.1h1.7
		l-12.1-9.5l-12.1,9.5h1.3c0.4,0,0.2,0.7,0.2,1.1v13.9h6v-7c0-0.4,0.6-1,0.9-1h6.9c0.4,0,1.2,0.6,1.2,1V-318.3z"/>
</g>
<circle class="st9" cx="-103.7" cy="-482.2" r="11"/>
<circle class="st9" cx="-103.7" cy="-442.2" r="11"/>
<circle class="st10" cx="-103.7" cy="-402.2" r="11"/>
<circle class="st0" cx="-103.7" cy="-362.1" r="11"/>
<circle class="st0" cx="-103.7" cy="-322.1" r="11"/>
<circle class="st0" cx="-103.7" cy="-282.1" r="11"/>
<circle class="st0" cx="-103.7" cy="-242" r="11"/>
<circle class="st0" cx="-103.7" cy="-202" r="11"/>
<circle class="st0" cx="-103.7" cy="-162" r="11"/>
<circle class="st0" cx="-103.7" cy="-121.9" r="11"/>
<circle class="st0" cx="-103.7" cy="-81.9" r="11"/>
<circle class="st0" cx="-103.7" cy="-41.9" r="11"/>
<circle class="st0" cx="-103.7" cy="-1.8" r="11"/>
<circle class="st0" cx="-103.7" cy="38.2" r="11"/>
<circle class="st9" cx="-53.7" cy="-482.2" r="11"/>
<circle class="st9" cx="-53.7" cy="-450.2" r="11"/>
<circle class="st10" cx="-53.7" cy="-418.2" r="11"/>
<circle class="st0" cx="-53.7" cy="-386.1" r="11"/>
<circle class="st0" cx="-53.7" cy="-355.1" r="11"/>
<circle class="st0" cx="-53.7" cy="-323.1" r="11"/>
<circle class="st0" cx="-53.7" cy="-293.1" r="11"/>
<circle class="st0" cx="-53.7" cy="-261" r="11"/>
<circle class="st0" cx="-53.7" cy="-229" r="11"/>
<circle class="st0" cx="-53.7" cy="-197" r="11"/>
<circle class="st0" cx="-53.7" cy="-165" r="11"/>
<circle class="st0" cx="-53.7" cy="-132.9" r="11"/>
<circle class="st0" cx="-53.7" cy="-100.9" r="11"/>
<circle class="st0" cx="-53.7" cy="-70.3" r="11"/>
<g>
	<path class="st2" d="M-684.2-593.4c0,0,0-2.3-0.6-2.9l-1.9-0.8l0-0.8c0,0,8.4-0.5,13.4-0.5c6.1,0,11.5,3.4,11.4,8.9
		c-0.2,7.3-6.9,8.3-8.5,8.6c2.9,7.2,7.6,13.7,14.2,15.8l-0.1,0.3c-15.3-0.9-18.7-14.7-19.2-17.1c0.2,0.1,0.7,0.1,1.6,0.1
		c6.4,0,8.3-5,8.3-7.7c0-3.7-3-7.2-7.4-7.3c-3.4-0.1-6.5,0.3-6.5,0.3v27.7h-4.6L-684.2-593.4"/>
	<path class="st2" d="M-735.9-575.5c-1.3,5-6.1,7.5-9.6,7.5c-4.6,0-8.1-1.3-9.2-2.1c0,0-0.5-3.1-1.1-4.9l0.8,0
		c0.2,1,2.5,5.3,9.4,5.3c3.5,0,6.4-2.9,6.4-6.3c0-3.1-3-5.1-6.5-6.2c-3.8-1.2-8.6-3.5-8.6-8.6c0-6.5,5.4-7.6,8.4-7.6
		c3.3,0,8,1.3,8.7,1.7l-0.6,3.9c-0.3-0.4-3.7-4.1-8.2-4.1c-3.5,0-5.8,1.8-5.8,4.7c0,2.9,3.1,4.6,7.9,6.2
		C-744-585.8-733.8-583.5-735.9-575.5"/>
	<path class="st2" d="M-776.8-604c-10.5,0-18.9,8.1-18.9,18c0,9.9,8.5,18,18.9,18c10.5,0,18.9-8.1,18.9-18
		C-757.9-595.9-766.4-604-776.8-604 M-773-570.3c-7.4,2-15.4-3.1-17.7-12c-2-7.5,2-17.5,9.6-19.6c7.4-2,15.4,3.3,17.7,12.2
		C-761.1-580.8-765.6-572.3-773-570.3z"/>
	<path class="st2" d="M-708.5-568.7h19c0,0-0.3-4-0.2-4.5c-0.2,0.2-2.6,2.8-9.8,2.8h-4.4v-13.1c5.6,0,8.6,0.6,10,2.1v-6
		c-1.4,1.6-4.5,2.1-10,2.1l0-10.9c0,0,3.9,0,4.1,0c5.7,0,8,1.1,9.4,2.7c0-0.5,0.8-4.4,0.8-4.4h-21.2l0,0.8l1.9,0.8
		c0.6,0.6,0.6,2.9,0.6,2.9L-708.5-568.7"/>
	<path class="st2" d="M-731.3-593.4c0,0,0-2.3-0.6-2.9l-1.9-0.8l0-0.8l6.9,0v27.4h4c7.2,0,9.6-2.6,9.8-2.8c-0.1,0.5,0.2,4.5,0.2,4.5
		h-18.5V-593.4"/>
</g>
<g>
	<rect x="78.1" y="-448.7" class="st7" width="88" height="12.1"/>
	<rect x="78.1" y="-421.4" class="st7" width="88" height="12.1"/>
	<rect x="78.1" y="-394" class="st7" width="88" height="12.1"/>
</g>
<circle class="st0" cx="122.1" cy="-188.3" r="100"/>
<polygon class="st7" points="157.5,-214.9 148.9,-223.5 122.1,-196.6 95.2,-223.5 86.7,-214.9 113.5,-188.1 86.7,-161.2 
	95.2,-152.7 122.1,-179.5 148.9,-152.7 157.5,-161.2 130.6,-188.1 "/>
<circle class="st6" cx="369.1" cy="-188.3" r="100"/>
<g>
	<circle class="st0" cx="-780.9" cy="-173.3" r="27.5"/>
	<path class="st2" d="M-773.5-162.8c-0.2,0-0.4-0.1-0.5-0.2l-6.9-6.9l-6.9,6.9c-0.3,0.3-0.7,0.3-1,0l-2.4-2.4c-0.3-0.3-0.3-0.7,0-1
		l6.9-6.9l-6.9-6.9c-0.3-0.3-0.3-0.7,0-1l2.4-2.4c0.3-0.3,0.7-0.3,1,0l6.9,6.9l6.9-6.9c0.3-0.3,0.7-0.3,1,0l2.4,2.4
		c0.1,0.1,0.2,0.3,0.2,0.5c0,0.2-0.1,0.4-0.2,0.5l-6.9,6.9l6.9,6.9c0.1,0.1,0.2,0.3,0.2,0.5s-0.1,0.4-0.2,0.5l-2.4,2.4
		C-773.2-162.9-773.4-162.8-773.5-162.8z"/>
</g>
<g>
	<circle class="st0" cx="-780.7" cy="-253" r="27.5"/>
	<g>
		<path class="st2" d="M-768.6-259.2h-24.2c-0.4,0-0.7-0.3-0.7-0.7v-3.3c0-0.4,0.3-0.7,0.7-0.7h24.2c0.4,0,0.7,0.3,0.7,0.7v3.3
			C-767.9-259.5-768.2-259.2-768.6-259.2z"/>
		<path class="st2" d="M-768.6-251.7h-24.2c-0.4,0-0.7-0.3-0.7-0.7v-3.3c0-0.4,0.3-0.7,0.7-0.7h24.2c0.4,0,0.7,0.3,0.7,0.7v3.3
			C-767.9-252-768.2-251.7-768.6-251.7z"/>
		<path class="st2" d="M-768.6-244.2h-24.2c-0.4,0-0.7-0.3-0.7-0.7v-3.3c0-0.4,0.3-0.7,0.7-0.7h24.2c0.4,0,0.7,0.3,0.7,0.7v3.3
			C-767.9-244.5-768.2-244.2-768.6-244.2z"/>
	</g>
</g>
<g>
	<rect x="325.1" y="-159.7" class="st7" width="88" height="12.1"/>
	<polygon class="st7" points="370.2,-233 413.1,-174.9 327.3,-174.9 	"/>
</g>
<g>
	<circle class="st6" cx="-781" cy="-96.8" r="27.5"/>
	<g>
		<path class="st2" d="M-768.9-84.9h-24.2c-0.4,0-0.7-0.3-0.7-0.7v-3.3c0-0.4,0.3-0.7,0.7-0.7h24.2c0.4,0,0.7,0.3,0.7,0.7v3.3
			C-768.2-85.2-768.5-84.9-768.9-84.9z M-792.4-86.3h22.8v-2h-22.8V-86.3z"/>
		<path class="st2" d="M-768.9-92.4h-23.6c-0.3,0-0.5-0.1-0.6-0.4c-0.1-0.2-0.1-0.5,0.1-0.7l11.8-16c0.1-0.2,0.3-0.3,0.6-0.3
			s0.4,0.1,0.6,0.3l11.8,16c0.2,0.2,0.2,0.5,0.1,0.7C-768.4-92.5-768.6-92.4-768.9-92.4z M-791.1-93.8h20.9l-10.4-14.1L-791.1-93.8z
			"/>
	</g>
</g>
<g>
	<circle class="st8" cx="-716.7" cy="-480.2" r="20"/>
	<g>
		<g>
			<path class="st2" d="M-710.3-470c-0.1,0-0.2,0-0.3-0.1l-6.1-4.2l-6.1,4.2c-0.2,0.1-0.4,0.1-0.5,0c-0.2-0.1-0.3-0.3-0.3-0.4v-19.4
				c0-0.3,0.2-0.5,0.5-0.5h12.8c0.3,0,0.5,0.2,0.5,0.5v19.4c0,0.2-0.1,0.4-0.3,0.4C-710.1-470-710.2-470-710.3-470z M-716.7-475.4
				c0.1,0,0.2,0,0.3,0.1l5.6,3.8v-18h-11.8v18l5.6-3.8C-716.8-475.3-716.7-475.4-716.7-475.4z"/>
		</g>
		<g>
			<path class="st2" d="M-712.9-480.8h-7.5c-0.3,0-0.5-0.2-0.5-0.5c0-0.3,0.2-0.5,0.5-0.5h7.5c0.3,0,0.5,0.2,0.5,0.5
				C-712.4-481-712.6-480.8-712.9-480.8z"/>
		</g>
		<g>
			<path class="st2" d="M-712.9-478.1h-7.5c-0.3,0-0.5-0.2-0.5-0.5c0-0.3,0.2-0.5,0.5-0.5h7.5c0.3,0,0.5,0.2,0.5,0.5
				C-712.4-478.3-712.6-478.1-712.9-478.1z"/>
		</g>
		<g>
			<path class="st2" d="M-712.9-483.5h-7.5c-0.3,0-0.5-0.2-0.5-0.5c0-0.3,0.2-0.5,0.5-0.5h7.5c0.3,0,0.5,0.2,0.5,0.5
				C-712.4-483.7-712.6-483.5-712.9-483.5z"/>
		</g>
		<g>
			<path class="st2" d="M-712.9-486.2h-7.5c-0.3,0-0.5-0.2-0.5-0.5c0-0.3,0.2-0.5,0.5-0.5h7.5c0.3,0,0.5,0.2,0.5,0.5
				C-712.4-486.4-712.6-486.2-712.9-486.2z"/>
		</g>
	</g>
</g>
<g>
	<g>
		<g>
			<g>
				<g>
					<path class="st0" d="M-709.4-421.1c0.8,0,1.5-0.3,2.1-0.9c0.6-0.6,0.9-1.3,0.9-2.1s-0.3-1.5-0.9-2.1c-0.6-0.6-1.3-0.9-2.1-0.9
						c-0.8,0-1.5,0.3-2.1,0.9c-0.6,0.6-0.9,1.3-0.9,2.1s0.3,1.5,0.9,2.1C-710.9-421.4-710.2-421.1-709.4-421.1z"/>
				</g>
				<g>
					<path class="st0" d="M-713.4-415.9c1.2-1.2,1.2-3,0-4.1l0,0c-1.2-1.2-3-1.2-4.2,0l0,0c-1.2,1.2-1.2,3,0,4.1l0,0
						c0.6,0.6,1.3,0.9,2.1,0.9l0,0C-714.7-415.1-714-415.4-713.4-415.9z"/>
				</g>
			</g>
			<g>
				<g>
					<path class="st0" d="M-709.4-396.9c0.8,0,1.5-0.3,2.1-0.9c0.6-0.6,0.9-1.3,0.9-2.1s-0.3-1.5-0.9-2.1c-0.6-0.6-1.3-0.9-2.1-0.9
						c-0.8,0-1.5,0.3-2.1,0.9c-0.6,0.6-0.9,1.3-0.9,2.1s0.3,1.5,0.9,2.1C-710.9-397.2-710.2-396.9-709.4-396.9z"/>
				</g>
				<g>
					<path class="st0" d="M-713.4-404c1.2-1.2,1.2-3,0-4.1l0,0c-1.2-1.2-3-1.2-4.2,0l0,0c-1.2,1.2-1.2,3,0,4.1l0,0
						c0.6,0.6,1.3,0.9,2.1,0.9l0,0C-714.7-403.2-714-403.5-713.4-404z"/>
				</g>
			</g>
		</g>
		<g>
			<g>
				<g>
					<path class="st0" d="M-733.5-402.8c-0.8,0-1.5,0.3-2.1,0.9c-0.6,0.6-0.9,1.3-0.9,2.1s0.3,1.5,0.9,2.1c0.6,0.6,1.3,0.9,2.1,0.9
						s1.5-0.3,2.1-0.9c0.6-0.6,0.9-1.3,0.9-2.1s-0.3-1.5-0.9-2.1C-731.9-402.5-732.7-402.8-733.5-402.8z"/>
				</g>
				<g>
					<path class="st0" d="M-729.4-407.9c-1.2,1.2-1.2,3,0,4.1l0,0c1.2,1.2,3,1.2,4.2,0l0,0c1.2-1.2,1.2-3,0-4.1l0,0
						c-0.6-0.6-1.3-0.9-2.1-0.9l0,0C-728.1-408.8-728.9-408.5-729.4-407.9z"/>
				</g>
			</g>
			<g>
				<g>
					<path class="st0" d="M-733.5-426.9c-0.8,0-1.5,0.3-2.1,0.9c-0.6,0.6-0.9,1.3-0.9,2.1s0.3,1.5,0.9,2.1c0.6,0.6,1.3,0.9,2.1,0.9
						s1.5-0.3,2.1-0.9c0.6-0.6,0.9-1.3,0.9-2.1s-0.3-1.5-0.9-2.1C-731.9-426.6-732.7-426.9-733.5-426.9z"/>
				</g>
				<g>
					<path class="st0" d="M-729.4-419.8c-1.2,1.2-1.2,3,0,4.1l0,0c1.2,1.2,3,1.2,4.2,0l0,0c1.2-1.2,1.2-3,0-4.1l0,0
						c-0.6-0.6-1.3-0.9-2.1-0.9l0,0C-728.1-420.7-728.9-420.4-729.4-419.8z"/>
				</g>
			</g>
		</g>
	</g>
	<g>
		<path class="st0" d="M-721.4-409c0.8,0,1.5-0.3,2.1-0.9c0.6-0.6,0.9-1.3,0.9-2.1c0-0.8-0.3-1.5-0.9-2.1c-0.6-0.6-1.3-0.9-2.1-0.9
			s-1.5,0.3-2.1,0.9s-0.9,1.3-0.9,2.1c0,0.8,0.3,1.5,0.9,2.1C-723-409.3-722.2-409-721.4-409z"/>
	</g>
</g>
<g>
	<circle class="st6" cx="-717" cy="-328.4" r="20"/>
	<path class="st2" d="M-709.4-319.3h-5.2c-0.3,0-0.9,0.5-0.9,0.2v-5.2h-3v5.2c0,0.3-0.8-0.2-1.1-0.2h-5.2c-0.3,0-0.7,0.5-0.7,0.2
		v-10.2h-1.7c-0.2,0-0.4-0.1-0.5-0.3c-0.1-0.2,0-0.4,0.2-0.5l10.2-8.1c0.2-0.1,0.4-0.1,0.6,0l10.2,8.1c0.2,0.1,0.2,0.3,0.2,0.5
		c-0.1,0.2-0.3,0.3-0.5,0.3h-1.8v10.2C-708.5-318.8-709.1-319.3-709.4-319.3z M-713.5-319.3h3v-10.4c0-0.3,0.8-0.6,1.1-0.6h1.2
		l-8.8-6.9l-8.8,6.9h1c0.3,0,0.3,0.3,0.3,0.6v10.4h4v-5.4c0-0.3,0.6-0.6,0.9-0.6h5c0.3,0,1.1,0.3,1.1,0.6V-319.3z"/>
</g>
<g>
	<circle class="st0" cx="-716.9" cy="-171.3" r="20"/>
	<path class="st2" d="M-711.6-163.6c-0.1,0-0.3,0-0.4-0.1l-5-5l-5,5c-0.2,0.2-0.5,0.2-0.7,0l-1.7-1.7c-0.2-0.2-0.2-0.5,0-0.7l5-5
		l-5-5c-0.2-0.2-0.2-0.5,0-0.7l1.7-1.7c0.2-0.2,0.5-0.2,0.7,0l5,5l5-5c0.2-0.2,0.5-0.2,0.7,0l1.7,1.7c0.1,0.1,0.1,0.2,0.1,0.4
		c0,0.1-0.1,0.3-0.1,0.4l-5,5l5,5c0.1,0.1,0.1,0.2,0.1,0.4s-0.1,0.3-0.1,0.4l-1.7,1.7C-711.3-163.7-711.4-163.6-711.6-163.6z"/>
</g>
<g>
	<circle class="st0" cx="-716.7" cy="-251" r="20"/>
	<g>
		<path class="st2" d="M-707.9-255.5h-17.6c-0.3,0-0.5-0.2-0.5-0.5v-2.4c0-0.3,0.2-0.5,0.5-0.5h17.6c0.3,0,0.5,0.2,0.5,0.5v2.4
			C-707.4-255.7-707.6-255.5-707.9-255.5z"/>
		<path class="st2" d="M-707.9-250h-17.6c-0.3,0-0.5-0.2-0.5-0.5v-2.4c0-0.3,0.2-0.5,0.5-0.5h17.6c0.3,0,0.5,0.2,0.5,0.5v2.4
			C-707.4-250.3-707.6-250-707.9-250z"/>
		<path class="st2" d="M-707.9-244.6h-17.6c-0.3,0-0.5-0.2-0.5-0.5v-2.4c0-0.3,0.2-0.5,0.5-0.5h17.6c0.3,0,0.5,0.2,0.5,0.5v2.4
			C-707.4-244.8-707.6-244.6-707.9-244.6z"/>
	</g>
</g>
<g>
	<circle class="st6" cx="-717" cy="-94.8" r="20"/>
	<g>
		<path class="st2" d="M-708.2-86.1h-17.6c-0.3,0-0.5-0.2-0.5-0.5v-2.4c0-0.3,0.2-0.5,0.5-0.5h17.6c0.3,0,0.5,0.2,0.5,0.5v2.4
			C-707.7-86.4-707.9-86.1-708.2-86.1z M-725.3-87.1h16.6v-1.4h-16.6V-87.1z"/>
		<path class="st2" d="M-708.2-91.6h-17.2c-0.2,0-0.4-0.1-0.4-0.3c-0.1-0.2-0.1-0.4,0-0.5l8.6-11.6c0.1-0.1,0.2-0.2,0.4-0.2
			s0.3,0.1,0.4,0.2l8.6,11.6c0.1,0.2,0.1,0.4,0,0.5C-707.8-91.7-708-91.6-708.2-91.6z M-724.4-92.6h15.2l-7.6-10.3L-724.4-92.6z"/>
	</g>
</g>
<g>
	<g>
		<g>
			<g>
				<path class="st10" d="M374.7-387.2c-2.5,0-4.9,1-6.7,2.7c-1.8,1.8-2.7,4.1-2.7,6.6s1,4.8,2.7,6.6c1.8,1.8,4.2,2.7,6.7,2.7
					c2.5,0,4.9-1,6.7-2.7c1.8-1.8,2.7-4.1,2.7-6.6s-1-4.8-2.7-6.6C379.6-386.2,377.1-387.2,374.7-387.2z"/>
			</g>
			<g>
				<path class="st10" d="M387.6-403.8c-3.7,3.7-3.7,9.6,0,13.2l0,0c3.7,3.7,9.7,3.7,13.3,0l0,0c3.7-3.7,3.7-9.6,0-13.2l0,0
					c-1.8-1.8-4.2-2.7-6.7-2.7l0,0C391.8-406.5,389.3-405.5,387.6-403.8z"/>
			</g>
		</g>
		<g>
			<g>
				<path class="st10" d="M374.7-464.5c-2.5,0-4.9,1-6.7,2.7c-1.8,1.8-2.7,4.1-2.7,6.6s1,4.8,2.7,6.6c1.8,1.8,4.2,2.7,6.7,2.7
					c2.5,0,4.9-1,6.7-2.7c1.8-1.8,2.7-4.1,2.7-6.6s-1-4.8-2.7-6.6C379.6-463.5,377.1-464.5,374.7-464.5z"/>
			</g>
			<g>
				<path class="st10" d="M387.6-441.7c-3.7,3.7-3.7,9.6,0,13.2l0,0c3.7,3.7,9.7,3.7,13.3,0l0,0c3.7-3.7,3.7-9.6,0-13.2l0,0
					c-1.8-1.8-4.2-2.7-6.7-2.7l0,0C391.8-444.5,389.3-443.5,387.6-441.7z"/>
			</g>
		</g>
	</g>
	<g>
		<path class="st10" d="M413.2-407.2c2.5,0,4.9-1,6.7-2.7c1.8-1.8,2.7-4.1,2.7-6.6c0-2.5-1-4.8-2.7-6.6c-1.8-1.8-4.2-2.7-6.7-2.7
			s-4.9,1-6.7,2.7c-1.8,1.8-2.7,4.1-2.7,6.6c0,2.5,1,4.8,2.7,6.6C408.3-408.1,410.7-407.2,413.2-407.2z"/>
	</g>
	<g>
		<path class="st10" d="M375.3-407.2c2.5,0,4.9-1,6.7-2.7c1.8-1.8,2.7-4.1,2.7-6.6c0-2.5-1-4.8-2.7-6.6c-1.8-1.8-4.2-2.7-6.7-2.7
			s-4.9,1-6.7,2.7c-1.8,1.8-2.7,4.1-2.7,6.6c0,2.5,1,4.8,2.7,6.6C370.4-408.1,372.9-407.2,375.3-407.2z"/>
	</g>
	<g>
		<path class="st10" d="M350.1-407.2c2.5,0,4.9-1,6.7-2.7c1.8-1.8,2.7-4.1,2.7-6.6c0-2.5-1-4.8-2.7-6.6c-1.8-1.8-4.2-2.7-6.7-2.7
			s-4.9,1-6.7,2.7c-1.8,1.8-2.7,4.1-2.7,6.6c0,2.5,1,4.8,2.7,6.6C345.2-408.1,347.6-407.2,350.1-407.2z"/>
	</g>
	<g>
		<path class="st10" d="M324.9-407.2c2.5,0,4.9-1,6.7-2.7c1.8-1.8,2.7-4.1,2.7-6.6c0-2.5-1-4.8-2.7-6.6c-1.8-1.8-4.2-2.7-6.7-2.7
			s-4.9,1-6.7,2.7c-1.8,1.8-2.7,4.1-2.7,6.6c0,2.5,1,4.8,2.7,6.6C319.9-408.1,322.4-407.2,324.9-407.2z"/>
	</g>
</g>
<g>
	<g>
		<g>
			<g>
				<path class="st2" d="M664-387.2c-2.5,0-4.9,1-6.7,2.7s-2.7,4.1-2.7,6.6s1,4.8,2.7,6.6c1.8,1.8,4.2,2.7,6.7,2.7
					c2.5,0,4.9-1,6.7-2.7c1.8-1.8,2.7-4.1,2.7-6.6s-1-4.8-2.7-6.6S666.5-387.2,664-387.2z"/>
			</g>
			<g>
				<path class="st2" d="M676.9-403.8c-3.7,3.7-3.7,9.6,0,13.2l0,0c3.7,3.7,9.7,3.7,13.3,0l0,0c3.7-3.7,3.7-9.6,0-13.2l0,0
					c-1.8-1.8-4.2-2.7-6.7-2.7l0,0C681.1-406.5,678.7-405.5,676.9-403.8z"/>
			</g>
		</g>
		<g>
			<g>
				<path class="st2" d="M664-464.5c-2.5,0-4.9,1-6.7,2.7c-1.8,1.8-2.7,4.1-2.7,6.6s1,4.8,2.7,6.6s4.2,2.7,6.7,2.7
					c2.5,0,4.9-1,6.7-2.7s2.7-4.1,2.7-6.6s-1-4.8-2.7-6.6C668.9-463.5,666.5-464.5,664-464.5z"/>
			</g>
			<g>
				<path class="st2" d="M676.9-441.7c-3.7,3.7-3.7,9.6,0,13.2l0,0c3.7,3.7,9.7,3.7,13.3,0l0,0c3.7-3.7,3.7-9.6,0-13.2l0,0
					c-1.8-1.8-4.2-2.7-6.7-2.7l0,0C681.1-444.5,678.7-443.5,676.9-441.7z"/>
			</g>
		</g>
	</g>
	<g>
		<path class="st2" d="M702.5-407.2c2.5,0,4.9-1,6.7-2.7c1.8-1.8,2.7-4.1,2.7-6.6c0-2.5-1-4.8-2.7-6.6c-1.8-1.8-4.2-2.7-6.7-2.7
			c-2.5,0-4.9,1-6.7,2.7c-1.8,1.8-2.7,4.1-2.7,6.6c0,2.5,1,4.8,2.7,6.6C697.6-408.1,700.1-407.2,702.5-407.2z"/>
	</g>
	<g>
		<path class="st2" d="M664.7-407.2c2.5,0,4.9-1,6.7-2.7c1.8-1.8,2.7-4.1,2.7-6.6c0-2.5-1-4.8-2.7-6.6c-1.8-1.8-4.2-2.7-6.7-2.7
			c-2.5,0-4.9,1-6.7,2.7c-1.8,1.8-2.7,4.1-2.7,6.6c0,2.5,1,4.8,2.7,6.6C659.7-408.1,662.2-407.2,664.7-407.2z"/>
	</g>
	<g>
		<path class="st2" d="M639.4-407.2c2.5,0,4.9-1,6.7-2.7c1.8-1.8,2.7-4.1,2.7-6.6c0-2.5-1-4.8-2.7-6.6c-1.8-1.8-4.2-2.7-6.7-2.7
			c-2.5,0-4.9,1-6.7,2.7c-1.8,1.8-2.7,4.1-2.7,6.6c0,2.5,1,4.8,2.7,6.6C634.5-408.1,637-407.2,639.4-407.2z"/>
	</g>
	<g>
		<path class="st2" d="M614.2-407.2c2.5,0,4.9-1,6.7-2.7c1.8-1.8,2.7-4.1,2.7-6.6c0-2.5-1-4.8-2.7-6.6c-1.8-1.8-4.2-2.7-6.7-2.7
			c-2.5,0-4.9,1-6.7,2.7c-1.8,1.8-2.7,4.1-2.7,6.6c0,2.5,1,4.8,2.7,6.6C609.3-408.1,611.7-407.2,614.2-407.2z"/>
	</g>
</g>
<g>
	<g>
		<polygon class="st7" points="-592.8,118.8 -592.8,118.8 -586.9,109.6 		"/>
		<path class="st7" d="M-564.1,118.8L-564.1,118.8l-8.2,25.8l-3.7-16l2.5-7.4h-11.6l2.5,7.4l-3.7,16.3l-8.3-25.9l-0.6-0.1
			c0,0-21.8-0.1-21.8,10.3c0,11.4,0,25,0,25h74c0,0,0-13.6,0-25C-543,118.8-564.1,118.8-564.1,118.8z"/>
		<polygon class="st7" points="-571.7,109.6 -565.9,118.8 -565.9,118.8 		"/>
	</g>
	<path class="st7" d="M-579.5,59.8c17.5,0,20.4,14.2,20.7,20.7c0.2,5.5-1,12.6-6.4,21.9c-5.4,9.3-9.8,7.8-9.8,7.8h-9
		c0,0-4.4,1.6-9.8-7.7c-5.4-9.3-6.6-16.7-6.4-22.2c0.3-6.5,3.2-18.6,20.7-18.6L-579.5,59.8z"/>
	<polyline class="st7" points="-541,68.9 -535.4,77.2 -524.4,58.4 	"/>
	<path class="st7" d="M-556.7,57.7c0-5.4,4.4-9.8,9.8-9.8h28.1c5.4,0,9.8,4.4,9.8,9.8v21.4c0,5.4-4.4,9.8-9.8,9.8H-542l-9.2,11.8"/>
</g>
<circle class="st6" cx="-321" cy="100" r="100"/>
<g>
	<polyline class="st7" points="-336.9,105.8 -363.4,79.3 -336.9,52.8 	"/>
	<path class="st7" d="M-312.5,147.2c18.7,0,33.9-15.2,33.9-33.9s-15.2-33.9-33.9-33.9h-50.9"/>
</g>
<circle class="st11" cx="100" cy="100" r="100"/>
<circle class="st6" cx="100" cy="345.1" r="100"/>
<circle class="st6" cx="-312.1" cy="344.1" r="100"/>
<g>
	<circle class="st6" cx="-557" cy="345.1" r="100"/>
	<g>
		<path class="st7" d="M-564.4,373.7l13.7-17.5h42.4c8,0,14.5-6.5,14.5-14.5V310c0-8-6.5-14.5-14.5-14.5H-550
			c-8,0-14.5,6.5-14.5,14.5v20.3"/>
		<path class="st7" d="M-574.5,351.6c0-5.4-4.4-9.8-9.8-9.8h-28.1c-5.4,0-9.8,4.4-9.8,9.8V373c0,5.4,4.4,9.8,9.8,9.8h28.6l9.2,11.8"
			/>
		<circle class="st7" cx="-607.5" cy="362.8" r="0.5"/>
		<circle class="st7" cx="-597.5" cy="362.8" r="0.5"/>
		<circle class="st7" cx="-587.4" cy="362.8" r="0.5"/>
		<circle class="st7" cx="-529.3" cy="343.9" r="0.5"/>
		<path class="st7" d="M-529.3,334.3c0-4.8,8.8-7,8.8-15.3c0-4.8-3.9-8.8-8.8-8.8c-4.8,0-8.8,3.9-8.8,8.8"/>
	</g>
</g>
<g>
	<path class="st7" d="M-320.9,354.6c12.7,12.7,29.7,23.5,35.4,17.9c5.4-5.4,6.3-10.6,6.3-10.6l-16.6-6.1l-3,6c0,0-11.1-9.6-15.5-14
		c-4.3-4.3-13.9-15.4-13.9-15.4l6-2.9l-6.1-16.6c0,0-5.1,0.8-10.5,6.2C-344.4,324.8-333.6,341.8-320.9,354.6
		C-320.9,354.5-320.9,354.5-320.9,354.6z"/>
	<path class="st7" d="M-312.1,396.8c-29.1,0-52.7-23.6-52.7-52.7c0-29.1,23.6-52.7,52.7-52.7c29.1,0,52.7,23.6,52.7,52.7
		c0,14.7-10,41.8-36.9,28.5"/>
	<path class="st7" d="M-312.1,309.7c19,0,34.4,15.4,34.4,34.4"/>
	<path class="st7" d="M-312.1,319.7c13.5,0,24.5,11,24.5,24.5"/>
</g>
<path class="st7" d="M91.4,99l-27,30.1l-28.4-30L54.2,99c0-27.1,22-49.2,49.1-49.2c27.1,0,49.1,22,49.1,49.1s-22,49.1-49.1,49.1
	c-10.7,0-20.6-3.4-28.7-9.3l12-13.4c4.8,3.1,10.6,4.8,16.7,4.8c17.3,0,31.3-14,31.3-31.3c0-17.3-14-31.3-31.3-31.3
	C86,67.6,72,81.7,72,99L91.4,99z"/>
<polygon class="st7" points="85.9,388.7 86,408.1 56,381.2 86.1,352.9 86.2,371.2 141,371.2 141,388.7 "/>
<polygon class="st7" points="85.9,318.7 86,338.1 56,311.2 86.1,282.9 86.2,301.2 141,301.2 141,318.7 "/>
<circle class="st6" cx="341" cy="345.1" r="100"/>
<polygon class="st7" points="315.9,352.7 316,372.1 286,345.2 316.1,316.9 316.2,335.2 391,335.2 391,352.7 "/>
<circle class="st6" cx="582" cy="345.1" r="100"/>
<polygon class="st7" points="607,337.4 607,318 637,345 606.9,373.4 606.8,355.2 532,355.2 532,337.5 "/>
</svg>
