<?xml version="1.0" encoding="utf-8"?>
<!-- Generator: Adobe Illustrator 19.1.0, SVG Export Plug-In . SVG Version: 6.00 Build 0)  -->
<svg version="1.1" id="Layer_1" xmlns="http://www.w3.org/2000/svg" xmlns:xlink="http://www.w3.org/1999/xlink" x="0px" y="0px"
	 viewBox="188.2 -46 373.2 485.8" style="enable-background:new 188.2 -46 373.2 485.8;" xml:space="preserve">
<style type="text/css">
	.st0{fill:#FFFFFF;}
	.st1{fill:#0083C1;}
	.st2{enable-background:new    ;}
</style>
<polygon class="st0" points="447.9,-28.9 200.9,-28.9 200.9,438.3 561.1,438.3 561.1,84.4 "/>
<path class="st1" d="M447.9-28.9h-247V439h360.2V84.4L447.9-28.9z M452.7,1.2l77.6,77.6h-77.6V1.2z M219.1,420.8V-10.6h216.1V97.1
	h107.7v323.8L219.1,420.8L219.1,420.8z"/>
<path class="st1" d="M277.7,376.5L277.7,376.5c-4,0-7.1-1.6-10.3-3.2c-11.1-8.7-12.7-17.4-11.9-23.8c1.6-17.4,23.8-35.6,64.1-53.8
	c15.8-34.8,31.7-78.4,40.4-114.8c-10.3-23-21.4-53-13.5-71.3c2.4-6.3,7.1-10.3,13.5-12.7c2.4-0.8,4.8-1.6,7.1-1.6
	c5.5,0,10.3,2.4,13.5,6.3c3.2,4,12.7,15.8-1.6,76c14.3,30.1,34.8,60.2,54.6,80.8c14.3-2.4,26.1-4,35.6-4c16.6,0,26.9,4,30.9,11.9
	c3.2,6.3,2.4,14.3-4,23c-6.3,8.7-14.3,12.7-23.8,12.7c-12.7,0-28.5-7.9-45.1-24.5c-30.1,6.3-65.7,17.4-94.2,30.1
	c-8.7,19-17.4,34-25.3,45.1C296.7,368.6,287.2,376.5,277.7,376.5z M306.2,321.1c-23,12.7-32.5,23.8-32.5,29.3c0,0.8-0.8,4,4.8,7.1
	C280.1,357.5,288.8,353.5,306.2,321.1z M450.3,274.4c8.7,6.3,16.6,10.3,22.2,10.3c2.4,0,5.5-0.8,8.7-5.5c1.6-2.4,2.4-4,2.4-4.8
	c-1.6-0.8-5.5-2.4-15-2.4C463.7,272.8,457.4,272.8,450.3,274.4z M371.9,203.1c-7.9,26.1-17.4,54.6-28.5,80.8
	c22.2-8.7,46.7-16.6,69.7-21.4C398.8,245.9,384.6,225.3,371.9,203.1z M367.1,112.9h-0.8c-0.8,0-1.6,0.8-2.4,2.4
	c-2.4,6.3-0.8,19,4,31.7C370.3,124.7,368.7,115.2,367.1,112.9z"/>
<rect x="188.2" y="-46.3" class="st1" width="207.4" height="97.4"/>
<g class="st2">
	<path class="st0" d="M205.3,33.4v-59.9c0-2.5,1.3-3.8,3.8-3.8h20c7.4,0,13.1,1.8,17.2,5.5c1.5,1.5,2.8,3.5,3.8,6.1s1.6,5.7,1.6,9.2
		s-0.6,6.5-1.8,9.2c-1.2,2.6-2.6,4.7-4.3,6.1c-1.7,1.4-3.6,2.6-5.7,3.5c-3.4,1.4-6.6,2.1-9.8,2.1H220v22c0,2-1.9,3-5.7,3H211
		C207.2,36.4,205.3,35.4,205.3,33.4z M219.9-1.2h8.5c2.3,0,4.2-0.6,5.8-1.8s2.4-3.4,2.4-6.5s-0.8-5.3-2.4-6.5s-3.6-1.9-5.8-1.9h-8.5
		V-1.2z"/>
	<path class="st0" d="M259.4,32.4v-58.9c0-2.5,1.3-3.8,3.8-3.8h21.3c9.8,0,17.3,2.9,22.6,8.6c5.2,5.7,7.8,14,7.8,24.7
		s-2.6,18.9-7.8,24.7s-12.7,8.6-22.6,8.6h-21.3C260.7,36.2,259.4,34.9,259.4,32.4z M274.1,23.8h10.4c5.1,0,8.9-1.8,11.5-5.3
		s3.9-8.7,3.9-15.5s-1.3-11.9-3.9-15.5c-2.6-3.5-6.4-5.3-11.5-5.3h-10.4V23.8z"/>
	<path class="st0" d="M325.4,33.4v-59.9c0-2.5,1.3-3.8,3.8-3.8H361c1.9,0,2.9,1.6,2.9,4.8v2.9c0,3.2-1,4.8-2.9,4.8h-20.9v13.9h20.2
		c1.9,0,2.9,1.6,2.9,4.8v2.9c0,3.2-1,4.8-2.9,4.8h-20.2v24.9c0,2-1.9,3-5.7,3h-3.2C327.3,36.4,325.4,35.4,325.4,33.4z"/>
</g>
</svg>
