<?xml version="1.0" encoding="utf-8"?>
<!-- Generator: Adobe Illustrator 19.1.0, SVG Export Plug-In . SVG Version: 6.00 Build 0)  -->
<svg version="1.1" id="Layer_1" xmlns="http://www.w3.org/2000/svg" xmlns:xlink="http://www.w3.org/1999/xlink" x="0px" y="0px"
	 viewBox="0 0 200 200" style="enable-background:new 0 0 200 200;" xml:space="preserve">
<style type="text/css">
	.st0{fill:#CCCCCC;}
	.st1{filter:url(#Adobe_OpacityMaskFilter);}
	.st2{fill:#FFFFFF;}
	.st3{mask:url(#SVGID_1_);}
	.st4{fill:none;stroke:#000000;stroke-miterlimit:10;}
	.st5{fill:#F7F7F7;}
	.st6{fill:#CD153E;}
	.st7{fill:none;stroke:#FFFFFF;stroke-width:5;stroke-linecap:round;stroke-linejoin:round;stroke-miterlimit:10;}
	.st8{fill:#F89C24;}
	.st9{opacity:0.5;fill:#0083C1;}
	.st10{fill:#0083C1;}
	.st11{display:none;fill:#CD153E;}
</style>
<circle class="st0" cx="-113" cy="-661.6" r="100"/>
<defs>
	<filter id="Adobe_OpacityMaskFilter" filterUnits="userSpaceOnUse" x="-3887.4" y="-3546.5" width="2554" height="6377">
		<feColorMatrix  type="matrix" values="1 0 0 0 0  0 1 0 0 0  0 0 1 0 0  0 0 0 1 0"/>
	</filter>
</defs>
<mask maskUnits="userSpaceOnUse" x="-3887.4" y="-3546.5" width="2554" height="6377" id="SVGID_1_">
	<g class="st1">
		<g>
			<path class="st2" d="M-2540.3-1135c-451.5,0-817.5,347.9-817.5,777c0,429.1,366,777,817.5,777c451.4,0,817.4-347.9,817.4-777
				C-1722.9-787.1-2088.9-1135-2540.3-1135 M-2374.3,320.1c-319.2,86.7-665.8-134.1-766.5-517.7c-85.3-324.7,86.9-757.8,412.7-846.3
				c319.2-86.7,665.7,143.2,766.5,526.7C-1860.8-133.6-2055.1,233.4-2374.3,320.1z"/>
		</g>
	</g>
</mask>
<g class="st3">
	<line class="st4" x1="-1333.8" y1="-1644.6" x2="-3887" y2="908.6"/>
	<line class="st4" x1="-1333.8" y1="-1664.6" x2="-3887" y2="888.6"/>
	<line class="st4" x1="-1333.8" y1="-1684.6" x2="-3887" y2="868.6"/>
	<line class="st4" x1="-1333.8" y1="-1704.7" x2="-3887" y2="848.6"/>
	<line class="st4" x1="-1333.8" y1="-1724.7" x2="-3887" y2="828.6"/>
	<line class="st4" x1="-1333.8" y1="-1744.7" x2="-3887" y2="808.6"/>
	<line class="st4" x1="-1333.8" y1="-1764.7" x2="-3887" y2="788.5"/>
	<line class="st4" x1="-1333.8" y1="-1784.7" x2="-3887" y2="768.5"/>
	<line class="st4" x1="-1333.8" y1="-1804.7" x2="-3887" y2="748.5"/>
	<line class="st4" x1="-1333.8" y1="-1824.8" x2="-3887" y2="728.5"/>
	<line class="st4" x1="-1333.8" y1="-1844.8" x2="-3887" y2="708.5"/>
	<line class="st4" x1="-1333.8" y1="-1864.8" x2="-3887" y2="688.5"/>
	<line class="st4" x1="-1333.8" y1="-1884.8" x2="-3887" y2="668.5"/>
	<line class="st4" x1="-1333.8" y1="-1904.8" x2="-3887" y2="648.4"/>
	<line class="st4" x1="-1333.8" y1="-1924.8" x2="-3887" y2="628.4"/>
	<line class="st4" x1="-1333.8" y1="-1944.9" x2="-3887" y2="608.4"/>
	<line class="st4" x1="-1333.8" y1="-1964.9" x2="-3887" y2="588.4"/>
	<line class="st4" x1="-1333.8" y1="-1984.9" x2="-3887" y2="568.4"/>
	<line class="st4" x1="-1333.8" y1="-2004.9" x2="-3887" y2="548.4"/>
	<line class="st4" x1="-1333.8" y1="-2024.9" x2="-3887" y2="528.3"/>
	<line class="st4" x1="-1333.8" y1="-2044.9" x2="-3887" y2="508.3"/>
	<line class="st4" x1="-1333.8" y1="-2064.9" x2="-3887" y2="488.3"/>
	<line class="st4" x1="-1333.8" y1="-2085" x2="-3887" y2="468.3"/>
	<line class="st4" x1="-1333.8" y1="-2105" x2="-3887" y2="448.3"/>
	<line class="st4" x1="-1333.8" y1="-2125" x2="-3887" y2="428.3"/>
	<line class="st4" x1="-1333.8" y1="-2145" x2="-3887" y2="408.2"/>
	<line class="st4" x1="-1333.8" y1="-2165" x2="-3887" y2="388.2"/>
	<line class="st4" x1="-1333.8" y1="-2185" x2="-3887" y2="368.2"/>
	<line class="st4" x1="-1333.8" y1="-2205.1" x2="-3887" y2="348.2"/>
	<line class="st4" x1="-1333.8" y1="-2225.1" x2="-3887" y2="328.2"/>
	<line class="st4" x1="-1333.8" y1="-2245.1" x2="-3887" y2="308.2"/>
	<line class="st4" x1="-1333.8" y1="-2265.1" x2="-3887" y2="288.1"/>
	<line class="st4" x1="-1333.8" y1="-2285.1" x2="-3887" y2="268.1"/>
	<line class="st4" x1="-1333.8" y1="-2305.1" x2="-3887" y2="248.1"/>
	<line class="st4" x1="-1333.8" y1="-2325.2" x2="-3887" y2="228.1"/>
	<line class="st4" x1="-1333.8" y1="-2345.2" x2="-3887" y2="208.1"/>
	<line class="st4" x1="-1333.8" y1="-2365.2" x2="-3887" y2="188.1"/>
	<line class="st4" x1="-1333.8" y1="-2385.2" x2="-3887" y2="168.1"/>
	<line class="st4" x1="-1333.8" y1="-2405.2" x2="-3887" y2="148"/>
	<line class="st4" x1="-1333.8" y1="-2425.2" x2="-3887" y2="128"/>
	<line class="st4" x1="-1333.8" y1="-2445.3" x2="-3887" y2="108"/>
	<line class="st4" x1="-1333.8" y1="-2465.3" x2="-3887" y2="88"/>
	<line class="st4" x1="-1333.8" y1="-2485.3" x2="-3887" y2="68"/>
	<line class="st4" x1="-1333.8" y1="-2505.3" x2="-3887" y2="48"/>
	<line class="st4" x1="-1333.8" y1="-2525.3" x2="-3887" y2="27.9"/>
	<line class="st4" x1="-1333.8" y1="-2545.3" x2="-3887" y2="7.9"/>
	<line class="st4" x1="-1333.8" y1="-2565.3" x2="-3887" y2="-12.1"/>
	<line class="st4" x1="-1333.8" y1="-2585.4" x2="-3887" y2="-32.1"/>
	<line class="st4" x1="-1333.8" y1="-2605.4" x2="-3887" y2="-52.1"/>
	<line class="st4" x1="-1333.8" y1="-2625.4" x2="-3887" y2="-72.1"/>
	<line class="st4" x1="-1333.8" y1="-2645.4" x2="-3887" y2="-92.2"/>
	<line class="st4" x1="-1333.8" y1="-2665.4" x2="-3887" y2="-112.2"/>
	<line class="st4" x1="-1333.8" y1="-2685.4" x2="-3887" y2="-132.2"/>
	<line class="st4" x1="-1333.8" y1="-2705.5" x2="-3887" y2="-152.2"/>
	<line class="st4" x1="-1333.8" y1="-2725.5" x2="-3887" y2="-172.2"/>
	<line class="st4" x1="-1333.8" y1="-2745.5" x2="-3887" y2="-192.2"/>
	<line class="st4" x1="-1333.8" y1="-2765.5" x2="-3887" y2="-212.3"/>
	<line class="st4" x1="-1333.8" y1="-2785.5" x2="-3887" y2="-232.3"/>
	<line class="st4" x1="-1333.8" y1="-2805.5" x2="-3887" y2="-252.3"/>
	<line class="st4" x1="-1333.8" y1="-2825.6" x2="-3887" y2="-272.3"/>
	<line class="st4" x1="-1333.8" y1="-2845.6" x2="-3887" y2="-292.3"/>
	<line class="st4" x1="-1333.8" y1="-2865.6" x2="-3887" y2="-312.3"/>
	<line class="st4" x1="-1333.8" y1="-2885.6" x2="-3887" y2="-332.3"/>
	<line class="st4" x1="-1333.8" y1="-2905.6" x2="-3887" y2="-352.4"/>
	<line class="st4" x1="-1333.8" y1="-2925.6" x2="-3887" y2="-372.4"/>
	<line class="st4" x1="-1333.8" y1="-2945.7" x2="-3887" y2="-392.4"/>
	<line class="st4" x1="-1333.8" y1="-2965.7" x2="-3887" y2="-412.4"/>
	<line class="st4" x1="-1333.8" y1="-2985.7" x2="-3887" y2="-432.4"/>
	<line class="st4" x1="-1333.8" y1="-3005.7" x2="-3887" y2="-452.4"/>
	<line class="st4" x1="-1333.8" y1="-3025.7" x2="-3887" y2="-472.5"/>
	<line class="st4" x1="-1333.8" y1="-3045.7" x2="-3887" y2="-492.5"/>
	<line class="st4" x1="-1333.8" y1="-3065.7" x2="-3887" y2="-512.5"/>
	<line class="st4" x1="-1333.8" y1="-3085.8" x2="-3887" y2="-532.5"/>
	<line class="st4" x1="-1333.8" y1="-3105.8" x2="-3887" y2="-552.5"/>
	<line class="st4" x1="-1333.8" y1="-3125.8" x2="-3887" y2="-572.5"/>
	<line class="st4" x1="-1333.8" y1="-3145.8" x2="-3887" y2="-592.6"/>
	<line class="st4" x1="-1333.8" y1="-3165.8" x2="-3887" y2="-612.6"/>
	<line class="st4" x1="-1333.8" y1="-3185.8" x2="-3887" y2="-632.6"/>
	<line class="st4" x1="-1333.8" y1="-3205.9" x2="-3887" y2="-652.6"/>
	<line class="st4" x1="-1333.8" y1="-3225.9" x2="-3887" y2="-672.6"/>
	<line class="st4" x1="-1333.8" y1="-3245.9" x2="-3887" y2="-692.6"/>
	<line class="st4" x1="-1333.8" y1="-3265.9" x2="-3887" y2="-712.7"/>
	<line class="st4" x1="-1333.8" y1="-3285.9" x2="-3887" y2="-732.7"/>
	<line class="st4" x1="-1333.8" y1="-3305.9" x2="-3887" y2="-752.7"/>
	<line class="st4" x1="-1333.8" y1="-3326" x2="-3887" y2="-772.7"/>
	<line class="st4" x1="-1333.8" y1="-3346" x2="-3887" y2="-792.7"/>
	<line class="st4" x1="-1333.8" y1="-3366" x2="-3887" y2="-812.7"/>
	<line class="st4" x1="-1333.8" y1="-3386" x2="-3887" y2="-832.7"/>
	<line class="st4" x1="-1333.8" y1="-3406" x2="-3887" y2="-852.8"/>
	<line class="st4" x1="-1333.8" y1="-3426" x2="-3887" y2="-872.8"/>
	<line class="st4" x1="-1333.8" y1="-3446.1" x2="-3887" y2="-892.8"/>
	<line class="st4" x1="-1333.8" y1="-3466.1" x2="-3887" y2="-912.8"/>
	<line class="st4" x1="-1333.8" y1="-3486.1" x2="-3887" y2="-932.8"/>
	<line class="st4" x1="-1333.8" y1="-3506.1" x2="-3887" y2="-952.8"/>
	<line class="st4" x1="-1333.8" y1="-3526.1" x2="-3887" y2="-972.9"/>
	<line class="st4" x1="-1333.8" y1="-3546.1" x2="-3887" y2="-992.9"/>
	<line class="st4" x1="-1333.8" y1="276.9" x2="-3887" y2="2830.2"/>
	<line class="st4" x1="-1333.8" y1="256.9" x2="-3887" y2="2810.2"/>
	<line class="st4" x1="-1333.8" y1="236.9" x2="-3887" y2="2790.1"/>
	<line class="st4" x1="-1333.8" y1="216.9" x2="-3887" y2="2770.1"/>
	<line class="st4" x1="-1333.8" y1="196.9" x2="-3887" y2="2750.1"/>
	<line class="st4" x1="-1333.8" y1="176.8" x2="-3887" y2="2730.1"/>
	<line class="st4" x1="-1333.8" y1="156.8" x2="-3887" y2="2710.1"/>
	<line class="st4" x1="-1333.8" y1="136.8" x2="-3887" y2="2690.1"/>
	<line class="st4" x1="-1333.8" y1="116.8" x2="-3887" y2="2670.1"/>
	<line class="st4" x1="-1333.8" y1="96.8" x2="-3887" y2="2650"/>
	<line class="st4" x1="-1333.8" y1="76.8" x2="-3887" y2="2630"/>
	<line class="st4" x1="-1333.8" y1="56.7" x2="-3887" y2="2610"/>
	<line class="st4" x1="-1333.8" y1="36.7" x2="-3887" y2="2590"/>
	<line class="st4" x1="-1333.8" y1="16.7" x2="-3887" y2="2570"/>
	<line class="st4" x1="-1333.8" y1="-3.3" x2="-3887" y2="2550"/>
	<line class="st4" x1="-1333.8" y1="-23.3" x2="-3887" y2="2529.9"/>
	<line class="st4" x1="-1333.8" y1="-43.3" x2="-3887" y2="2509.9"/>
	<line class="st4" x1="-1333.8" y1="-63.3" x2="-3887" y2="2489.9"/>
	<line class="st4" x1="-1333.8" y1="-83.4" x2="-3887" y2="2469.9"/>
	<line class="st4" x1="-1333.8" y1="-103.4" x2="-3887" y2="2449.9"/>
	<line class="st4" x1="-1333.8" y1="-123.4" x2="-3887" y2="2429.9"/>
	<line class="st4" x1="-1333.8" y1="-143.4" x2="-3887" y2="2409.8"/>
	<line class="st4" x1="-1333.8" y1="-163.4" x2="-3887" y2="2389.8"/>
	<line class="st4" x1="-1333.8" y1="-183.4" x2="-3887" y2="2369.8"/>
	<line class="st4" x1="-1333.8" y1="-203.5" x2="-3887" y2="2349.8"/>
	<line class="st4" x1="-1333.8" y1="-223.5" x2="-3887" y2="2329.8"/>
	<line class="st4" x1="-1333.8" y1="-243.5" x2="-3887" y2="2309.8"/>
	<line class="st4" x1="-1333.8" y1="-263.5" x2="-3887" y2="2289.7"/>
	<line class="st4" x1="-1333.8" y1="-283.5" x2="-3887" y2="2269.7"/>
	<line class="st4" x1="-1333.8" y1="-303.5" x2="-3887" y2="2249.7"/>
	<line class="st4" x1="-1333.8" y1="-323.6" x2="-3887" y2="2229.7"/>
	<line class="st4" x1="-1333.8" y1="-343.6" x2="-3887" y2="2209.7"/>
	<line class="st4" x1="-1333.8" y1="-363.6" x2="-3887" y2="2189.7"/>
	<line class="st4" x1="-1333.8" y1="-383.6" x2="-3887" y2="2169.7"/>
	<line class="st4" x1="-1333.8" y1="-403.6" x2="-3887" y2="2149.6"/>
	<line class="st4" x1="-1333.8" y1="-423.6" x2="-3887" y2="2129.6"/>
	<line class="st4" x1="-1333.8" y1="-443.7" x2="-3887" y2="2109.6"/>
	<line class="st4" x1="-1333.8" y1="-463.7" x2="-3887" y2="2089.6"/>
	<line class="st4" x1="-1333.8" y1="-483.7" x2="-3887" y2="2069.6"/>
	<line class="st4" x1="-1333.8" y1="-503.7" x2="-3887" y2="2049.6"/>
	<line class="st4" x1="-1333.8" y1="-523.7" x2="-3887" y2="2029.5"/>
	<line class="st4" x1="-1333.8" y1="-543.7" x2="-3887" y2="2009.5"/>
	<line class="st4" x1="-1333.8" y1="-563.7" x2="-3887" y2="1989.5"/>
	<line class="st4" x1="-1333.8" y1="-583.8" x2="-3887" y2="1969.5"/>
	<line class="st4" x1="-1333.8" y1="-603.8" x2="-3887" y2="1949.5"/>
	<line class="st4" x1="-1333.8" y1="-623.8" x2="-3887" y2="1929.5"/>
	<line class="st4" x1="-1333.8" y1="-643.8" x2="-3887" y2="1909.4"/>
	<line class="st4" x1="-1333.8" y1="-663.8" x2="-3887" y2="1889.4"/>
	<line class="st4" x1="-1333.8" y1="-683.8" x2="-3887" y2="1869.4"/>
	<line class="st4" x1="-1333.8" y1="-703.9" x2="-3887" y2="1849.4"/>
	<line class="st4" x1="-1333.8" y1="-723.9" x2="-3887" y2="1829.4"/>
	<line class="st4" x1="-1333.8" y1="-743.9" x2="-3887" y2="1809.4"/>
	<line class="st4" x1="-1333.8" y1="-763.9" x2="-3887" y2="1789.3"/>
	<line class="st4" x1="-1333.8" y1="-783.9" x2="-3887" y2="1769.3"/>
	<line class="st4" x1="-1333.8" y1="-803.9" x2="-3887" y2="1749.3"/>
	<line class="st4" x1="-1333.8" y1="-824" x2="-3887" y2="1729.3"/>
	<line class="st4" x1="-1333.8" y1="-844" x2="-3887" y2="1709.3"/>
	<line class="st4" x1="-1333.8" y1="-864" x2="-3887" y2="1689.3"/>
	<line class="st4" x1="-1333.8" y1="-884" x2="-3887" y2="1669.3"/>
	<line class="st4" x1="-1333.8" y1="-904" x2="-3887" y2="1649.2"/>
	<line class="st4" x1="-1333.8" y1="-924" x2="-3887" y2="1629.2"/>
	<line class="st4" x1="-1333.8" y1="-944.1" x2="-3887" y2="1609.2"/>
	<line class="st4" x1="-1333.8" y1="-964.1" x2="-3887" y2="1589.2"/>
	<line class="st4" x1="-1333.8" y1="-984.1" x2="-3887" y2="1569.2"/>
	<line class="st4" x1="-1333.8" y1="-1004.1" x2="-3887" y2="1549.2"/>
	<line class="st4" x1="-1333.8" y1="-1024.1" x2="-3887" y2="1529.1"/>
	<line class="st4" x1="-1333.8" y1="-1044.1" x2="-3887" y2="1509.1"/>
	<line class="st4" x1="-1333.8" y1="-1064.1" x2="-3887" y2="1489.1"/>
	<line class="st4" x1="-1333.8" y1="-1084.2" x2="-3887" y2="1469.1"/>
	<line class="st4" x1="-1333.8" y1="-1104.2" x2="-3887" y2="1449.1"/>
	<line class="st4" x1="-1333.8" y1="-1124.2" x2="-3887" y2="1429.1"/>
	<line class="st4" x1="-1333.8" y1="-1144.2" x2="-3887" y2="1409"/>
	<line class="st4" x1="-1333.8" y1="-1164.2" x2="-3887" y2="1389"/>
	<line class="st4" x1="-1333.8" y1="-1184.2" x2="-3887" y2="1369"/>
	<line class="st4" x1="-1333.8" y1="-1204.3" x2="-3887" y2="1349"/>
	<line class="st4" x1="-1333.8" y1="-1224.3" x2="-3887" y2="1329"/>
	<line class="st4" x1="-1333.8" y1="-1244.3" x2="-3887" y2="1309"/>
	<line class="st4" x1="-1333.8" y1="-1264.3" x2="-3887" y2="1288.9"/>
	<line class="st4" x1="-1333.8" y1="-1284.3" x2="-3887" y2="1268.9"/>
	<line class="st4" x1="-1333.8" y1="-1304.3" x2="-3887" y2="1248.9"/>
	<line class="st4" x1="-1333.8" y1="-1324.4" x2="-3887" y2="1228.9"/>
	<line class="st4" x1="-1333.8" y1="-1344.4" x2="-3887" y2="1208.9"/>
	<line class="st4" x1="-1333.8" y1="-1364.4" x2="-3887" y2="1188.9"/>
	<line class="st4" x1="-1333.8" y1="-1384.4" x2="-3887" y2="1168.9"/>
	<line class="st4" x1="-1333.8" y1="-1404.4" x2="-3887" y2="1148.8"/>
	<line class="st4" x1="-1333.8" y1="-1424.4" x2="-3887" y2="1128.8"/>
	<line class="st4" x1="-1333.8" y1="-1444.5" x2="-3887" y2="1108.8"/>
	<line class="st4" x1="-1333.8" y1="-1464.5" x2="-3887" y2="1088.8"/>
	<line class="st4" x1="-1333.8" y1="-1484.5" x2="-3887" y2="1068.8"/>
	<line class="st4" x1="-1333.8" y1="-1504.5" x2="-3887" y2="1048.8"/>
	<line class="st4" x1="-1333.8" y1="-1524.5" x2="-3887" y2="1028.7"/>
	<line class="st4" x1="-1333.8" y1="-1544.5" x2="-3887" y2="1008.7"/>
	<line class="st4" x1="-1333.8" y1="-1564.5" x2="-3887" y2="988.7"/>
	<line class="st4" x1="-1333.8" y1="-1584.6" x2="-3887" y2="968.7"/>
	<line class="st4" x1="-1333.8" y1="-1604.6" x2="-3887" y2="948.7"/>
	<line class="st4" x1="-1333.8" y1="-1624.6" x2="-3887" y2="928.7"/>
</g>
<rect x="-613.2" y="-727.3" class="st5" width="55" height="520.4"/>
<circle class="st5" cx="-585.7" cy="-727.3" r="27.5"/>
<circle class="st5" cx="-585.7" cy="-206.9" r="27.5"/>
<circle class="st6" cx="-1058.2" cy="-657.5" r="100"/>
<g>
	<polygon class="st7" points="-1026.3,-608.9 -1058.2,-630.8 -1090.1,-608.9 -1090.1,-706.1 -1026.3,-706.1 	"/>
	<line class="st7" x1="-1077.1" y1="-662.8" x2="-1039.4" y2="-662.8"/>
	<line class="st7" x1="-1077.1" y1="-649.3" x2="-1039.4" y2="-649.3"/>
	<line class="st7" x1="-1077.1" y1="-676.3" x2="-1039.4" y2="-676.3"/>
	<line class="st7" x1="-1077.1" y1="-689.8" x2="-1039.4" y2="-689.8"/>
</g>
<circle class="st8" cx="-811.5" cy="-657.5" r="100"/>
<circle class="st0" cx="-359.9" cy="-660.4" r="100"/>
<g>
	<polygon class="st7" points="-779.6,-608.9 -811.5,-630.8 -843.4,-608.9 -843.4,-706.1 -779.6,-706.1 	"/>
	<line class="st7" x1="-830.4" y1="-662.8" x2="-792.7" y2="-662.8"/>
	<line class="st7" x1="-830.4" y1="-649.3" x2="-792.7" y2="-649.3"/>
	<line class="st7" x1="-830.4" y1="-676.3" x2="-792.7" y2="-676.3"/>
	<line class="st7" x1="-830.4" y1="-689.8" x2="-792.7" y2="-689.8"/>
	<line class="st7" x1="-830.4" y1="-689.8" x2="-792.7" y2="-689.8"/>
</g>
<g>
	<circle class="st8" cx="-1262.7" cy="-727.3" r="27.5"/>
	<g>
		<g>
			<path class="st2" d="M-1253.9-713.3c-0.1,0-0.3,0-0.4-0.1l-8.4-5.7l-8.4,5.7c-0.2,0.1-0.5,0.2-0.7,0c-0.2-0.1-0.4-0.4-0.4-0.6
				v-26.7c0-0.4,0.3-0.7,0.7-0.7h17.5c0.4,0,0.7,0.3,0.7,0.7v26.7c0,0.3-0.1,0.5-0.4,0.6C-1253.7-713.3-1253.8-713.3-1253.9-713.3z
				 M-1262.7-720.7c0.1,0,0.3,0,0.4,0.1l7.7,5.3V-740h-16.2v24.7l7.7-5.3C-1262.9-720.6-1262.8-720.7-1262.7-720.7z"/>
		</g>
		<g>
			<path class="st2" d="M-1257.5-728.1h-10.4c-0.4,0-0.7-0.3-0.7-0.7s0.3-0.7,0.7-0.7h10.4c0.4,0,0.7,0.3,0.7,0.7
				S-1257.1-728.1-1257.5-728.1z"/>
		</g>
		<g>
			<path class="st2" d="M-1257.5-724.4h-10.4c-0.4,0-0.7-0.3-0.7-0.7s0.3-0.7,0.7-0.7h10.4c0.4,0,0.7,0.3,0.7,0.7
				S-1257.1-724.4-1257.5-724.4z"/>
		</g>
		<g>
			<path class="st2" d="M-1257.5-731.8h-10.4c-0.4,0-0.7-0.3-0.7-0.7c0-0.4,0.3-0.7,0.7-0.7h10.4c0.4,0,0.7,0.3,0.7,0.7
				C-1256.8-732.1-1257.1-731.8-1257.5-731.8z"/>
		</g>
		<g>
			<path class="st2" d="M-1257.5-735.5h-10.4c-0.4,0-0.7-0.3-0.7-0.7c0-0.4,0.3-0.7,0.7-0.7h10.4c0.4,0,0.7,0.3,0.7,0.7
				C-1256.8-735.8-1257.1-735.5-1257.5-735.5z"/>
		</g>
	</g>
</g>
<g>
	<g>
		<g>
			<g>
				<g>
					<path class="st0" d="M-1252.1-660.9c0.9,0,1.8-0.3,2.4-1s1-1.5,1-2.4c0-0.9-0.3-1.8-1-2.4c-0.7-0.7-1.6-1-2.4-1
						c-0.9,0-1.8,0.3-2.5,1c-0.7,0.6-1,1.5-1,2.4c0,0.9,0.3,1.8,1,2.4S-1253-660.9-1252.1-660.9z"/>
				</g>
				<g>
					<path class="st0" d="M-1256.8-654.9c1.3-1.3,1.3-3.5,0-4.8l0,0c-1.3-1.3-3.5-1.3-4.8,0l0,0c-1.3,1.3-1.3,3.5,0,4.8l0,0
						c0.7,0.7,1.6,1,2.4,1l0,0C-1258.3-653.9-1257.4-654.2-1256.8-654.9z"/>
				</g>
			</g>
			<g>
				<g>
					<path class="st0" d="M-1252.1-632.7c0.9,0,1.8-0.4,2.4-1c0.7-0.7,1-1.5,1-2.4c0-0.9-0.3-1.8-1-2.4c-0.7-0.7-1.6-1-2.4-1
						c-0.9,0-1.8,0.3-2.5,1c-0.7,0.6-1,1.5-1,2.4c0,0.9,0.3,1.8,1,2.4C-1253.9-633.1-1253-632.7-1252.1-632.7z"/>
				</g>
				<g>
					<path class="st0" d="M-1256.8-641c1.3-1.4,1.3-3.5,0-4.8l0,0c-1.3-1.3-3.5-1.3-4.8,0l0,0c-1.3,1.4-1.3,3.5,0,4.8l0,0
						c0.7,0.6,1.6,1,2.4,1l0,0C-1258.3-640-1257.4-640.4-1256.8-641z"/>
				</g>
			</g>
		</g>
		<g>
			<g>
				<g>
					<path class="st0" d="M-1280.2-639.5c-0.9,0-1.8,0.3-2.4,1c-0.7,0.6-1,1.5-1,2.4c0,0.9,0.3,1.8,1,2.4c0.7,0.6,1.6,1,2.4,1
						c0.9,0,1.8-0.4,2.5-1c0.7-0.7,1-1.5,1-2.4c0-0.9-0.3-1.8-1-2.4C-1278.4-639.2-1279.3-639.5-1280.2-639.5z"/>
				</g>
				<g>
					<path class="st0" d="M-1275.5-645.6c-1.3,1.4-1.3,3.5,0,4.8l0,0c1.3,1.3,3.5,1.3,4.8,0l0,0c1.3-1.4,1.3-3.5,0-4.8l0,0
						c-0.7-0.6-1.6-1-2.4-1l0,0C-1273.9-646.6-1274.8-646.2-1275.5-645.6z"/>
				</g>
			</g>
			<g>
				<g>
					<path class="st0" d="M-1280.2-667.7c-0.9,0-1.8,0.3-2.4,1c-0.7,0.6-1,1.5-1,2.4c0,0.9,0.3,1.8,1,2.4s1.6,1,2.4,1
						c0.9,0,1.8-0.3,2.5-1s1-1.5,1-2.4c0-0.9-0.3-1.8-1-2.4C-1278.4-667.4-1279.3-667.7-1280.2-667.7z"/>
				</g>
				<g>
					<path class="st0" d="M-1275.5-659.4c-1.3,1.3-1.3,3.5,0,4.8l0,0c1.3,1.4,3.5,1.4,4.8,0l0,0c1.3-1.3,1.3-3.5,0-4.8l0,0
						c-0.7-0.7-1.6-1-2.4-1l0,0C-1273.9-660.4-1274.8-660.1-1275.5-659.4z"/>
				</g>
			</g>
		</g>
	</g>
	<g>
		<path class="st0" d="M-1266.1-646.8c0.9,0,1.8-0.3,2.4-1c0.7-0.6,1-1.5,1-2.4c0-0.9-0.3-1.8-1-2.4c-0.6-0.6-1.5-1-2.4-1
			s-1.8,0.4-2.4,1c-0.7,0.7-1,1.5-1,2.4c0,0.9,0.3,1.8,1,2.4C-1267.9-647.2-1267-646.8-1266.1-646.8z"/>
	</g>
</g>
<g>
	<g>
		<g>
			<g>
				<g>
					<path class="st0" d="M-1252.1-660.9c0.9,0,1.8-0.3,2.4-1s1-1.5,1-2.4c0-0.9-0.3-1.8-1-2.4c-0.7-0.7-1.6-1-2.4-1
						c-0.9,0-1.8,0.3-2.5,1c-0.7,0.6-1,1.5-1,2.4c0,0.9,0.3,1.8,1,2.4S-1253-660.9-1252.1-660.9z"/>
				</g>
				<g>
					<path class="st0" d="M-1256.8-654.9c1.3-1.3,1.3-3.5,0-4.8l0,0c-1.3-1.3-3.5-1.3-4.8,0l0,0c-1.3,1.3-1.3,3.5,0,4.8l0,0
						c0.7,0.7,1.6,1,2.4,1l0,0C-1258.3-653.9-1257.4-654.2-1256.8-654.9z"/>
				</g>
			</g>
			<g>
				<g>
					<path class="st0" d="M-1252.1-632.7c0.9,0,1.8-0.4,2.4-1c0.7-0.7,1-1.5,1-2.4c0-0.9-0.3-1.8-1-2.4c-0.7-0.7-1.6-1-2.4-1
						c-0.9,0-1.8,0.3-2.5,1c-0.7,0.6-1,1.5-1,2.4c0,0.9,0.3,1.8,1,2.4C-1253.9-633.1-1253-632.7-1252.1-632.7z"/>
				</g>
				<g>
					<path class="st0" d="M-1256.8-641c1.3-1.4,1.3-3.5,0-4.8l0,0c-1.3-1.3-3.5-1.3-4.8,0l0,0c-1.3,1.4-1.3,3.5,0,4.8l0,0
						c0.7,0.6,1.6,1,2.4,1l0,0C-1258.3-640-1257.4-640.4-1256.8-641z"/>
				</g>
			</g>
		</g>
		<g>
			<g>
				<g>
					<path class="st0" d="M-1280.2-639.5c-0.9,0-1.8,0.3-2.4,1c-0.7,0.6-1,1.5-1,2.4c0,0.9,0.3,1.8,1,2.4c0.7,0.6,1.6,1,2.4,1
						c0.9,0,1.8-0.4,2.5-1c0.7-0.7,1-1.5,1-2.4c0-0.9-0.3-1.8-1-2.4C-1278.4-639.2-1279.3-639.5-1280.2-639.5z"/>
				</g>
				<g>
					<path class="st0" d="M-1275.5-645.6c-1.3,1.4-1.3,3.5,0,4.8l0,0c1.3,1.3,3.5,1.3,4.8,0l0,0c1.3-1.4,1.3-3.5,0-4.8l0,0
						c-0.7-0.6-1.6-1-2.4-1l0,0C-1273.9-646.6-1274.8-646.2-1275.5-645.6z"/>
				</g>
			</g>
			<g>
				<g>
					<path class="st0" d="M-1280.2-667.7c-0.9,0-1.8,0.3-2.4,1c-0.7,0.6-1,1.5-1,2.4c0,0.9,0.3,1.8,1,2.4s1.6,1,2.4,1
						c0.9,0,1.8-0.3,2.5-1s1-1.5,1-2.4c0-0.9-0.3-1.8-1-2.4C-1278.4-667.4-1279.3-667.7-1280.2-667.7z"/>
				</g>
				<g>
					<path class="st0" d="M-1275.5-659.4c-1.3,1.3-1.3,3.5,0,4.8l0,0c1.3,1.4,3.5,1.4,4.8,0l0,0c1.3-1.3,1.3-3.5,0-4.8l0,0
						c-0.7-0.7-1.6-1-2.4-1l0,0C-1273.9-660.4-1274.8-660.1-1275.5-659.4z"/>
				</g>
			</g>
		</g>
	</g>
	<g>
		<path class="st0" d="M-1266.1-646.8c0.9,0,1.8-0.3,2.4-1c0.7-0.6,1-1.5,1-2.4c0-0.9-0.3-1.8-1-2.4c-0.6-0.6-1.5-1-2.4-1
			s-1.8,0.4-2.4,1c-0.7,0.7-1,1.5-1,2.4c0,0.9,0.3,1.8,1,2.4C-1267.9-647.2-1267-646.8-1266.1-646.8z"/>
	</g>
</g>
<circle class="st6" cx="-1046.4" cy="-429.4" r="100"/>
<g>
	<path class="st7" d="M-1058.9-386.3c-12.5,0-22.6-10.1-22.6-22.6v-50.6c0-3.9,3.1-7,7-7s7,3.1,7,7v23.5"/>
	<line class="st7" x1="-1067.5" y1="-388" x2="-1067.5" y2="-369.4"/>
	<line class="st7" x1="-1026.3" y1="-386.8" x2="-1026.3" y2="-369.4"/>
	<line class="st7" x1="-1053.4" y1="-475.5" x2="-1053.4" y2="-437.1"/>
	<path class="st7" d="M-1053.4-475v-7.4c0-3.9,3.1-7,7-7s7,3.1,7,7v46.4"/>
	<path class="st7" d="M-1067.5-458.3v-16.1c0-3.9,3.1-7,7-7c3.9,0,7,3.1,7,7"/>
	<path class="st7" d="M-1039.4-475.5c0-3.9,3.1-7,7-7s7,3.1,7,7v48c-10.1,0-18.2,8.2-18.2,18.2"/>
	<path class="st7" d="M-1025.4-445.9c0-7.8,6.3-14.1,14.1-14.1v51.1c0,12.5-10.1,22.6-22.6,22.6"/>
</g>
<circle class="st6" cx="-1046.4" cy="-145.1" r="100"/>
<circle class="st6" cx="-803" cy="-433.5" r="100"/>
<polygon class="st7" points="-751.8,-439.9 -802.9,-480.2 -854.1,-439.9 -842,-439.9 -842,-386.9 -816,-386.9 -816,-414.9 
	-791,-414.9 -791,-386.9 -765,-386.9 -765,-439.9 "/>
<g>
	<circle class="st6" cx="-1263" cy="-575.5" r="27.5"/>
	<path class="st2" d="M-1252.6-562.4h-7.2c-0.4,0-0.8,0.1-0.8-0.3v-6.7h-5v6.7c0,0.4-0.7,0.3-1.1,0.3h-7.2c-0.4,0-0.8,0.1-0.8-0.3
		v-13.7h-2.5c-0.3,0-0.6-0.3-0.6-0.6c-0.1-0.3,0-0.6,0.2-0.8l14.1-11.1c0.2-0.2,0.6-0.2,0.9,0l14.1,11.1c0.2,0.2,0.3,0.6,0.2,0.9
		c-0.1,0.3-0.4,0.6-0.6,0.6h-2.6v13.7C-1251.5-562.3-1252.2-562.4-1252.6-562.4z M-1258.5-563.4h5v-13.9c0-0.4,0.6-1.1,1-1.1h1.7
		l-12.1-9.5l-12.1,9.5h1.3c0.4,0,0.2,0.7,0.2,1.1v13.9h6v-7c0-0.4,0.6-1,0.9-1h6.9c0.4,0,1.2,0.6,1.2,1V-563.4z"/>
</g>
<circle class="st9" cx="-585.7" cy="-727.3" r="11"/>
<circle class="st9" cx="-585.7" cy="-687.3" r="11"/>
<circle class="st10" cx="-585.7" cy="-647.3" r="11"/>
<circle class="st0" cx="-585.7" cy="-607.2" r="11"/>
<circle class="st0" cx="-585.7" cy="-567.2" r="11"/>
<circle class="st0" cx="-585.7" cy="-527.2" r="11"/>
<circle class="st0" cx="-585.7" cy="-487.1" r="11"/>
<circle class="st0" cx="-585.7" cy="-447.1" r="11"/>
<circle class="st0" cx="-585.7" cy="-407.1" r="11"/>
<circle class="st0" cx="-585.7" cy="-367" r="11"/>
<circle class="st0" cx="-585.7" cy="-327" r="11"/>
<circle class="st0" cx="-585.7" cy="-287" r="11"/>
<circle class="st0" cx="-585.7" cy="-246.9" r="11"/>
<circle class="st0" cx="-585.7" cy="-206.9" r="11"/>
<circle class="st9" cx="-535.7" cy="-727.3" r="11"/>
<circle class="st9" cx="-535.7" cy="-695.3" r="11"/>
<circle class="st10" cx="-535.7" cy="-663.3" r="11"/>
<circle class="st0" cx="-535.7" cy="-631.2" r="11"/>
<circle class="st0" cx="-535.7" cy="-600.2" r="11"/>
<circle class="st0" cx="-535.7" cy="-568.2" r="11"/>
<circle class="st0" cx="-535.7" cy="-538.1" r="11"/>
<circle class="st0" cx="-535.7" cy="-506.1" r="11"/>
<circle class="st0" cx="-535.7" cy="-474.1" r="11"/>
<circle class="st0" cx="-535.7" cy="-442.1" r="11"/>
<circle class="st0" cx="-535.7" cy="-410" r="11"/>
<circle class="st0" cx="-535.7" cy="-378" r="11"/>
<circle class="st0" cx="-535.7" cy="-346" r="11"/>
<circle class="st0" cx="-535.7" cy="-315.4" r="11"/>
<g>
	<path class="st2" d="M-1166.2-838.5c0,0,0-2.3-0.6-2.9l-1.9-0.8l0-0.8c0,0,8.4-0.5,13.4-0.5c6.1,0,11.5,3.4,11.4,8.9
		c-0.2,7.3-6.9,8.3-8.5,8.6c2.9,7.2,7.6,13.7,14.2,15.8l-0.1,0.3c-15.3-0.9-18.7-14.7-19.2-17.1c0.2,0.1,0.7,0.1,1.6,0.1
		c6.4,0,8.3-5,8.3-7.7c0-3.7-3-7.2-7.4-7.3c-3.4-0.1-6.5,0.3-6.5,0.3v27.7h-4.6L-1166.2-838.5"/>
	<path class="st2" d="M-1217.9-820.6c-1.3,5-6.1,7.5-9.6,7.5c-4.6,0-8.1-1.3-9.2-2.1c0,0-0.5-3.1-1.1-4.9l0.8,0
		c0.2,1,2.5,5.3,9.4,5.3c3.5,0,6.4-2.9,6.4-6.3c0-3.1-3-5.1-6.5-6.2c-3.8-1.2-8.6-3.5-8.6-8.6c0-6.5,5.4-7.6,8.4-7.6
		c3.3,0,8,1.3,8.7,1.7l-0.6,3.9c-0.3-0.4-3.7-4.1-8.2-4.1c-3.5,0-5.8,1.8-5.8,4.7c0,2.9,3.1,4.6,7.9,6.2
		C-1226-830.9-1215.8-828.6-1217.9-820.6"/>
	<path class="st2" d="M-1258.8-849c-10.5,0-18.9,8.1-18.9,18c0,9.9,8.5,18,18.9,18c10.5,0,18.9-8.1,18.9-18
		C-1239.9-841-1248.4-849-1258.8-849 M-1255-815.4c-7.4,2-15.4-3.1-17.7-12c-2-7.5,2-17.5,9.6-19.6c7.4-2,15.4,3.3,17.7,12.2
		C-1243.1-825.9-1247.6-817.4-1255-815.4z"/>
	<path class="st2" d="M-1190.5-813.8h19c0,0-0.3-4-0.2-4.5c-0.2,0.2-2.6,2.8-9.8,2.8h-4.4v-13.1c5.6,0,8.6,0.6,10,2.1v-6
		c-1.4,1.6-4.5,2.1-10,2.1l0-10.9c0,0,3.9,0,4.1,0c5.7,0,8,1.1,9.4,2.7c0-0.5,0.8-4.4,0.8-4.4h-21.2l0,0.8l1.9,0.8
		c0.6,0.6,0.6,2.9,0.6,2.9L-1190.5-813.8"/>
	<path class="st2" d="M-1213.3-838.5c0,0,0-2.3-0.6-2.9l-1.9-0.8l0-0.8l6.9,0v27.4h4c7.2,0,9.6-2.6,9.8-2.8
		c-0.1,0.5,0.2,4.5,0.2,4.5h-18.5V-838.5"/>
</g>
<g>
	<rect x="-403.9" y="-693.8" class="st7" width="88" height="12.1"/>
	<rect x="-403.9" y="-666.5" class="st7" width="88" height="12.1"/>
	<rect x="-403.9" y="-639.1" class="st7" width="88" height="12.1"/>
</g>
<circle class="st0" cx="-359.9" cy="-433.3" r="100"/>
<polygon class="st7" points="-324.5,-460 -333.1,-468.6 -359.9,-441.7 -386.8,-468.6 -395.3,-460 -368.5,-433.2 -395.3,-406.3 
	-386.8,-397.8 -359.9,-424.6 -333.1,-397.8 -324.5,-406.3 -351.4,-433.2 "/>
<circle class="st6" cx="-112.9" cy="-433.4" r="100"/>
<g>
	<circle class="st0" cx="-1262.9" cy="-418.3" r="27.5"/>
	<path class="st2" d="M-1255.5-407.9c-0.2,0-0.4-0.1-0.5-0.2l-6.9-6.9l-6.9,6.9c-0.3,0.3-0.7,0.3-1,0l-2.4-2.4c-0.3-0.3-0.3-0.7,0-1
		l6.9-6.9l-6.9-6.9c-0.3-0.3-0.3-0.7,0-1l2.4-2.4c0.3-0.3,0.7-0.3,1,0l6.9,6.9l6.9-6.9c0.3-0.3,0.7-0.3,1,0l2.4,2.4
		c0.1,0.1,0.2,0.3,0.2,0.5c0,0.2-0.1,0.4-0.2,0.5l-6.9,6.9l6.9,6.9c0.1,0.1,0.2,0.3,0.2,0.5s-0.1,0.4-0.2,0.5l-2.4,2.4
		C-1255.2-407.9-1255.4-407.9-1255.5-407.9z"/>
</g>
<g>
	<circle class="st0" cx="-1262.7" cy="-498.1" r="27.5"/>
	<g>
		<path class="st2" d="M-1250.6-504.3h-24.2c-0.4,0-0.7-0.3-0.7-0.7v-3.3c0-0.4,0.3-0.7,0.7-0.7h24.2c0.4,0,0.7,0.3,0.7,0.7v3.3
			C-1249.9-504.6-1250.2-504.3-1250.6-504.3z"/>
		<path class="st2" d="M-1250.6-496.8h-24.2c-0.4,0-0.7-0.3-0.7-0.7v-3.3c0-0.4,0.3-0.7,0.7-0.7h24.2c0.4,0,0.7,0.3,0.7,0.7v3.3
			C-1249.9-497.1-1250.2-496.8-1250.6-496.8z"/>
		<path class="st2" d="M-1250.6-489.3h-24.2c-0.4,0-0.7-0.3-0.7-0.7v-3.3c0-0.4,0.3-0.7,0.7-0.7h24.2c0.4,0,0.7,0.3,0.7,0.7v3.3
			C-1249.9-489.6-1250.2-489.3-1250.6-489.3z"/>
	</g>
</g>
<g>
	<rect x="-156.9" y="-404.8" class="st7" width="88" height="12.1"/>
	<polygon class="st7" points="-111.8,-478.1 -68.9,-420 -154.7,-420 	"/>
</g>
<g>
	<circle class="st6" cx="-1263" cy="-341.9" r="27.5"/>
	<g>
		<path class="st2" d="M-1250.9-330h-24.2c-0.4,0-0.7-0.3-0.7-0.7v-3.3c0-0.4,0.3-0.7,0.7-0.7h24.2c0.4,0,0.7,0.3,0.7,0.7v3.3
			C-1250.2-330.3-1250.5-330-1250.9-330z M-1274.4-331.4h22.8v-2h-22.8V-331.4z"/>
		<path class="st2" d="M-1250.9-337.5h-23.6c-0.3,0-0.5-0.1-0.6-0.4c-0.1-0.2-0.1-0.5,0.1-0.7l11.8-16c0.1-0.2,0.3-0.3,0.6-0.3
			c0.2,0,0.4,0.1,0.6,0.3l11.8,16c0.2,0.2,0.2,0.5,0.1,0.7C-1250.4-337.6-1250.6-337.5-1250.9-337.5z M-1273.1-338.9h20.9
			l-10.4-14.1L-1273.1-338.9z"/>
	</g>
</g>
<g>
	<circle class="st8" cx="-1198.7" cy="-725.3" r="20"/>
	<g>
		<g>
			<path class="st2" d="M-1192.3-715.1c-0.1,0-0.2,0-0.3-0.1l-6.1-4.2l-6.1,4.2c-0.2,0.1-0.4,0.1-0.5,0c-0.2-0.1-0.3-0.3-0.3-0.4
				V-735c0-0.3,0.2-0.5,0.5-0.5h12.8c0.3,0,0.5,0.2,0.5,0.5v19.4c0,0.2-0.1,0.4-0.3,0.4C-1192.1-715.1-1192.2-715.1-1192.3-715.1z
				 M-1198.7-720.5c0.1,0,0.2,0,0.3,0.1l5.6,3.8v-18h-11.8v18l5.6-3.8C-1198.8-720.4-1198.7-720.5-1198.7-720.5z"/>
		</g>
		<g>
			<path class="st2" d="M-1194.9-725.9h-7.5c-0.3,0-0.5-0.2-0.5-0.5s0.2-0.5,0.5-0.5h7.5c0.3,0,0.5,0.2,0.5,0.5
				S-1194.6-725.9-1194.9-725.9z"/>
		</g>
		<g>
			<path class="st2" d="M-1194.9-723.2h-7.5c-0.3,0-0.5-0.2-0.5-0.5s0.2-0.5,0.5-0.5h7.5c0.3,0,0.5,0.2,0.5,0.5
				S-1194.6-723.2-1194.9-723.2z"/>
		</g>
		<g>
			<path class="st2" d="M-1194.9-728.6h-7.5c-0.3,0-0.5-0.2-0.5-0.5s0.2-0.5,0.5-0.5h7.5c0.3,0,0.5,0.2,0.5,0.5
				S-1194.6-728.6-1194.9-728.6z"/>
		</g>
		<g>
			<path class="st2" d="M-1194.9-731.3h-7.5c-0.3,0-0.5-0.2-0.5-0.5c0-0.3,0.2-0.5,0.5-0.5h7.5c0.3,0,0.5,0.2,0.5,0.5
				C-1194.4-731.5-1194.6-731.3-1194.9-731.3z"/>
		</g>
	</g>
</g>
<g>
	<g>
		<g>
			<g>
				<g>
					<path class="st0" d="M-1191.4-666.2c0.8,0,1.5-0.3,2.1-0.9s0.9-1.3,0.9-2.1s-0.3-1.5-0.9-2.1c-0.6-0.6-1.3-0.9-2.1-0.9
						c-0.8,0-1.5,0.3-2.1,0.9c-0.6,0.6-0.9,1.3-0.9,2.1s0.3,1.5,0.9,2.1C-1192.9-666.5-1192.2-666.2-1191.4-666.2z"/>
				</g>
				<g>
					<path class="st0" d="M-1195.4-661c1.2-1.2,1.2-3,0-4.1l0,0c-1.2-1.2-3-1.2-4.2,0l0,0c-1.2,1.2-1.2,3,0,4.1l0,0
						c0.6,0.6,1.3,0.9,2.1,0.9l0,0C-1196.7-660.2-1196-660.5-1195.4-661z"/>
				</g>
			</g>
			<g>
				<g>
					<path class="st0" d="M-1191.4-642c0.8,0,1.5-0.3,2.1-0.9c0.6-0.6,0.9-1.3,0.9-2.1c0-0.8-0.3-1.5-0.9-2.1s-1.3-0.9-2.1-0.9
						c-0.8,0-1.5,0.3-2.1,0.9c-0.6,0.6-0.9,1.3-0.9,2.1c0,0.8,0.3,1.5,0.9,2.1C-1192.9-642.3-1192.2-642-1191.4-642z"/>
				</g>
				<g>
					<path class="st0" d="M-1195.4-649.1c1.2-1.2,1.2-3,0-4.1l0,0c-1.2-1.2-3-1.2-4.2,0l0,0c-1.2,1.2-1.2,3,0,4.1l0,0
						c0.6,0.6,1.3,0.9,2.1,0.9l0,0C-1196.7-648.3-1196-648.6-1195.4-649.1z"/>
				</g>
			</g>
		</g>
		<g>
			<g>
				<g>
					<path class="st0" d="M-1215.5-647.9c-0.8,0-1.5,0.3-2.1,0.9s-0.9,1.3-0.9,2.1c0,0.8,0.3,1.5,0.9,2.1c0.6,0.6,1.3,0.9,2.1,0.9
						c0.8,0,1.5-0.3,2.1-0.9c0.6-0.6,0.9-1.3,0.9-2.1c0-0.8-0.3-1.5-0.9-2.1S-1214.7-647.9-1215.5-647.9z"/>
				</g>
				<g>
					<path class="st0" d="M-1211.4-653c-1.2,1.2-1.2,3,0,4.1l0,0c1.2,1.2,3,1.2,4.2,0l0,0c1.2-1.2,1.2-3,0-4.1l0,0
						c-0.6-0.6-1.3-0.9-2.1-0.9l0,0C-1210.1-653.9-1210.9-653.6-1211.4-653z"/>
				</g>
			</g>
			<g>
				<g>
					<path class="st0" d="M-1215.5-672c-0.8,0-1.5,0.3-2.1,0.9c-0.6,0.6-0.9,1.3-0.9,2.1s0.3,1.5,0.9,2.1s1.3,0.9,2.1,0.9
						c0.8,0,1.5-0.3,2.1-0.9s0.9-1.3,0.9-2.1s-0.3-1.5-0.9-2.1C-1213.9-671.7-1214.7-672-1215.5-672z"/>
				</g>
				<g>
					<path class="st0" d="M-1211.4-664.9c-1.2,1.2-1.2,3,0,4.1l0,0c1.2,1.2,3,1.2,4.2,0l0,0c1.2-1.2,1.2-3,0-4.1l0,0
						c-0.6-0.6-1.3-0.9-2.1-0.9l0,0C-1210.1-665.8-1210.9-665.5-1211.4-664.9z"/>
				</g>
			</g>
		</g>
	</g>
	<g>
		<path class="st0" d="M-1203.4-654.1c0.8,0,1.5-0.3,2.1-0.9c0.6-0.6,0.9-1.3,0.9-2.1s-0.3-1.5-0.9-2.1s-1.3-0.9-2.1-0.9
			c-0.8,0-1.5,0.3-2.1,0.9c-0.6,0.6-0.9,1.3-0.9,2.1s0.3,1.5,0.9,2.1C-1205-654.4-1204.2-654.1-1203.4-654.1z"/>
	</g>
</g>
<g>
	<circle class="st6" cx="-1199" cy="-573.5" r="20"/>
	<path class="st2" d="M-1191.4-564.4h-5.2c-0.3,0-0.9,0.5-0.9,0.2v-5.2h-3v5.2c0,0.3-0.8-0.2-1.1-0.2h-5.2c-0.3,0-0.7,0.5-0.7,0.2
		v-10.2h-1.7c-0.2,0-0.4-0.1-0.5-0.3c-0.1-0.2,0-0.4,0.2-0.5l10.2-8.1c0.2-0.1,0.4-0.1,0.6,0l10.2,8.1c0.2,0.1,0.2,0.3,0.2,0.5
		c-0.1,0.2-0.3,0.3-0.5,0.3h-1.8v10.2C-1190.5-563.9-1191.1-564.4-1191.4-564.4z M-1195.5-564.4h3v-10.4c0-0.3,0.8-0.6,1.1-0.6h1.2
		l-8.8-6.9l-8.8,6.9h1c0.3,0,0.3,0.3,0.3,0.6v10.4h4v-5.4c0-0.3,0.6-0.6,0.9-0.6h5c0.3,0,1.1,0.3,1.1,0.6V-564.4z"/>
</g>
<g>
	<circle class="st0" cx="-1198.9" cy="-416.3" r="20"/>
	<path class="st2" d="M-1193.6-408.7c-0.1,0-0.3,0-0.4-0.1l-5-5l-5,5c-0.2,0.2-0.5,0.2-0.7,0l-1.7-1.7c-0.2-0.2-0.2-0.5,0-0.7l5-5
		l-5-5c-0.2-0.2-0.2-0.5,0-0.7l1.7-1.7c0.2-0.2,0.5-0.2,0.7,0l5,5l5-5c0.2-0.2,0.5-0.2,0.7,0l1.7,1.7c0.1,0.1,0.1,0.2,0.1,0.4
		c0,0.1-0.1,0.3-0.1,0.4l-5,5l5,5c0.1,0.1,0.1,0.2,0.1,0.4c0,0.1-0.1,0.3-0.1,0.4l-1.7,1.7C-1193.3-408.8-1193.4-408.7-1193.6-408.7
		z"/>
</g>
<g>
	<circle class="st0" cx="-1198.7" cy="-496.1" r="20"/>
	<g>
		<path class="st2" d="M-1189.9-500.6h-17.6c-0.3,0-0.5-0.2-0.5-0.5v-2.4c0-0.3,0.2-0.5,0.5-0.5h17.6c0.3,0,0.5,0.2,0.5,0.5v2.4
			C-1189.4-500.8-1189.6-500.6-1189.9-500.6z"/>
		<path class="st2" d="M-1189.9-495.1h-17.6c-0.3,0-0.5-0.2-0.5-0.5v-2.4c0-0.3,0.2-0.5,0.5-0.5h17.6c0.3,0,0.5,0.2,0.5,0.5v2.4
			C-1189.4-495.4-1189.6-495.1-1189.9-495.1z"/>
		<path class="st2" d="M-1189.9-489.7h-17.6c-0.3,0-0.5-0.2-0.5-0.5v-2.4c0-0.3,0.2-0.5,0.5-0.5h17.6c0.3,0,0.5,0.2,0.5,0.5v2.4
			C-1189.4-489.9-1189.6-489.7-1189.9-489.7z"/>
	</g>
</g>
<g>
	<circle class="st6" cx="-1199" cy="-339.9" r="20"/>
	<g>
		<path class="st2" d="M-1190.2-331.2h-17.6c-0.3,0-0.5-0.2-0.5-0.5v-2.4c0-0.3,0.2-0.5,0.5-0.5h17.6c0.3,0,0.5,0.2,0.5,0.5v2.4
			C-1189.7-331.5-1189.9-331.2-1190.2-331.2z M-1207.3-332.2h16.6v-1.4h-16.6V-332.2z"/>
		<path class="st2" d="M-1190.2-336.7h-17.2c-0.2,0-0.4-0.1-0.4-0.3c-0.1-0.2-0.1-0.4,0-0.5l8.6-11.6c0.1-0.1,0.2-0.2,0.4-0.2
			s0.3,0.1,0.4,0.2l8.6,11.6c0.1,0.2,0.1,0.4,0,0.5C-1189.8-336.8-1190-336.7-1190.2-336.7z M-1206.4-337.7h15.2l-7.6-10.3
			L-1206.4-337.7z"/>
	</g>
</g>
<g>
	<g>
		<g>
			<g>
				<path class="st10" d="M-107.3-632.3c-2.5,0-4.9,1-6.7,2.7c-1.8,1.8-2.7,4.1-2.7,6.6c0,2.5,1,4.8,2.7,6.6
					c1.8,1.8,4.2,2.7,6.7,2.7c2.5,0,4.9-1,6.7-2.7s2.7-4.1,2.7-6.6c0-2.5-1-4.8-2.7-6.6C-102.4-631.3-104.9-632.3-107.3-632.3z"/>
			</g>
			<g>
				<path class="st10" d="M-94.4-648.9c-3.7,3.7-3.7,9.6,0,13.2l0,0c3.7,3.7,9.7,3.7,13.3,0l0,0c3.7-3.7,3.7-9.6,0-13.2l0,0
					c-1.8-1.8-4.2-2.7-6.7-2.7l0,0C-90.2-651.6-92.7-650.6-94.4-648.9z"/>
			</g>
		</g>
		<g>
			<g>
				<path class="st10" d="M-107.3-709.6c-2.5,0-4.9,1-6.7,2.7c-1.8,1.8-2.7,4.1-2.7,6.6s1,4.8,2.7,6.6c1.8,1.8,4.2,2.7,6.7,2.7
					c2.5,0,4.9-1,6.7-2.7s2.7-4.1,2.7-6.6s-1-4.8-2.7-6.6S-104.9-709.6-107.3-709.6z"/>
			</g>
			<g>
				<path class="st10" d="M-94.4-686.8c-3.7,3.7-3.7,9.6,0,13.2l0,0c3.7,3.7,9.7,3.7,13.3,0l0,0c3.7-3.7,3.7-9.6,0-13.2l0,0
					c-1.8-1.8-4.2-2.7-6.7-2.7l0,0C-90.2-689.6-92.7-688.6-94.4-686.8z"/>
			</g>
		</g>
	</g>
	<g>
		<path class="st10" d="M-68.8-652.3c2.5,0,4.9-1,6.7-2.7c1.8-1.8,2.7-4.1,2.7-6.6c0-2.5-1-4.8-2.7-6.6s-4.2-2.7-6.7-2.7
			c-2.5,0-4.9,1-6.7,2.7c-1.8,1.8-2.7,4.1-2.7,6.6c0,2.5,1,4.8,2.7,6.6C-73.7-653.2-71.3-652.3-68.8-652.3z"/>
	</g>
	<g>
		<path class="st10" d="M-106.7-652.3c2.5,0,4.9-1,6.7-2.7c1.8-1.8,2.7-4.1,2.7-6.6c0-2.5-1-4.8-2.7-6.6c-1.8-1.8-4.2-2.7-6.7-2.7
			s-4.9,1-6.7,2.7c-1.8,1.8-2.7,4.1-2.7,6.6c0,2.5,1,4.8,2.7,6.6C-111.6-653.2-109.1-652.3-106.7-652.3z"/>
	</g>
	<g>
		<path class="st10" d="M-131.9-652.3c2.5,0,4.9-1,6.7-2.7c1.8-1.8,2.7-4.1,2.7-6.6c0-2.5-1-4.8-2.7-6.6c-1.8-1.8-4.2-2.7-6.7-2.7
			c-2.5,0-4.9,1-6.7,2.7s-2.7,4.1-2.7,6.6c0,2.5,1,4.8,2.7,6.6C-136.8-653.2-134.4-652.3-131.9-652.3z"/>
	</g>
	<g>
		<path class="st10" d="M-157.1-652.3c2.5,0,4.9-1,6.7-2.7c1.8-1.8,2.7-4.1,2.7-6.6c0-2.5-1-4.8-2.7-6.6s-4.2-2.7-6.7-2.7
			c-2.5,0-4.9,1-6.7,2.7s-2.7,4.1-2.7,6.6c0,2.5,1,4.8,2.7,6.6C-162.1-653.2-159.6-652.3-157.1-652.3z"/>
	</g>
</g>
<g>
	<g>
		<g>
			<g>
				<path class="st2" d="M182-632.3c-2.5,0-4.9,1-6.7,2.7c-1.8,1.8-2.7,4.1-2.7,6.6c0,2.5,1,4.8,2.7,6.6s4.2,2.7,6.7,2.7
					c2.5,0,4.9-1,6.7-2.7s2.7-4.1,2.7-6.6c0-2.5-1-4.8-2.7-6.6C186.9-631.3,184.5-632.3,182-632.3z"/>
			</g>
			<g>
				<path class="st2" d="M194.9-648.9c-3.7,3.7-3.7,9.6,0,13.2l0,0c3.7,3.7,9.7,3.7,13.3,0l0,0c3.7-3.7,3.7-9.6,0-13.2l0,0
					c-1.8-1.8-4.2-2.7-6.7-2.7l0,0C199.1-651.6,196.7-650.6,194.9-648.9z"/>
			</g>
		</g>
		<g>
			<g>
				<path class="st2" d="M182-709.6c-2.5,0-4.9,1-6.7,2.7s-2.7,4.1-2.7,6.6s1,4.8,2.7,6.6s4.2,2.7,6.7,2.7c2.5,0,4.9-1,6.7-2.7
					s2.7-4.1,2.7-6.6s-1-4.8-2.7-6.6S184.5-709.6,182-709.6z"/>
			</g>
			<g>
				<path class="st2" d="M194.9-686.8c-3.7,3.7-3.7,9.6,0,13.2l0,0c3.7,3.7,9.7,3.7,13.3,0l0,0c3.7-3.7,3.7-9.6,0-13.2l0,0
					c-1.8-1.8-4.2-2.7-6.7-2.7l0,0C199.1-689.6,196.7-688.6,194.9-686.8z"/>
			</g>
		</g>
	</g>
	<g>
		<path class="st2" d="M220.5-652.3c2.5,0,4.9-1,6.7-2.7c1.8-1.8,2.7-4.1,2.7-6.6c0-2.5-1-4.8-2.7-6.6c-1.8-1.8-4.2-2.7-6.7-2.7
			s-4.9,1-6.7,2.7c-1.8,1.8-2.7,4.1-2.7,6.6c0,2.5,1,4.8,2.7,6.6C215.6-653.2,218.1-652.3,220.5-652.3z"/>
	</g>
	<g>
		<path class="st2" d="M182.7-652.3c2.5,0,4.9-1,6.7-2.7c1.8-1.8,2.7-4.1,2.7-6.6c0-2.5-1-4.8-2.7-6.6c-1.8-1.8-4.2-2.7-6.7-2.7
			c-2.5,0-4.9,1-6.7,2.7s-2.7,4.1-2.7,6.6c0,2.5,1,4.8,2.7,6.6C177.7-653.2,180.2-652.3,182.7-652.3z"/>
	</g>
	<g>
		<path class="st2" d="M157.4-652.3c2.5,0,4.9-1,6.7-2.7c1.8-1.8,2.7-4.1,2.7-6.6c0-2.5-1-4.8-2.7-6.6s-4.2-2.7-6.7-2.7
			c-2.5,0-4.9,1-6.7,2.7c-1.8,1.8-2.7,4.1-2.7,6.6c0,2.5,1,4.8,2.7,6.6C152.5-653.2,155-652.3,157.4-652.3z"/>
	</g>
	<g>
		<path class="st2" d="M132.2-652.3c2.5,0,4.9-1,6.7-2.7c1.8-1.8,2.7-4.1,2.7-6.6c0-2.5-1-4.8-2.7-6.6s-4.2-2.7-6.7-2.7
			s-4.9,1-6.7,2.7s-2.7,4.1-2.7,6.6c0,2.5,1,4.8,2.7,6.6C127.3-653.2,129.7-652.3,132.2-652.3z"/>
	</g>
</g>
<g>
	<g>
		<polygon class="st7" points="-1074.8,-126.3 -1074.8,-126.3 -1068.9,-135.4 		"/>
		<path class="st7" d="M-1046.1-126.3L-1046.1-126.3l-8.2,25.8l-3.7-16l2.5-7.4h-11.6l2.5,7.4l-3.7,16.3l-8.3-25.9l-0.6-0.1
			c0,0-21.8-0.1-21.8,10.3c0,11.4,0,25,0,25h74c0,0,0-13.6,0-25C-1025-126.3-1046.1-126.3-1046.1-126.3z"/>
		<polygon class="st7" points="-1053.7,-135.4 -1047.9,-126.3 -1047.9,-126.3 		"/>
	</g>
	<path class="st7" d="M-1061.5-185.3c17.5,0,20.4,14.2,20.7,20.7c0.2,5.5-1,12.6-6.4,21.9s-9.8,7.8-9.8,7.8h-9c0,0-4.4,1.6-9.8-7.7
		c-5.4-9.3-6.6-16.7-6.4-22.2c0.3-6.5,3.2-18.6,20.7-18.6L-1061.5-185.3z"/>
	<polyline class="st7" points="-1023,-176.2 -1017.4,-167.9 -1006.4,-186.7 	"/>
	<path class="st7" d="M-1038.7-187.4c0-5.4,4.4-9.8,9.8-9.8h28.1c5.4,0,9.8,4.4,9.8,9.8v21.4c0,5.4-4.4,9.8-9.8,9.8h-23.2l-9.2,11.8
		"/>
</g>
<circle class="st6" cx="-803" cy="-145.1" r="100"/>
<g>
	<polyline class="st7" points="-818.9,-139.3 -845.4,-165.8 -818.9,-192.2 	"/>
	<path class="st7" d="M-794.5-97.9c18.7,0,33.9-15.2,33.9-33.9s-15.2-33.9-33.9-33.9h-50.9"/>
</g>
<circle class="st6" cx="-382" cy="-145.1" r="100"/>
<circle class="st6" cx="-382" cy="100" r="100"/>
<circle class="st6" cx="-794.1" cy="99" r="100"/>
<g>
	<circle class="st6" cx="-1039" cy="100" r="100"/>
	<g>
		<path class="st7" d="M-1046.4,128.7l13.7-17.5h42.4c8,0,14.5-6.5,14.5-14.5V64.9c0-8-6.5-14.5-14.5-14.5h-41.6
			c-8,0-14.5,6.5-14.5,14.5v20.3"/>
		<path class="st7" d="M-1056.5,106.5c0-5.4-4.4-9.8-9.8-9.8h-28.1c-5.4,0-9.8,4.4-9.8,9.8v21.4c0,5.4,4.4,9.8,9.8,9.8h28.6
			l9.2,11.8"/>
		<circle class="st7" cx="-1089.5" cy="117.7" r="0.5"/>
		<circle class="st7" cx="-1079.5" cy="117.7" r="0.5"/>
		<circle class="st7" cx="-1069.4" cy="117.7" r="0.5"/>
		<circle class="st7" cx="-1011.3" cy="98.8" r="0.5"/>
		<path class="st7" d="M-1011.3,89.3c0-4.8,8.8-7,8.8-15.3c0-4.8-3.9-8.8-8.8-8.8c-4.8,0-8.8,3.9-8.8,8.8"/>
	</g>
</g>
<g>
	<path class="st7" d="M-802.9,109.5c12.7,12.7,29.7,23.5,35.4,17.9c5.4-5.4,6.3-10.6,6.3-10.6l-16.6-6.1l-3,6c0,0-11.1-9.6-15.5-14
		c-4.3-4.3-13.9-15.4-13.9-15.4l6-2.9l-6.1-16.6c0,0-5.1,0.8-10.5,6.2C-826.4,79.7-815.6,96.7-802.9,109.5
		C-802.9,109.4-802.9,109.5-802.9,109.5z"/>
	<path class="st7" d="M-794.1,151.8c-29.1,0-52.7-23.6-52.7-52.7s23.6-52.7,52.7-52.7c29.1,0,52.7,23.6,52.7,52.7
		c0,14.7-10,41.8-36.9,28.5"/>
	<path class="st7" d="M-794.1,64.6c19,0,34.4,15.4,34.4,34.4"/>
	<path class="st7" d="M-794.1,74.6c13.5,0,24.5,11,24.5,24.5"/>
</g>
<path class="st7" d="M-390.6-146.1l-27,30.1l-28.4-30l18.2-0.1c0-27.1,22-49.2,49.1-49.2c27.1,0,49.1,22,49.1,49.1
	s-22,49.1-49.1,49.1c-10.7,0-20.6-3.4-28.7-9.3l12-13.4c4.8,3.1,10.6,4.8,16.7,4.8c17.3,0,31.3-14,31.3-31.3
	c0-17.3-14-31.3-31.3-31.3c-17.3,0-31.4,14.1-31.4,31.3L-390.6-146.1z"/>
<polygon class="st7" points="-396.1,143.7 -396,163.1 -426,136.1 -395.9,107.8 -395.8,126.1 -341,126.1 -341,143.6 "/>
<polygon class="st7" points="-396.1,73.7 -396,93.1 -426,66.1 -395.9,37.8 -395.8,56.1 -341,56.1 -341,73.6 "/>
<circle class="st6" cx="-141" cy="100" r="100"/>
<polygon class="st7" points="-166.1,107.7 -166,127.1 -196,100.1 -165.9,71.8 -165.8,90.1 -91,90.1 -91,107.6 "/>
<circle class="st11" cx="100" cy="100" r="100"/>
<polygon class="st7" points="125,92.3 125,72.9 155,99.9 124.9,128.3 124.8,110.1 50,110.1 50,92.4 "/>
</svg>
