<?xml version="1.0" encoding="utf-8"?>
<!-- Generator: Adobe Illustrator 19.2.0, SVG Export Plug-In . SVG Version: 6.00 Build 0)  -->
<!DOCTYPE svg PUBLIC "-//W3C//DTD SVG 1.1//EN" "http://www.w3.org/Graphics/SVG/1.1/DTD/svg11.dtd">
<svg version="1.1" id="Layer_1" xmlns="http://www.w3.org/2000/svg" xmlns:xlink="http://www.w3.org/1999/xlink" x="0px" y="0px"
	 width="40px" height="40px" viewBox="0 0 40 40" style="enable-background:new 0 0 40 40;" xml:space="preserve">
<style type="text/css">
	.st0{fill:#CCCCCC;}
	.st1{fill:#FFFFFF;}
</style>
<g>
	<circle class="st0" cx="20" cy="20" r="20"/>
	<path class="st1" d="M25,27.7c-0.1,0-0.3,0-0.4-0.1l-5-5l-5,5c-0.2,0.2-0.5,0.2-0.7,0l-1.7-1.7c-0.2-0.2-0.2-0.5,0-0.7l5-5l-5-5
		c-0.2-0.2-0.2-0.5,0-0.7l1.7-1.7c0.2-0.2,0.5-0.2,0.7,0l5,5l5-5c0.2-0.2,0.5-0.2,0.7,0l1.7,1.7c0.1,0.1,0.1,0.2,0.1,0.4
		S27.1,15,27,15.1l-5,5l5,5c0.1,0.1,0.1,0.2,0.1,0.4c0,0.1-0.1,0.3-0.1,0.4l-1.7,1.7C25.2,27.6,25.1,27.7,25,27.7z"/>
</g>
</svg>
